<svg xmlns="http://www.w3.org/2000/svg" width="256" height="256" viewBox="0 0 256 256">
  <defs>
    <style>
      .cls-1 {
        fill: #fff;
        fill-rule: evenodd;
      }
    </style>
  </defs>
  <path id="Wenrexa_Healing_magic" data-name="Wenrexa Healing magic" class="cls-1" d="M250.6,151.364c-6.072,3.682-25.476-1.929-49.427-.59-13.613.761-31.144,2.169-45.6,2.384,0.811,5.871,1.606,13.135,2,22.475,1.349,32.022,6.742,54.943,0,71.459s-42.808,7.079-49.886-4.045,14.157-50.56,9.438-63.369a245.246,245.246,0,0,1-7.741-29.066,237.978,237.978,0,0,1-28.3,2.839c-32.048,1.339-54.988,6.695-71.518,0S4.472,107.845,16,101.477c5.4-2.984,46.505,11.428,59.324,6.742,5.77-2.109,18.705-4.538,32.422-6.089,5.967-26.194-4.108-86.943-4.108-86.943,0.337-20.9,51.572-16.853,55.28-10.786s-5.394,27.3-4.045,51.235c0.826,14.664,2.409,33.877,2.427,48.891,26.217,4.517,76.374-6.136,81.166-7.094C260.388,93.047,256.67,147.682,250.6,151.364ZM207.453,71.815C186.891,84.961,185.88,82.6,184.532,75.86c-1.837-9.184-3.708-26.291,17.528-36.4s16.179-17.191,16.179-21.573S228.014,58.67,207.453,71.815ZM79.366,77.208c-0.674-.337-2.7,3.708-20.224-1.348S41.277,20.243,41.614,23.277,47.681,40.8,67.231,46.2,86.7,80.876,79.366,77.208ZM91.5,182.374c-3.371,10.787-40.089,41.78-43.145,37.752-3.085-4.066,11.214-23.16,14.3-36.165C64.3,177.042,94.871,171.588,91.5,182.374Zm93.032-6.741c21.91-1.011,52.583,41.123,29.662,40.449-8.149-.24-28.274-23.224-29.662-28.314C183.521,184.06,170.4,176.285,184.532,175.633Z"/>
</svg>
