<svg xmlns="http://www.w3.org/2000/svg" width="256" height="256" viewBox="0 0 256 256">
  <defs>
    <style>
      .cls-1 {
        fill: #fff;
        fill-rule: evenodd;
      }
    </style>
  </defs>
  <path id="Wenrexa_Minus" data-name="Wenrexa Minus" class="cls-1" d="M237.031,165.144H213.816V99.955h23.215a19,19,0,0,1,19,19v27.189A19,19,0,0,1,237.031,165.144Zm-75.264,41.965H96.579V165.144H50.845V99.955H96.579V52.83h65.188V99.955h43.357v65.189H161.767v41.965ZM96.579,18.708A18.708,18.708,0,0,1,115.286,0h27.773a18.708,18.708,0,0,1,18.708,18.708v25.43H96.579V18.708ZM42.153,165.144H18.969a19,19,0,0,1-19-19V118.955a19,19,0,0,1,19-19H42.153v65.189Zm119.614,72.148A18.708,18.708,0,0,1,143.059,256H115.286a18.708,18.708,0,0,1-18.707-18.708V215.8h65.188v21.491Z"/>
</svg>
