<svg xmlns="http://www.w3.org/2000/svg" width="256" height="256" viewBox="0 0 256 256">
  <defs>
    <style>
      .cls-1 {
        fill: #fff;
        fill-rule: evenodd;
      }
    </style>
  </defs>
  <path id="Wenrexa_Shovel" data-name="Wenrexa Shovel" class="cls-1" d="M229.089,67.113c-6.846,2.873-33.178-9.056-33.178-9.056S183.362,32.015,186.072,25.1,203.492,0.094,203.492.094l28.594,20.921,21.592,28.09S235.935,64.24,229.089,67.113ZM201.382,21.378c-2.113.649-8.482,19.731,1.531,29.509s28.938,2.959,29.537.831c-1.492-9.449-12.033-18.755-12.033-18.755S210.864,22.646,201.382,21.378Zm-4.164,47.293s-35.012,36.04-65.364,67.12-66.655,56.3-66.655,56.3,24.353-36.89,54.706-67.97S185.269,57,185.269,57l3.057,8.822ZM40.208,217.681c14.205-6.536,40.72-21.915,73.059-55.686,0,0,22.488,34.344,13.507,43.54L90.6,242.577s-52.377,25.888-76.746,2.09c-24.167-23.6.272-76.773,0.272-76.773L50.3,130.852c8.981-9.2,43.848,12.472,43.848,12.472C61.153,176.454,46.406,203.325,40.208,217.681Z"/>
</svg>
