<svg xmlns="http://www.w3.org/2000/svg" width="256" height="256" viewBox="0 0 256 256">
  <defs>
    <style>
      .cls-1 {
        fill: #fff;
        fill-rule: evenodd;
      }
    </style>
  </defs>
  <path id="Wenrexa_Pants" data-name="Wenrexa Pants" class="cls-1" d="M202.821,216.707c10.378,26.748,13.158,33.185,13.158,33.185s-24.433,10.04-56.363,2.935c-14.73-2.9-19.618-13.77-19.618-13.77s-7.182-42.756-.7-67.664c4.626-17.777,8.5-18.1-6.219-48.795-5.4-11.267-8.526-16.6-10.325-18.784-0.081.876-.186,1.549-0.186,1.549l-0.061-1.832c-0.821-.926-1.349-1.163-1.644-0.912l-0.035-1.841c-1.631,1.982-4.5,7.4-9.549,19.637-12.987,31.466-9.1,31.575-3.49,49.067,7.859,24.508,3.49,67.586,3.49,67.586A43.029,43.029,0,0,1,88.7,252.119c-31.485,8.873-52.682,0-52.682,0s2.417-6.582,11.289-33.866-22.578-60.208-22.578-60.208,4.829,0.192,11.289-15.052c8.291-19.564,3.98-45.7-1.54-72.829,16.719-6.194,59.5-21.246,84.325-21.246,21.845,0,66.589,12.06,87.11,19.4-3.633,26.647-5.347,54.483,3.564,72.625,7.3,14.861,12.11,14.4,12.11,14.4S192.442,189.959,202.821,216.707ZM120.863,102.619l0.1,5.369S119.973,103.371,120.863,102.619Zm88.254-53.7C197.122,45.085,154.193,30.1,118.805,30.1c-32.229,0-80.644,16.6-89.033,19.386C26.973,38.366,24.731,30.1,24.731,30.1l3.763-3.763C52.469,6.071,118.805,0,118.805,0s66.208,5.375,91.276,24.278l3.966,3.547s-2.13,8.525-4.522,21.277C209.381,49.049,209.265,48.966,209.117,48.919Z"/>
</svg>
