<svg xmlns="http://www.w3.org/2000/svg" width="256" height="256" viewBox="0 0 256 256">
  <defs>
    <style>
      .cls-1 {
        fill: #fff;
        fill-rule: evenodd;
      }
    </style>
  </defs>
  <path id="Wenrexa_Feather" data-name="Wenrexa Feather" class="cls-1" d="M254.157,9.432s-30.914,12.031-55.8,36.1c-8.519,1.212-18.751,5.282-18.751,5.282s13.681,1.507,15.681,1.514-16.353,14.458-26.719,28.957c-3.689,5.16-28.178,7.784-28.178,7.784l15.286,2.642s-14.091,14.585-18.271,16.293-25.518,7.68-25.518,7.68l21.915,0.3s-40.154,27.9-54.9,68.286c-9.88,6.1-47.358,1.114-54.841,11.635C7.895,218.632,6.6,246.373,6.6,246.373s-4.475,4.662-5.554.218S1.607,218.227,15,191.812c10.381-21.128-.355-28.047,5.851-49.179S27.3,122.308,27.3,122.308s1.976,24.334,8.126,26.912c-1.48-20.649,4.586-36.447,5.08-44.072s17.856-26.834,27.7-31.127c-2.96,7.291-5.7,34.923-2.187,43.958,0.513,1.32,9.917-36.18,15.341-48.926s44.006-31.746,61.2-39.121c0.261,5.461-1.942,19.521-1.942,19.521s6.3-20.533,11.413-22.119,68.3-18.852,88.065-20.107S254.157,9.432,254.157,9.432ZM139.968,60.071C88.251,100.314,31.063,177.251,31.063,177.251,46.9,163.663,51.8,165.07,51.755,164.778,92.262,95.265,173.935,39.729,173.935,39.729S151.937,50.049,139.968,60.071Z"/>
</svg>
