<svg xmlns="http://www.w3.org/2000/svg" width="256" height="256" viewBox="0 0 256 256">
  <defs>
    <style>
      .cls-1 {
        fill: #fff;
        fill-rule: evenodd;
      }
    </style>
  </defs>
  <path id="Wenrexa_Winter" data-name="Wenrexa Winter" class="cls-1" d="M86.82,131.737s25.318-31.095-5.414-44.666S19.1,96.245,27.579,132.545c6.777,29.012,47.053,49.277,47.06,49.272S11.805,171.347,2.9,131.737s6.825-77.553,50.08-74.443,69.852,26.723,59.555,46.02S89.275,130.373,86.82,131.737Zm169.189,23.01s-44.248-54.13-73.09-48.727S124.2,166.651,94.941,157.454,54.89,126.617,61.1,118.2s12.693-1.407,12.182,0-3.261-17.9-20.3-9.475-9.108,31.063-2.707,39.252,35.56,29.539,55.494,29.777,57.278-34.5,69.029-40.6C192.82,127.793,220.268,132.1,256.009,154.747Zm-4.061,20.3s-29.229-20.9-44.666-21.656-41.9,29.2-56.847,36.545c-17.869,8.782-49.692,16.474-73.09,6.767C60.383,189.668,40.8,185.877,40.8,185.877s23.754,34.974,62.262,35.192c39.294,0.221,76.265-33.534,86.625-39.252C205.488,173.1,233.4,168.228,251.948,175.049Z"/>
</svg>
