<svg xmlns="http://www.w3.org/2000/svg" width="256" height="256" viewBox="0 0 256 256">
  <defs>
    <style>
      .cls-1 {
        fill: #fff;
        fill-rule: evenodd;
      }
    </style>
  </defs>
  <path id="Wenrexa_Necromanty_magic" data-name="Wenrexa Necromanty magic" class="cls-1" d="M255.472,100.513c-5.873,32.47-15.545,67.357-52.5,78.757s-62.522,11.744-77.375-8.291-39.724-49.4-58.032-53.886c-10.866-2.665-14.045-1.751-19.344,0-7.966,2.632,13.4-8.544,6.908-29.016-4.792-15.106,8.29-27.979,16.58-33.161S69.287,44.208,82.759,31.428s54.577-38.342,89.81-26.252S261.344,68.043,255.472,100.513ZM80,94.986c5.181,2.073,11.054,12.09,13.817,6.908S90.7,79.787,85.522,79.787,67.152,92.652,67.56,93.6C68.6,96.022,74.814,92.913,80,94.986ZM97.958,39.718c-7.6-.345-21.762,22.107-29.016,35.924s15.89-1.382,24.871-6.909S107.382,40.146,97.958,39.718Zm38.687,11.054c-8.981,4.145-23.489,40.415-15.2,48.36s12.435,12.435,22.107,12.435,21.823-2.893,27.634-15.2C182.932,71.5,145.626,46.626,136.645,50.771ZM48.216,121.238c15.2-4.145,22.107,4.145,22.107,4.145s-0.691,2.764-5.527,11.054-18.308,13.817-23.489,9.672S46.422,121.728,48.216,121.238ZM71.705,169.6c12.032-2.623,15.433,14.487,19.344,15.2,1.611,0.293,7.877-4.667,9.672-2.763s3.038,6.152,2.763,11.054S86.476,201.513,80,194.468s-16.661.747-34.543,4.145-17.417-4.277-20.726-20.725-8.262-24.855-15.2-22.107-1.412,12.777-6.909,8.29-2.412-16.6,5.527-19.344,18.717,3.033,20.726,5.527,0.189,24.9,8.29,29.016S59.673,172.22,71.705,169.6Zm5.527-11.054c-5.527,0-10.708-3.109-12.435-8.29s12.435-20.726,12.435-20.726c8.29,1.382,14.853,9.327,13.817,11.054S83.6,158.544,77.232,158.544ZM96.576,147.49l16.58,17.963c-8.635,8.29-24.87,5.181-27.634,1.381-2.549-3.5,6.332-18.737,10.132-18.046S96.307,147.893,96.576,147.49ZM71.705,198.613c17.681-5.548-8.29,35.234,9.672,33.161s46.633-31.434,44.215-35.924,46.632,1.036,45.6,8.29-28.671,21.417-35.924,31.779-24.526,18.653-33.161,17.962-39.724-2.418-42.833-23.489S70.663,198.94,71.705,198.613Z"/>
</svg>
