<svg xmlns="http://www.w3.org/2000/svg" width="256" height="256" viewBox="0 0 256 256">
  <defs>
    <style>
      .cls-1 {
        fill: #fff;
        fill-rule: evenodd;
      }
    </style>
  </defs>
  <path id="Wizard_s_Cap" data-name="Wizard&apos;s Cap" class="cls-1" d="M246.813,217.645c-55.449,43.226-149.134,56.608-230.054,6.3-29.725-18.479,22.06-40.969,22.06-40.969-7.238,28,27.9,42.948,70.643,45.727,9.718,7.256,22.325,13.812,23.966,15.125,1.767,1.414,14.96-7.951,24.648-16.973a204.764,204.764,0,0,0,28.86-6.061c31.655-9.231,35.251-22.255,25.211-37.818C227.262,181.1,258.2,207.77,246.813,217.645Zm-97.694-12.606c0.949,5.535-13.4,27.1-15.757,25.212s-19.541-17.007-15.758-25.212,15.758-28.362,15.758-28.362S148.169,199.505,149.119,205.039ZM159.162,45.556c-4.122,1.9-10.2,5.723-12.162,6.444-3.357,1.237,4.278.969,10.871-.06-2.317,26.238,21.611,77.582,32.216,80.617,6.485,1.855-22.62,23.641-15.757,28.362s28.2,31.325,22.06,34.666A156.913,156.913,0,0,1,166.2,208.064c-8.241-14.493-35.92-51.867-35.92-51.867s-25.493,43.7-31.36,55.663c-12.667-2.781-24.285-7.852-33.9-15.548-12.266-9.822-10.972-11.493-7.292-13.333,18.075-9.037,57-39.879,59.877-50.422s-25.211-18.909-25.211-18.909S105.94,105.2,108.15,85.285s8.52-56.33,28.363-66.18S191.885-1.2,211.407,1.334C223.649,2.924,167.625,22.15,159.162,45.556Z"/>
</svg>
