<svg xmlns="http://www.w3.org/2000/svg" width="256" height="256" viewBox="0 0 256 256">
  <defs>
    <style>
      .cls-1 {
        fill: #fff;
        fill-rule: evenodd;
      }
    </style>
  </defs>
  <path id="Wenrexa_Helmet" data-name="Wenrexa Helmet" class="cls-1" d="M231.651,198.048c-4.576,17.3-72.411,63.694-73.143,57.389-3.268-28.153,3.564-93.545,7.877-95.648,31.963-7.131,46.136-38.259,46.136-38.259S203.8,98.8,178.763,96.774a52.65,52.65,0,0,0-40.51,14.628S149,165.914,146.13,174.418c-2.665,7.891-16.958,16.636-19,17.855,0,0.1,0,.149,0,0.149L127,192.348l-0.125.074s0-.052,0-0.149c-2.045-1.219-16.338-9.964-19-17.855-2.871-8.5,7.877-63.016,7.877-63.016a52.65,52.65,0,0,0-40.51-14.628C50.2,98.8,41.479,121.53,41.479,121.53s14.173,31.128,46.136,38.259c4.313,2.1,11.145,67.5,7.877,95.648-0.732,6.305-68.567-40.085-73.143-57.389C19.138,185.905,24.4,76.269,37.472,37.653,53.6,15.917,88.828.63,125.864,0.029A0.26,0.26,0,0,1,125.875,0c0.375,0,.75.011,1.125,0.014S127.75,0,128.125,0a0.26,0.26,0,0,1,.011.029c37.036,0.6,72.268,15.888,88.392,37.624C229.6,76.269,234.862,185.905,231.651,198.048Z"/>
</svg>
