<svg xmlns="http://www.w3.org/2000/svg" width="256" height="256" viewBox="0 0 256 256">
  <defs>
    <style>
      .cls-1 {
        fill: #fff;
        fill-rule: evenodd;
      }
    </style>
  </defs>
  <path id="Wenrexa_Hand_Glove" data-name="Wenrexa Hand + Glove" class="cls-1" d="M95.667,237.821s40.413-49.156,35.3-62.124-8.856-9.533-14.119-25.415c-2.265-6.837-20.311-12.383-26.826-12.707-6.314-.314-26.229,4.885-26.827,8.471C61.087,158.683,48.32,161.868,40.6,160.165c5.252-8.378,5.942-23.629,12.707-28.238,2.984-2.033,12.051-11.106,22.591-11.295,20.859,0.5,23.206-3.166,35.3-2.824,3.436,0.1-29.348-10-36.71-11.3s-20.619,4.979-24,5.648-14.476,7.206-16.943,7.06c-16.6-.988-24.312-6.063-5.648-15.532,3.185-.259,29.279-20.344,42.358-19.767,14.487,0.639,51.341,10.31,53.653,5.648,2.594-5.232-21.115-23.348-36.71-31.062C84,56.927,56.757,56.885,54.721,57.095s-21.833,12.981-24,14.119S17.59,73.41,8.128,66.978a315.885,315.885,0,0,0,35.3-28.239s31.081-1.819,39.534-1.412c19.49,0.938,53.238,23.291,60.713,31.062s1.065-7.4-4.236-25.415c-2.19-7.443-31.736-27.045-35.3-25.415-11.033,5.05-16.82,4.865-26.827,2.824-2.737-.558-21.652-4.4-5.648-9.883,35.527-12.635,26.827-15.779,69.184,1.412,3.6,10.191,23.36,29.123,38.122,38.122,7.767,4.735,7.754,21.212,16.943,31.062C200.381,85.885,154.492,95.947,153,109c-2.73,23.888,7.26,45.84,6.2,37.046-3.514-29.255-3.323-33.148,16.943-44.593,21.652-12.228,26.806-4.738,35.3-14.708s7.1-35.07,2.824-40.946,1.568-26.274,11.3-33.886c3.585-2.7,8.871-11.127,11.3,7.06s6.9,30.545,9.883,33.886-8.989,43.348-11.295,50.829c-11.291,43.884-6.475,46.552-32.474,64.949-13.066,6.712-15.414,73.724-12.708,79.068S107.03,267.61,95.667,237.821Z"/>
</svg>
