<svg xmlns="http://www.w3.org/2000/svg" width="256" height="256" viewBox="0 0 256 256">
  <defs>
    <style>
      .cls-1 {
        fill: #fff;
        fill-rule: evenodd;
      }
    </style>
  </defs>
  <path id="Wenrexa_Sword" data-name="Wenrexa Sword" class="cls-1" d="M231.155,254.741c-6.768.7-37.337-32.926-48.539-37.822s12.252-24.023,16.686-15.4,14.267,26.929,48.573,40.686C253.7,244.546,237.923,254.042,231.155,254.741Zm-85.091-23.709c-4.668,2.1-32.61-8.349-16.508-12.779s20.959-24.276,20.959-24.276,7.234-12.524,11.351-15.479c3.739-2.684,14.447-5.16,14.447-5.16a35.3,35.3,0,0,0,20.017-21.085c6.76-18.909,18.124,11.742,16.49,15.706S150.731,228.934,146.064,231.032Zm7.305-64.52s-7.849,21.147-11.349,22.079S8.624,57.5,8.624,57.5L5.125-.028,88.837,8.114S175.67,163,173.8,164.632,153.369,166.512,153.369,166.512ZM30.229,22.456L144.488,167.617l2.116-8.779,10.781-1.031Z"/>
</svg>
