<svg xmlns="http://www.w3.org/2000/svg" width="256" height="256" viewBox="0 0 256 256">
  <defs>
    <style>
      .cls-1 {
        fill: #fff;
        fill-rule: evenodd;
      }
    </style>
  </defs>
  <path id="Wenrexa_Fire_1" data-name="Wenrexa Fire 1" class="cls-1" d="M224.275,79.173c-12.517,19.3-38.535,36.975-22.589,62.121s26.1,70.413-11.3,96a157.4,157.4,0,0,1-23.5,13.552c1.064-8.292,4.941-18.772,15.832-28.186,22.6-19.54,18.126-46.995,7.667-70.075s-0.479-50.323-.479-50.323-9.41,9.1-14.666,38.515c-8.193,45.857,3.92,49.694-22.589,22.589C119.14,129.1,112.641,59.137,112.641,59.137S98.982,66.6,91.078,105.859c-6.294,31.261-8.445,60.065,21.563,107.819,15.622,6.722-39.248-12.272-64.691-39.534,6.9,42.371,39.416,68.842,60.54,81.872-2.209-.492-4.443-1.029-6.718-1.61,0,0-103.452-12.655-63.858-141.35C42.266,131.2,70.283,184.82,71.8,163.882S49.366,63.168,133.918,17.052C132.886,17.085,162.155.11,162.155,0.11s-31.7,22.434-28.237,67.768c2.735,35.76,10.173,58.215,27.242,68.53-1.354-.479,3.669-37.553,29.231-51.588s21-30.433,17.49-41.855S236.792,59.871,224.275,79.173ZM51.544,104.062S32.64,90.034,32.266,73.525c-0.272-12,10.782-40.594,22.872-50.327-3.914,20.978-8.67,14.923-.282,44.68S51.544,99.027,51.544,104.062Z"/>
</svg>
