<svg xmlns="http://www.w3.org/2000/svg" width="256" height="256" viewBox="0 0 256 256">
  <defs>
    <style>
      .cls-1 {
        fill: #fff;
        fill-rule: evenodd;
      }
    </style>
  </defs>
  <path id="Wenrexa_Knife_2" data-name="Wenrexa Knife 2" class="cls-1" d="M209.141,254.988c-5.394-1.994-25.773-77.5-63.521-96.884-19.127-11.537-23.847-11.408-36.446-10.413,0,0,35.2-43.337,39.57-45.818,2.378,0.171,100.7,108.963,107.256,135.372C256.74,241.481,236.748,257.646,209.141,254.988Zm15.619-40.652A13.537,13.537,0,1,0,238.3,227.873,13.537,13.537,0,0,0,224.76,214.336ZM109.735,130.081c-0.212-4.656-25.5-42.821-67.206-61.53C29.613,59.1,8.165-.177,8.165-0.177,59.554,12.269,139.071,98.36,138.331,96.666,133.834,103.236,109.981,135.456,109.735,130.081Z"/>
</svg>
