<svg xmlns="http://www.w3.org/2000/svg" width="256" height="256" viewBox="0 0 256 256">
  <defs>
    <style>
      .cls-1 {
        fill: #fff;
        fill-rule: evenodd;
      }
    </style>
  </defs>
  <path id="Wenrexa_Battle_magic" data-name="Wenrexa Battle magic" class="cls-1" d="M127.077,242.071c3.273-12.622,10.338-15.143,12.1-30.252s3.828-41.578,3.039-48.376c-1.67-14.4-16.985-19.967-34.286-38.32-24.391-25.874-21.4-72.762-8.067-88.741s53.12,5.438,70.589,12.1,34.461,53.365,22.185,64.539-52.84,6.571-52.438-8.067,20.169-20.169,20.169-20.169-13.542,15.151-4.034,18.152c21.227,6.7,31.263-3.413,22.185-24.2-7.448-17.057-51.339-29.452-58.488-12.1s-1.361,50.874,12.1,60.505c15.693,11.226,22.181,16.012,26.219,28.235,3.321,10.053-6.071,52.686-3.039,66.528s6.375,20.2-2.017,32.269C149.03,260.308,125.117,249.631,127.077,242.071ZM67.9,21.522S82.567-1.011,105.279,2.265s39.033,18.391,54.371,13.593S189.1,0,189.1,0s-13.058,21.864-28.319,24.92-49.826-12.252-61.168-9.062C79.469,21.525,81.726,56.269,72.429,62.3s-35.537.853-40.779-2.265C32.688,60.532,56.482,59.007,67.9,21.522Zm7.929,55.5c1.718-.415,5.973,14.625,4.531,22.655s-7.578-.407-18.124,11.328-9.291,34.259-9.062,39.646-7.787-23.826-3.4-37.381,10.239-11.639,12.46-19.256S64.03,79.881,75.827,77.027ZM189.1,128c-0.608,2.431,8.877,1.861,7.929,12.46s4.947,17.631,11.327,19.257,16.992-6.8,16.992-6.8-19.712,5.358-19.257-4.531,5.027-18.052,2.265-26.053S190.243,123.433,189.1,128Z"/>
</svg>
