<svg xmlns="http://www.w3.org/2000/svg" width="256" height="256" viewBox="0 0 256 256">
  <defs>
    <style>
      .cls-1 {
        fill: #fff;
        fill-rule: evenodd;
      }
    </style>
  </defs>
  <path id="Wenrexa_Water" data-name="Wenrexa Water" class="cls-1" d="M179.906,127.53c14.184-2.648,24.47-12.1,27.11-16.266s2.27,14.855-6.506,36.87c-9.645,24.192-19.179,32.112-24.941,34.7-2.137.96,2.16-10.436,1.084-17.351s5.4-10.687,6.507-17.35C184.586,139.573,163.926,130.514,179.906,127.53Zm-29.278,32.532c23.281,20.09,9.825,56.214-20.909,55.2-48.2-1.592-37.135-59.626-33.312-80.14,11.582-62.13,28.968-76.93,32.532-82.414C119.383,67.408,118.149,132.036,150.628,160.062ZM149.543,199.1s4.338-5.964,4.338-16.266S138.7,164.4,138.7,164.4C155.778,183.648,149.543,199.1,149.543,199.1Zm79.1-45.808c-7.579,50.987-3.484,76.911-46.23,89.78C78.754,274.283,73.269,196.5,46.525,217.536,29.948,230.576,34.7,259.2,8.164,186.365-26.735,90.593,61.907,44.429,61.907,44.429S39.668,66.222,35.725,109.2C32.782,141.259,53.013,160.253,81.6,179.01c3.281,25.6,16.935,49.3,57.1,46.117,12.6-1,22.573-8.469,29.117-18.667,23.648-10.944,41.49-39.3,47.876-64.832,4.753-19.007,11.093-68.107-14.144-44.553s-26.988,7.117-44.414,32.624a34.721,34.721,0,0,0-4.158,8.125c-22.757-20.328-24-77.39-9.939-89.455,16.349-14.025-18.544-24.67-42.292,26.026C89.63,104.216,90.1,104.018,84.479,130.784a182.378,182.378,0,0,0-3.006,19.551C71.4,141.1,63.881,129.057,61.907,116.086c-4.823-31.695,50.5-162.136,104.987-88.321,32.872,44.536,34.853,17.372,70.023,31.822C280.836,77.631,236.228,102.306,228.648,153.293Z"/>
</svg>
