<svg xmlns="http://www.w3.org/2000/svg" width="256" height="256" viewBox="0 0 256 256">
  <defs>
    <style>
      .cls-1 {
        fill: #fff;
        fill-rule: evenodd;
      }
    </style>
  </defs>
  <path id="Wenrexa_Armor_1_Body" data-name="Wenrexa Armor 1 + Body" class="cls-1" d="M231.215,70.831c0.188-.575-17.076-42.88-34.4-50.593-3.27-1.708-19.621-3.5-26.308-4.047,0,0,5.442-15.345,12.142-16.19,1.321-.167,57.676-3.057,57.676,37.439,0,31.919,4.047,50.593,4.047,50.593S237.305,73.181,231.215,70.831ZM216.657,66.7c-0.585-.744-2.042-1.5-5.679-0.93-6.323.989-5.743,10.765-19.225,34.4s-12.143,63.746-12.143,63.746c-9,9-31,13.967-47.157,15.031a0.9,0.9,0,0,1-.4.147,32.632,32.632,0,0,1-4.162.056c-1.766.036-3.428,0.018-4.944-.056a2.924,2.924,0,0,1-1.517-.43c-14.569-1.537-37.756-6.464-46.041-14.748,0,0,1.34-40.108-12.142-63.746s-12.9-33.414-19.225-34.4c-3.637-.569-5.094.186-5.679,0.93,2.119-5.8,12.715-33.182,24.9-36.345,13.641-3.54,22.411-2.344,25.3-5.059,2.777-2.613,9.582,13.07,38.956,15.008,29.374-1.938,36.179-17.621,38.956-15.008,2.886,2.715,11.655,1.519,25.3,5.059C203.942,33.52,214.538,60.905,216.657,66.7Zm0,0a1.72,1.72,0,0,1,.392,1.093S216.91,67.392,216.657,66.7Zm-178.314,0c-0.252.69-.392,1.093-0.392,1.093A1.717,1.717,0,0,1,38.343,66.7Zm90.912-35.62c-4.664.341-22.273-.461-35.652-13.879l7.083-5.059S114.7,20.6,127.5,22.048c12.8-1.445,26.814-9.905,26.814-9.905L161.4,17.2C149.462,29.365,136.664,31.237,129.255,31.082ZM23.785,70.831c-6.09,2.35-13.154,17.2-13.154,17.2s4.047-18.673,4.047-50.593C14.678-3.056,71.033-.165,72.354,0c6.7,0.845,12.142,16.19,12.142,16.19-6.687.546-23.038,2.34-26.308,4.047C40.861,27.951,23.6,70.255,23.785,70.831Zm40.474,152.79c-0.625-4.536,4.089-8.65,6.071-19.226s-0.711-24.436-2.024-30.355c-1.275-5.749,8.977,13.983,59.193,15.122,50.217-1.139,60.469-20.871,59.193-15.122-1.313,5.919-4.005,19.78-2.023,30.355s6.7,14.69,6.071,19.226,6.071,13.154,6.071,13.154c-9.228,15.852-57.294,18.715-67.79,19.153,0,0.044,0,.072,0,0.072s-0.359-.008-1.021-0.032c-0.65.024-1,.032-1,0.032l0-.07c-10.607-.435-59.564-3.287-68.8-19.155C58.188,236.775,64.885,228.156,64.259,223.621Z"/>
</svg>
