<svg xmlns="http://www.w3.org/2000/svg" width="256" height="256" viewBox="0 0 256 256">
  <defs>
    <style>
      .cls-1 {
        fill: #fff;
        fill-rule: evenodd;
      }
    </style>
  </defs>
  <path id="Wenrexa_Skull_Demon" data-name="Wenrexa Skull Demon" class="cls-1" d="M231.124,54.107c-4.1,9.268,28.125,32.437,21.531,57.794S203.9,164.141,200.527,179.9s-10.051,19.313-28.331,22.664-16.779-.709-25.074-4.676-16.6-2.051-19.121-2.051-10.826-1.917-19.122,2.051-6.794,8.027-25.074,4.676S58.847,195.648,55.474,179.9,9.94,137.258,3.346,111.9,28.978,63.375,24.877,54.107s-16.013,4.627-3.4-18.132S86.071-.288,86.071-0.288s-27.889,26.53-37.4,34,8.153,16.708,1.133,26.064S38.068,61.635,31.677,81.3s18.908,38.545,19.265,31.73c1.044-19.957,13.345-36.918,18.132-43.062C86.927,47.057,128,47.308,128,47.308s41.074-.251,58.927,22.664c4.787,6.144,17.088,23.106,18.132,43.062,0.356,6.815,25.656-12.06,19.265-31.73s-11.112-12.175-18.132-21.531,10.64-18.6,1.133-26.064-37.4-34-37.4-34,51.98,13.505,64.594,36.263S235.225,44.839,231.124,54.107ZM108.736,132.3c-2.557-4.93-17.047-25.417-27.2-31.4s-21.8,28.271-11.332,33.665,33.906,7.748,36.263,19.265S111.443,137.521,108.736,132.3Zm14.732,23.8c-2.817,1.463-7.936,14.6-5.666,15.865s5.775-1.185,5.666-5.666S126.284,154.634,123.468,156.1Zm9.066,0c-2.817-1.463.108,5.717,0,10.2s3.4,6.929,5.666,5.666S135.35,157.56,132.534,156.1Zm41.929-55.2c-10.151,5.981-24.641,26.468-27.2,31.4-2.707,5.222-.09,33.048,2.267,21.532s25.8-13.871,36.263-19.265S184.613,94.921,174.463,100.9ZM94,208.225c1.4,1.541.925,17.8-3.4,22.665-2.834,3.189-3.583,17.364-3.651,25.11H86.425c-2.578-8.612-10.9-24.361-13.952-30.776-3.7-7.764,3.513-20.625,3.513-20.625C82.368,210.788,92.608,206.684,94,208.225Zm11.166-3.206c2.9-7.93,17.029-6.264,18.3-3.593s-2.623,17.249-4.533,27.2-11.242,15.388-10.2,13.6,0.7-11.943-2.267-17S103.681,209.09,105.17,205.019Zm31.9,23.6c-1.909-9.948-5.8-24.526-4.532-27.2s15.4-4.337,18.3,3.593c1.49,4.071,1.665,15.149-1.3,20.2s-3.309,15.209-2.267,17S138.976,238.571,137.066,228.623ZM169.048,256c-0.068-7.746-.817-21.921-3.651-25.11-4.324-4.866-4.8-21.124-3.4-22.665s11.636,2.563,18.019-3.626c0,0,7.208,12.861,3.513,20.625-3.054,6.415-11.374,22.164-13.952,30.776h-0.529Z"/>
</svg>
