<svg xmlns="http://www.w3.org/2000/svg" width="256" height="256" viewBox="0 0 256 256">
  <defs>
    <style>
      .cls-1 {
        fill: #fff;
        fill-rule: evenodd;
      }
    </style>
  </defs>
  <path id="Wenrexa_Double_Axe" data-name="Wenrexa Double Axe" class="cls-1" d="M3.005,230.888s1.76,0.788,8.873-5.871C55.427,184.252,209.468,38.845,208.9,35.511c-0.658-3.878,6.555-4.646,11.286-2.371S230.1,48.628,225.468,47.9,32.645,219.981,29.414,237.02,8.986,254.892,7.151,255.927-0.762,245.865,3.005,230.888ZM162.014,119.1s39.532,6.65,37.773,15.593c-7.743,39.343-38.478,4.341-47.022,5.912s30.185,32.221,21.31,67.558c-2.722,10.839,94.837-13.292,80.381-83.233,0.076,0.718-27.3,5.256-45.6-11.762s-18.682-17.193-26.446-12.316m-46.052-7.411s-6.65-39.533-15.593-37.773c-39.344,7.742-4.341,38.478-5.913,47.021S82.628,72.509,47.292,81.384C36.453,84.106,60.583-13.454,130.525,1c-0.718-.076-5.256,27.3,11.762,45.6S159.48,65.288,154.6,73.052"/>
</svg>
