<svg xmlns="http://www.w3.org/2000/svg" width="256" height="256" viewBox="0 0 256 256">
  <defs>
    <style>
      .cls-1 {
        fill: #fff;
        fill-rule: evenodd;
      }
    </style>
  </defs>
  <path id="Wenrexa_Lightning" data-name="Wenrexa Lightning" class="cls-1" d="M199.986,18.72s-55.045,50.986-77.721,54.862-72.519-2.464-72.519-2.464L6.173,98.846l39.612-9.9,3.961,9.9L33.9,122.613l27.423-19.806S53.94,84.59,59.649,83s21.787,2.591,21.787,2.591l-3.961,35.65-27.2,41.82L38.395,135.335l-27.728,51.5L38.395,159.1l11.884,21.786,33.138-49.742,9.9-31.689L105.2,123.224,85.4,154.914,69.688,211.881l19.67-9.433L76.546,255.314l28.574-69.721-19.43,8,15.551-38.679H128.97L156.7,111.34l-7.922,43.574,15.845-9.9L147.41,190.164l32.375-13.691L158,231.93l41.593-73.282-33.894,9.8,18.73-51.166-19.806,13.864,5.941-63.379,79.224-67.34ZM105.2,143.03l15.844-23.767-7.922-25.748L150.756,75.69l-1.98,23.767-23.767,45.554Z"/>
</svg>
