<svg xmlns="http://www.w3.org/2000/svg" width="256" height="256" viewBox="0 0 256 256">
  <defs>
    <style>
      .cls-1 {
        fill: #fff;
        fill-rule: evenodd;
      }
    </style>
  </defs>
  <path id="Wenrexa_Inkwell_with_pen" data-name="Wenrexa Inkwell with pen" class="cls-1" d="M232.492,1.525s-18.979,7.386-34.258,22.166a60.8,60.8,0,0,0-11.512,3.243s8.4,0.925,9.627.93-10.04,8.876-16.4,17.778c-2.265,3.168-17.3,4.779-17.3,4.779l9.385,1.622s-8.651,8.954-11.217,10-15.668,4.715-15.668,4.715L158.6,66.943s-24.653,17.127-33.709,41.924c-6.066,3.747-29.076.684-33.67,7.143a52.618,52.618,0,0,0-4.722,8.145c0.482,0.03.928,0.064,1.328,0.1,6.136-.576,22.814-0.357,22.93,6.552s-6.551,3.275-6.551,3.275-6.639,9.426,0,29.482,14.112-.083,36.033,13.1S114.163,250.1,114.163,250.1c-7,6.07-26.335,5.546-26.335,5.546s-19.331.524-26.335-5.546c0,0-48-60.245-26.077-73.431s29.394,6.953,36.033-13.1,0-29.482,0-29.482-6.668,3.633-6.552-3.275c0.085-5.062,9.057-6.531,16.263-6.729a87.029,87.029,0,0,1,4.5-10.582c6.374-12.971-.218-17.219,3.592-30.193s3.963-12.479,3.963-12.479,1.213,14.94,4.989,16.523c-0.909-12.677,2.816-22.377,3.119-27.058s10.962-16.475,17.005-19.11c-1.817,4.476-3.5,21.441-1.342,26.988,0.315,0.811,6.088-22.213,9.418-30.038s27.018-19.491,37.572-24.018c0.16,3.353-1.192,11.985-1.192,11.985s3.867-12.606,7.007-13.58S211.72,0.942,223.859.172,232.492,1.525,232.492,1.525Zm-70.106,31.09c-31.752,24.707-66.862,71.942-66.862,71.942,9.725-8.342,12.733-7.478,12.7-7.657C133.1,54.222,183.24,20.126,183.24,20.126S169.735,26.462,162.386,32.615Z"/>
</svg>
