<svg xmlns="http://www.w3.org/2000/svg" width="256" height="256" viewBox="0 0 256 256">
  <defs>
    <style>
      .cls-1 {
        fill: #fff;
        fill-rule: evenodd;
      }
    </style>
  </defs>
  <path id="Wenrexa_Palm_of_Hand" data-name="Wenrexa Palm of Hand" class="cls-1" d="M161.448,255.865c-16.944-1.05-53.069-8.706-59.677-19.323s5.461-22.8-45.844-50.794c-8.52-41.667-14.437-38.84-31.836-46.132-15-6.285-.833-20.47,17.234-19.208,34.3,0.539,29.5,44.313,49.508,41.7,11.963-1.561,2.483-34.956,2.809-40.5S79.973,35.6,79.25,24.862c-0.7-10.393,10.736-10.4,20.108-4.993,11.515,6.643,17.548,84.376,25.721,102.144S125.3,9.428,131.189,2.1c3.455-4.295,20.341.007,24.264,8.55s1.491,111.562,8.229,114.05,7.6-108.017,11.055-111.688,21.639,3.42,22.109,15.632,1.808,92.922,5.438,98.748,11-68.634,12.465-75.05,17.665-2.072,19.25,4.4-1.552,63.385-2.368,79.29c-0.734,14.318-9.364,92.053-15.914,98.383S191.589,257.735,161.448,255.865Z"/>
</svg>
