<svg xmlns="http://www.w3.org/2000/svg" width="256" height="256" viewBox="0 0 256 256">
  <defs>
    <style>
      .cls-1 {
        fill: #fff;
        fill-rule: evenodd;
      }
    </style>
  </defs>
  <path id="Wenrexa_Bow" data-name="Wenrexa Bow" class="cls-1" d="M230.825,53.519L188.4,66.94,177.2,78.366C224.028,120.059,233.578,221.9,233.578,221.9S100.71,196.53,69.121,188.66l-21.8,22.249L31.131,255.742l-30.3-44.618,42.132-11.95,17.178-16.7C49.937,161.814,12.881,70.559,6.946,34.226c0,0,114.226,1.7,164.853,39.732l11.153-10.839,4.406-36.229L254.653,0.571ZM12.946,216c-0.892,1.054,16.819,21.089,16.819,21.089l10.834-28.6S13.838,214.947,12.946,216Zm7.1-169.831C18.094,43.434,54.857,157.9,65.608,177.163l93.012-90.4C125.307,66.75,20.337,40.115,20.05,46.169ZM164.736,91.085L75.67,181.976c31.813,6.973,144.28,25.872,144.28,25.872S192.3,114.947,164.736,91.085Zm58.723-65.4c7.234-2.88,10.729.982,10.729,0.982l7.705-13.645L199.527,31.837S216.226,28.569,223.459,25.689Z"/>
</svg>
