<svg xmlns="http://www.w3.org/2000/svg" width="256" height="256" viewBox="0 0 256 256">
  <defs>
    <style>
      .cls-1 {
        fill: #fff;
        fill-rule: evenodd;
      }
    </style>
  </defs>
  <path id="Wenrexa_Mascot" data-name="Wenrexa Mascot" class="cls-1" d="M150.207,83.081c1.559,2.849-30.943,1-30.943,1S102.831,40.246,4.23,16.2C2.714,17.554,11.966.725,11.966,0.725S122.7,61.691,236.3.725c-1.453-3.884,15.472,7.736,15.472,7.736S150.139,59.356,150.207,83.081Zm-14.471,18.207A77.356,77.356,0,1,1,58.38,178.644,77.356,77.356,0,0,1,135.736,101.288Zm0,139.241a61.885,61.885,0,1,0-61.885-61.885A61.884,61.884,0,0,0,135.736,240.529Zm0-100.563a38.678,38.678,0,1,1-38.678,38.678A38.678,38.678,0,0,1,135.736,139.966Z"/>
</svg>
