<svg xmlns="http://www.w3.org/2000/svg" width="256" height="256" viewBox="0 0 256 256">
  <defs>
    <style>
      .cls-1 {
        fill: #fff;
        fill-rule: evenodd;
      }
    </style>
  </defs>
  <path id="Wenrexa_Fire_2" data-name="Wenrexa Fire 2" class="cls-1" d="M200.137,138.933c-16.076,5.842-18.88,27.027-13.644,46.208,11.244,46.374-34.08,67.275-51.833,70.856,0.229-4.817-.815-9.6-4.9-15.763-10.384-15.679-6.118-36.774,4.8-50.565,10.352-13.069-8.915-57.03-8.915-57.03s-16.771,22.811-22.477,42.914c-5.646,19.889-28.555,20.533-19.873,48.7,4.7,15.26,16.51,21.516,26.347,30.784-80.112-20.621-58.169-81.86-47.8-98.428,14.179-22.652,13.279-29.423-1.239-36.56-30.1-14.8-9.624-26.564-11.54-19.932-3.192,11.051,14.4,10.682,28.324,11.54,36.83,2.268,15.495,46.37,22.845,31.651,7.492-6.564,25.042-35.217-6.138-64.315C70.039,56.536,140.26-19.1,126.377,4.537,102.354,98.22,191.458,80.126,168.566,100.1c-33.465,29.2-21.782,88.306-14.625,82.166s2.079-39.534,27.313-52.773c25.331-13.291,45.507,13.136,39.864,11.539C221.118,141.031,216.324,133.05,200.137,138.933ZM94.416,216.33c1.791-15.53,12-17.912,17.574-33.257s3-15.326,12.615-25.257c11.384,28.739-5.345,32.763-13.335,48.961s10.456,42.01,11.159,44.6S93.256,226.391,94.416,216.33Z"/>
</svg>
