<svg xmlns="http://www.w3.org/2000/svg" width="256" height="256" viewBox="0 0 256 256">
  <defs>
    <style>
      .cls-1 {
        fill: #fff;
        fill-rule: evenodd;
      }
    </style>
  </defs>
  <path id="Wenrexa_Long_Dagger" data-name="Wenrexa Long Dagger" class="cls-1" d="M250.262,28.577c-7.844-5.736-24.992-23.466-20.908-26.571s13.936-4.182,23.071,5.033S251.687,29.619,250.262,28.577Zm-6.486,6.443c2.042,4.4-6.419,9.061-8.774,6.3-6-7.028-17.8-18.805-19.3-22.119s0.447-6.56,5.743-6.444S241.733,30.616,243.776,35.02ZM222.923,56.448c-7.3-4.693-19.755-17.864-21.554-22.234s2.3-8.08,5.726-8.576S222.954,43.3,226.508,47.157,226.3,58.62,222.923,56.448Zm12.96,35.808c-1.421,11.766-20.759,10.7-25.11,10.559s16.35-4.393,12.18-10.631c-1.742-2.606-51.62-55.51-61.625-54.486s-9.937,16.368-9.937,16.368S141.178,30.59,157.73,24.847C174.32,19.092,237.3,80.482,235.883,92.256ZM200.006,83.5C185.329,106.958,1.152,255.884,1.152,255.884,24.983,206.829,174.222,58.42,174.222,58.42S194.284,66.91,200.006,83.5Z"/>
</svg>
