<svg xmlns="http://www.w3.org/2000/svg" width="256" height="256" viewBox="0 0 256 256">
  <defs>
    <style>
      .cls-1 {
        fill: #fff;
        fill-rule: evenodd;
      }
    </style>
  </defs>
  <path id="Wenrexa_Ring" data-name="Wenrexa Ring" class="cls-1" d="M25.176,227.5c-51.79-36.525-11.965-93.457,18.806-129.8,6.4,8.841,14.884,16.1,24.323,22.075-24.328,27.348-50.641,68.85-20.8,85.063,60.554,32.9,198.781-75.8,171.992-122.223-15.417-31.224-48.965-27.336-79.158-14.535-6.763-12.745-15.27-21.85-24.494-28.257,49.192-22.9,116.9-35.574,136.958,21.013C283.862,148.463,80.045,266.191,25.176,227.5Zm107.5-104.461s-87.555-7.08-94.957-94.92C39.284,28.8,132.128,22.92,132.674,123.034ZM37.713,28.073c0,0.014,0,.027,0,0.041C37.69,28.1,37.685,28.089,37.713,28.073Z"/>
</svg>
