<svg xmlns="http://www.w3.org/2000/svg" width="256" height="256" viewBox="0 0 256 256">
  <defs>
    <style>
      .cls-1 {
        fill: #fff;
        fill-rule: evenodd;
      }
    </style>
  </defs>
  <path id="Wenrexa_Potion" data-name="Wenrexa Potion" class="cls-1" d="M153.844,101.032c14.453,7.825,72.9,65.166,68.186,114.676-8,24.493-51.031,39.547-92.979,40.258,0,0.011,0,.023,0,0.034-0.516,0-1.034-.013-1.55-0.017s-1.034.017-1.55,0.017v-0.034C84,255.255,40.972,240.2,32.97,215.708,28.258,166.2,86.7,108.857,101.156,101.032S114.6,80.2,113.553,72s-18.6-9.533-18.6-9.533c-3.086-14.279,30.993-12.4,30.993-12.4s37.012-3.549,34.093,12.4c0,0-17.545,1.328-18.6,9.533S139.392,93.208,153.844,101.032ZM127.5,56.266c-7.7,0-10.185,3.445-8.055,8.118,2.032,4.458,4.81,11.332,9.327,11.87,4.261,0.508,7.984-10.13,8.436-13.233C137.947,57.939,135.2,56.266,127.5,56.266Zm1.545,42.284a0.7,0.7,0,0,0-.206-0.086,0.6,0.6,0,0,0-.915-0.166c-7.155,5.263-89.752,90.681-69.6,111.211,19.067,19.427,48.825,24.287,67.631,24.753,0,0.011,0,.032,0,0.042,0.511,0,1.036,0,1.567-.012s1.033,0.012,1.533.012c0-.01,0-0.031,0-0.041,18.816-.457,48.657-5.235,67.631-24.754C216.871,188.737,136.233,103.627,129.045,98.55Zm43.4,111.252c-18.352,14.62-38.081.31-40.292-3.1s21.609,4.233,27.994-1.573,1.8-8.179,6.1-10.824C166.242,194.305,179.949,203.82,172.441,209.8Zm-8.451-28.186c-9.608,8.7-28.328,3.492-27.894-3.1s1.813-5.037,9.3-3.1c17.735,4.592-2.315-20.765-13.245-27.894s-10.166,2.025-1.57-18.142C133.731,121.986,173.6,172.917,163.99,181.616Zm-36.636-16.9s-9.568-3.68-17.193-2.543,5.808,17.275,7.895,27.338-17.033,19.971-24.795,21.7c-5.951,1.323-5.6,4.484-12.4,0s10.31-12.914,18.6-21.7,1.425-13.7-6.2-21.7,10.662-17.522,22.543-16.344S127.354,164.715,127.354,164.715Zm20.034-128a6.12,6.12,0,1,1,6.12-6.12A6.12,6.12,0,0,1,147.388,36.717Zm-8.159-24.478a6.12,6.12,0,1,1,6.12-6.119A6.119,6.119,0,0,1,139.229,12.239ZM105.062,31.618a13.769,13.769,0,1,1,13.769-13.769A13.769,13.769,0,0,1,105.062,31.618Z"/>
</svg>
