<svg xmlns="http://www.w3.org/2000/svg" width="256" height="256" viewBox="0 0 256 256">
  <defs>
    <style>
      .cls-1 {
        fill: #fff;
        fill-rule: evenodd;
      }
    </style>
  </defs>
  <path id="Wenrexa_Rsources" data-name="Wenrexa Rsources" class="cls-1" d="M203.232,104.158l45.913,3.826-36.8,17.987Zm1.9,25.186-45.9,58.414v8.8l53.082-57.165,30.715,3.839-0.2.526L186.2,189.77c13.405,3.076,36.733,9.267,39.031,15.588,3.241,8.912-25.191,9.024-35.2,17.6s11.036,13.3,4.4,17.6c-30.466,19.737-33.217,3.887-61.6,4.4-42.281.765-53.324,7.329-61.6,4.4s1.84-6.687-8.8-13.2c-11.945-7.312-13.2,0-13.2,0s-12.22,10.981-13.2-8.8c-0.219-4.429,3.159-8.51,7.551-11.933L3.851,156.693l27.723-5.878,30.857,50.143,8.8-4.4L39.384,144.805,52.02,119.978l14.812,10.58S83.477,187.705,84.675,199l3.4-.972L58.618,83.881l53.443,6.68,7.571,106h4.4L120.39,94.6l-1.52-5.2,4.741-1.524L187.316,64.4l-31.287,99.548,43.861-55.557ZM105.662,5.066L183.9,56.883,120.9,82.283ZM53.632,64.558l43.75-50.481,14.024,67.316,0.015,0.221L55.99,73.694ZM0.5,148.494L5.231,86.558,45.654,114.85,31.632,139.358ZM254,111.606l-8.128,25.542L219.456,134.1Z"/>
</svg>
