<svg xmlns="http://www.w3.org/2000/svg" width="256" height="256" viewBox="0 0 256 256">
  <defs>
    <style>
      .cls-1 {
        fill: #fff;
        fill-rule: evenodd;
      }
    </style>
  </defs>
  <path id="Wenrexa_Cargo_Bag" data-name="Wenrexa Cargo Bag" class="cls-1" d="M240,121s-30.117-16.067-42-31-20.594-34.49-45-24c-28.18,12.112-39,.611-44-1s-10.753,1.107-11-6c-0.265-7.618,13-8,13-8-2.65,2.544-4.177,1.852,1,7s33.09,1.425,35,0-0.426-3.769,1-4,4.771-1.934,8,3c2.288,3.5-1.754,4.24,14-3,18.213-8.37,46.132,45.539,79,44C241.243,100.825,240,121,240,121ZM144.95,43.98c-0.214,1.666-.423,3.382-0.541,5.128-11.893,6.153-23.265,3.9-31.852-.559-0.122-1.534-.313-3.059-0.507-4.568C110.81,34.3,90.117,15.736,90.117,15.736,104.173-1.3,126.672,1.114,126.672,1.114S152.827-1.3,166.883,15.736C166.883,15.736,146.19,34.3,144.95,43.98ZM101,71.1c23.408,13.89,45.6,6.816,57.92,2.764,0.217,0.122.424,0.245,0.648,0.365,17.045,9.228,85.978,75.86,80.421,134.254-9.438,28.888-60.188,46.644-109.664,47.482,0,0.013,0,.027,0,0.04-0.609,0-1.219-.015-1.828-0.02s-1.219.02-1.828,0.02c0-.013,0-0.027,0-0.04C77.2,255.122,26.445,237.367,17.007,208.478,11.45,150.084,80.383,82.453,97.428,73.224,98.727,72.521,99.908,71.811,101,71.1Z"/>
</svg>
