<svg xmlns="http://www.w3.org/2000/svg" width="256" height="256" viewBox="0 0 256 256">
  <defs>
    <style>
      .cls-1 {
        fill: #fff;
        fill-rule: evenodd;
      }
    </style>
  </defs>
  <path id="Wenrexa_Dagger" data-name="Wenrexa Dagger" class="cls-1" d="M138.309,49.573c-3.9,2.6-83,77.047-81.425,92.054s24.642,14.986,24.642,14.986S46.267,171.867,37.6,146.978s83.052-118.8,100.71-116.673,16.237,30.966,16.07,37.464S147.633,43.362,138.309,49.573ZM51.527,81.684c-6.541,2.677-12.107-3.454-12.857-8.563s26.39-23.612,32.142-28.9,17.162,0.326,13.928,5.352C77.747,60.44,58.067,79.007,51.527,81.684ZM62.052,31.576C51.563,40.5,33.981,58.048,29.028,60.276s-9.809-.676-9.642-8.563S46.024,21.563,52.6,18.531,66.165,28.076,62.052,31.576ZM3.315,39.939c-4.638-6.077-6.24-20.7,7.5-34.253S44.508,6.783,42.956,8.9C34.409,20.542,7.952,46.016,3.315,39.939ZM125.452,83.825c35.37,22.009,130.709,170.192,130.709,170.192C180.548,216.949,87.954,122.359,87.954,122.359S100.587,92.344,125.452,83.825Z"/>
</svg>
