<svg xmlns="http://www.w3.org/2000/svg" width="256" height="256" viewBox="0 0 256 256">
  <defs>
    <style>
      .cls-1 {
        fill: #fff;
        fill-rule: evenodd;
      }
    </style>
  </defs>
  <path id="Wenrexa_Shoes" data-name="Wenrexa Shoes" class="cls-1" d="M197.219,130.141c-21.4,12.56,13.73,70.6,4.6,90.272-19.729-7.917-49.992,27.9-58.785,32.871-97.165,10.062-97.952-10.792-94.9-13.267,30.784,4.777,54.03-9.034,59.534-13.843s30.4-53.551,30.4-53.551-3.959-29.63-26.155-58.748C79.256,51.3,85.882,49.761,91.447,37.219c3.681-8.3,12.893-37.253,28.846-37.2S218.907,70.5,218.907,70.5,207.533,101.745,197.219,130.141Zm-0.856-56.092c-2.082-9.9-67.846-53.753-73.752-48.163s-20.139,48.705-17,41.08c2.5-6.08,17.9-30.577,24.082-29.747s51.226,34.576,56.753,42.5-4.25,43.913-4.25,43.913S198.444,83.953,196.363,74.049ZM198.988,227.5s2.071,23.038,0,23.448-23.013,2.177-24.082,0-4.249-10.7-4.249-10.7C184.84,223.805,198.988,227.5,198.988,227.5Z"/>
</svg>
