<svg xmlns="http://www.w3.org/2000/svg" width="256" height="256" viewBox="0 0 256 256">
  <defs>
    <style>
      .cls-1 {
        fill: #fff;
        fill-rule: evenodd;
      }
    </style>
  </defs>
  <path id="Wenrexa_Double_Dagger" data-name="Wenrexa Double Dagger" class="cls-1" d="M250.262,28.577c-7.844-5.736-24.992-23.466-20.908-26.571s13.936-4.182,23.071,5.033S251.687,29.619,250.262,28.577Zm-6.486,6.443c2.042,4.4-6.419,9.061-8.774,6.3-6-7.028-17.8-18.805-19.3-22.119s0.447-6.56,5.743-6.444S241.733,30.616,243.776,35.02ZM222.923,56.448c-7.3-4.693-19.755-17.864-21.554-22.234s2.3-8.08,5.726-8.576S222.954,43.3,226.508,47.157,226.3,58.62,222.923,56.448Zm12.96,35.808c-1.421,11.766-20.759,10.7-25.11,10.559s16.35-4.393,12.18-10.631c-1.742-2.606-51.62-55.51-61.625-54.486s-9.937,16.368-9.937,16.368S141.178,30.59,157.73,24.847C174.32,19.092,237.3,80.482,235.883,92.256ZM200.006,83.5c-4.288,6.853-23.048,24.42-47.447,45.845,42.581,45.265,91.5,100.212,104.289,126.543,0,0-70.588-57.079-127.848-106.131C71.74,198.805,1.152,255.884,1.152,255.884c12.791-26.331,61.709-81.278,104.289-126.543C81.043,107.916,62.282,90.35,57.994,83.5,63.716,66.91,83.778,58.42,83.778,58.42S103.126,77.661,129,104.574c25.874-26.913,45.222-46.154,45.222-46.154S194.284,66.91,200.006,83.5ZM96.672,37.7c-10-1.024-59.883,51.88-61.625,54.486-4.17,6.238,16.529,10.493,12.18,10.631s-23.688,1.207-25.109-10.559S83.68,19.092,100.27,24.847c16.552,5.742,6.339,29.218,6.339,29.218S106.664,38.721,96.672,37.7ZM35.077,56.448c-3.376,2.171-7.141-5.438-3.586-9.291S47.48,25.143,50.905,25.639s7.526,4.206,5.727,8.576S42.373,51.755,35.077,56.448ZM23,41.325c-2.355,2.756-10.817-1.9-8.774-6.3S31.253,12.877,36.553,12.761s7.243,3.13,5.744,6.444S29,34.3,23,41.325ZM7.738,28.577C6.313,29.619-3.565,16.26,5.575,7.039S24.56-1.1,28.647,2.006,15.582,22.841,7.738,28.577Z"/>
</svg>
