<svg xmlns="http://www.w3.org/2000/svg" width="256" height="256" viewBox="0 0 256 256">
  <defs>
    <style>
      .cls-1 {
        fill: #fff;
        fill-rule: evenodd;
      }
    </style>
  </defs>
  <path id="Wenrexa_Saw" data-name="Wenrexa Saw" class="cls-1" d="M235.193,51.295l5.4,22.208-23.141-1.78,2.356,21.034-23.1-2.834,3.329,23.182-25.168-3.968,5.4,24.316-22.98-6,3.168,27.4-26.1-7.169,5.154,30.638s-26.53-7.938-26.141-6.116,4.06,31.652,4.06,31.652l-48.642-52.51L233.686,5.705l22.461,47.288ZM105.49,129.54L88.639,156.171,228.907,20.3ZM80.8,251C75.209,251.081,0,211.581.222,205.711s52.185-49.59,55.752-50.629,61.433,69.054,61.615,72S86.385,250.92,80.8,251Zm-9.529-26.744c-14.429-9.852-41.575-29.33-26.959-40.074S59.544,172.1,59.544,172.1s-24.826,5.857-32.577,24.079C23.9,203.389,73.986,240.76,81.24,239.41s15.074-7.865,15.074-7.865S85.7,234.107,71.267,224.256Z"/>
</svg>
