<svg xmlns="http://www.w3.org/2000/svg" width="256" height="256" viewBox="0 0 256 256">
  <defs>
    <style>
      .cls-1 {
        fill: #fff;
        fill-rule: evenodd;
      }
    </style>
  </defs>
  <path id="Wenrexa_Hand_Gesture_of_Power" data-name="Wenrexa Hand Gesture of Power" class="cls-1" d="M234.277,68.214c-5.857,11.442-20.416,36.457-22.89,52.022a26.322,26.322,0,0,0-.22,7.6c-6.991,3.76-20.007,7.811-26.831.727-2.778-2.884-3.71-7.622-4.01-12.252,4.708-4.54,8.491-11.869,12.333-16.881,6.327-8.253,11.973-28.5,14.567-37.456S239.927,57.176,234.277,68.214Zm-81.154,39.537a27.322,27.322,0,0,1-2.521-2.438c6.2-13.324,17.66-43.738,23.329-74.555,1.589-8.632,17.839,3.524,22.89,12.485,7.184,12.744-14.639,45.11-24.246,63.584C165.8,109.374,156.117,109.961,153.123,107.751Zm-9.192-9.689c-5.3-5.867-11.928-13.309-17.5-19.3-0.954-2.224-1.8-3.795-2.437-4.3-0.958-.767-2.709-2.149-5.177-3.852,3.137-1.187,7.058-20.8,13.5-64.817,0.9-6.178,21.714-8.2,31.213-2.081C174.345,7.978,165.4,23.7,155.2,55.729,151.022,65.216,145.59,84.633,143.931,98.062ZM118.813,70.6C118.722,70.639,118.694,70.523,118.813,70.6Zm-5.969-3.8a99.005,99.005,0,0,0-20.067-9C75.874,52.422,76.459,47.8,80.292,37S81.6,11.818,90.7,7.868s34.3-9.094,29.132,6.243C111.649,38.367,106.46,58.379,112.844,66.807Zm0,0C113.646,67.279,112.983,66.991,112.844,66.807Zm4.9,18.054c-0.159,20.683,12.485,37.456,12.485,37.456-15.567,7.388-21.842-.372-31.213-4.162S85.506,97.8,76.13,99.427c-9.8,1.7-8.324,4.162-8.324,4.162S82,114.458,86.534,120.236c16.666,21.246,38.444,12.429,45.78,14.566,5.432,1.583,5.6-14.908,4.162-22.89-0.312-1.732-.933-4.363-1.744-7.443a108.6,108.6,0,0,0,12.148,13.686c8.909,8.024,22.89,2.081,22.89,2.081s-4.348,13.226,10.4,24.971c7.058,5.619,24.133-.449,34.08-4.772,0.049,2.712-.65,6.089-2.867,11.014-7.563,16.806-37.676,21.083-45.779,39.537s0.227,38.436,6.243,52.022c-56.323,32.529-118.611-4.162-118.611-4.162S71.354,218.9,76.13,186.824c6.024-36.657-31.92-40.305-35.375-49.941s-25.249-51.8-18.728-58.265S51.38,46.221,57.4,51.567s9.156,7.225,20.809,16.647C89.3,77.18,117.8,77.91,117.748,84.861Z"/>
</svg>
