<svg xmlns="http://www.w3.org/2000/svg" width="256" height="256" viewBox="0 0 256 256">
  <defs>
    <style>
      .cls-1 {
        fill: #fff;
        fill-rule: evenodd;
      }
    </style>
  </defs>
  <path id="Wenrexa_Money_Gold_2" data-name="Wenrexa Money Gold 2" class="cls-1" d="M176.847,91.656c-43.723,0-79.167-19.907-79.167-44.464S133.124,2.729,176.847,2.729s79.167,19.907,79.167,44.464S220.57,91.656,176.847,91.656ZM175.762,102.5c71.511,0,79.167-36.872,79.167-36.872s0.216,12.906,0,14.1c-6.19,14.062-34.258,36.872-81.336,36.872S100.778,90.883,97.68,81.9C95.511,75.6,96.6,65.629,96.6,65.629S104.251,102.5,175.762,102.5ZM96.6,91.572s2.1,9.076,14.312,18.693c-5.557-1.228-10.258-2.081-12.84-2.474-0.153-.334-0.285-0.653-0.388-0.952C95.511,100.548,96.6,91.572,96.6,91.572Zm61.082,68.183c0,24.556-33.444,44.463-77.167,44.463S1.343,184.311,1.343,159.755s35.444-42.464,79.167-42.464S157.677,135.2,157.677,159.755ZM79.426,215.063c71.511,0,77.167-35.872,77.167-35.872s0.215,12.906,0,14.1c-6.191,14.062-32.258,35.872-79.336,35.872s-72.815-24.716-75.914-33.7c-2.169-6.292-1.084-16.267-1.084-16.267S7.915,215.063,79.426,215.063Zm0,24.943c71.511,0,77.167-34.872,77.167-34.872s0.215,12.906,0,14.1C150.4,233.294,124.335,254.1,77.257,254.1S4.441,230.388,1.343,221.4c-2.169-6.291-1.084-16.267-1.084-16.267S7.915,240.006,79.426,240.006Zm175.5-63.337c-6.19,14.062-34.258,36.872-81.336,36.872-1.087,0-2.152-.027-3.217-0.054,0.039-3.841.006-8.576-.073-14.123,1.78,0.048,3.593.079,5.459,0.079,71.511,0,79.167-36.872,79.167-36.872S255.145,175.477,254.929,176.669Zm0-24.943c-6.19,14.062-34.258,36.872-81.336,36.872-1.175,0-2.326-.027-3.475-0.059-0.083-4.371-.179-9.091-0.281-14.13,1.927,0.058,3.9.091,5.925,0.091,71.511,0,79.167-36.872,79.167-36.872S255.145,150.534,254.929,151.726Zm-81.336-10.184q-4.51,0-8.758-.306c-3.155-6.149-7.96-10.456-14.76-15.644a166.281,166.281,0,0,0,25.687,1.852c71.511,0,79.167-36.872,79.167-36.872s0.216,12.906,0,14.1C248.739,118.732,220.671,141.542,173.593,141.542Zm81.336-13.013c-6.19,14.062-34.258,36.872-81.336,36.872-1.336,0-2.65-.027-3.952-0.067a85.949,85.949,0,0,0-1.465-14.181c2.448,0.095,4.97.15,7.586,0.15,71.511,0,79.167-36.873,79.167-36.873S255.145,127.336,254.929,128.529ZM169.7,224.217a9.773,9.773,0,0,0,.2-1.005c1.908,0.057,3.859.09,5.866,0.09,71.511,0,79.167-36.873,79.167-36.873s0.216,12.907,0,14.1c-6.19,14.062-34.258,36.872-81.336,36.872a122.555,122.555,0,0,1-13.61-.756C164.129,233.306,168.476,228.867,169.7,224.217Z"/>
</svg>
