<svg xmlns="http://www.w3.org/2000/svg" width="256" height="256" viewBox="0 0 256 256">
  <defs>
    <style>
      .cls-1 {
        fill: #fff;
        fill-rule: evenodd;
      }
    </style>
  </defs>
  <path id="Wenrexa_Hammer" data-name="Wenrexa Hammer" class="cls-1" d="M243.2,239.249l-19.248,15.067a5.093,5.093,0,0,1-7.149-.872L100.617,121.264l27.267-21.343L244.072,232.1A5.092,5.092,0,0,1,243.2,239.249ZM160.534,58.9L48.255,146.785a10.185,10.185,0,0,1-14.3-1.742L2.486,103.988a10.184,10.184,0,0,1,1.742-14.3L116.507,1.8a10.185,10.185,0,0,1,14.3,1.742L162.276,44.6A10.185,10.185,0,0,1,160.534,58.9ZM32.853,44.173a5.092,5.092,0,0,1,.871-7.149L52.972,21.958a5.092,5.092,0,0,1,7.149.871l5.388,6.13L38.241,50.3Z"/>
</svg>
