<svg xmlns="http://www.w3.org/2000/svg" width="256" height="256" viewBox="0 0 256 256">
  <defs>
    <style>
      .cls-1 {
        fill: #fff;
        fill-rule: evenodd;
      }
    </style>
  </defs>
  <path id="Wenrexa_Chest" data-name="Wenrexa Chest" class="cls-1" d="M242.9,205.222h12.947v9.265A11.514,11.514,0,0,1,244.336,226H11.513A11.513,11.513,0,0,1,0,214.487v-9.265H12.963a4.962,4.962,0,1,0,0-9.924H0V84H29.423v34.539H42.215V84h172.7v34.539h12.793V84h28.143V195.3H242.9A4.962,4.962,0,1,0,242.9,205.222ZM170.14,104.472a11.514,11.514,0,0,0-11.514-11.513h-61.4a11.513,11.513,0,0,0-11.513,11.513v79.313A11.513,11.513,0,0,0,97.223,195.3h61.4a11.514,11.514,0,0,0,11.514-11.513V104.472ZM147.4,179.947h-37.38A11.513,11.513,0,0,1,98.5,168.434V118.241a11.513,11.513,0,0,1,11.513-11.513H147.4a11.513,11.513,0,0,1,11.513,11.513v50.193A11.513,11.513,0,0,1,147.4,179.947ZM129.2,119.5a13.45,13.45,0,0,0-6.729,25.1v20.3a3.838,3.838,0,0,0,3.838,3.838h5.054a3.838,3.838,0,0,0,3.838-3.838V144.99A13.45,13.45,0,0,0,129.2,119.5Zm98.5-89.224h16.63a11.513,11.513,0,0,1,11.513,11.513V69.932H227.706V30.276Zm-185.491,0h172.7V69.932H42.215V30.276ZM0,41.789A11.513,11.513,0,0,1,11.513,30.276H29.423V69.932H0V41.789Z"/>
</svg>
