<svg xmlns="http://www.w3.org/2000/svg" width="256" height="256" viewBox="0 0 256 256">
  <defs>
    <style>
      .cls-1 {
        fill: #fff;
        fill-rule: evenodd;
      }
    </style>
  </defs>
  <path id="Wenrexa_Sword_2" data-name="Wenrexa Sword 2" class="cls-1" d="M218.023,254.758c-3.546-12.079-33.074-35.875-44.23-40.752s12.2-24.953,16.619-16.361,6.658,27.088,40.824,40.789C237.04,240.761,224.764,254.061,218.023,254.758Zm-77.549-24.64c0.409,6.767-32.477-8.315-16.441-12.727s20.874-24.178,20.874-24.178,7.2-12.472,11.3-15.416c3.723-2.673,14.388-5.138,14.388-5.138a35.161,35.161,0,0,0,19.935-21c6.732-18.832,24.619,17.487,16.423,15.642s-24.014,15.2-36.923,27.7S140.064,223.351,140.474,230.118Zm7.275-64.257s-1.412,9.98-4.9,10.909S14.385,43.165,14.385,43.165L0.109,0,51.383,18.5S163.21,162.811,161.35,164.437,147.749,165.861,147.749,165.861Z"/>
</svg>
