<svg xmlns="http://www.w3.org/2000/svg" width="256" height="256" viewBox="0 0 256 256">
  <defs>
    <style>
      .cls-1 {
        fill: #fff;
        fill-rule: evenodd;
      }
    </style>
  </defs>
  <path id="Wenrexa_Torch" data-name="Wenrexa Torch" class="cls-1" d="M164.249,105.283c-15.4,16.794-49.61,34.331-66.6,4.85C94.092,103.971,85.038,88.6,99.285,72.8c10.38-11.513,3.564-26.4,2.6-31.183S123.561,58.037,114.876,71.5c-0.013,2.019,21.352-34.608,10.394-54.57-10.061-18.328-7.8-16.891-7.8-16.891s43.639,29.412,35.08,57.169c-6.13,22.554-4.439,20.146-3.9,23.387S164.3,81.132,161.65,55.91C159.557,35.993,179.645,88.488,164.249,105.283Zm3.9,20.788c7.63,3.816-35.422,130.97-40.278,129.929S80.308,131.533,87.591,127.371s20.759,14.473,40.876,14.127S160.516,122.256,168.147,126.071Z"/>
</svg>
