<svg xmlns="http://www.w3.org/2000/svg" width="256" height="256" viewBox="0 0 256 256">
  <defs>
    <style>
      .cls-1 {
        fill: #fff;
        fill-rule: evenodd;
      }
    </style>
  </defs>
  <path id="Wenrexa_Special_magic" data-name="Wenrexa Special magic" class="cls-1" d="M180.478,171.552C150.6,210.309,77.32,213.179,39.615,196.28a112.15,112.15,0,0,0-31.2,39.446c-3.316,6.489-20.893-4.4,7.015-37.127,8.869-10.4,23.655-18.8,39.7-25.429a369.6,369.6,0,0,1,120.212-37.607s-109.117-.821-162.608,40.29c0.933-5.99,11.356-13.306,27.222-30.007,0,0,51.128-63.252,114.162-41.44,68.893,23.838,69.619,22.495,100.641,13.491C265.286,114.84,205.13,139.578,180.478,171.552ZM134.07,73.6c-9.082,2.966-20.907-17.993-14.23-23.717,5.667-4.857,13.193-7.988,23.717-2.372S143.152,70.636,134.07,73.6ZM77.151,47.514c-11.763,2.378-15.026-19.44-9.487-26.088,4.048-4.857,18.012-.98,23.716,4.743S88.914,45.136,77.151,47.514Zm2.372,37.946C76.607,93.4,70.7,93.708,60.549,92.576s-7.26-16.4,2.372-18.973C68.992,71.983,82.438,77.517,79.522,85.461Z"/>
</svg>
