<svg xmlns="http://www.w3.org/2000/svg" width="256" height="256" viewBox="0 0 256 256">
  <defs>
    <style>
      .cls-1 {
        fill: #fff;
        fill-rule: evenodd;
      }
    </style>
  </defs>
  <path id="Wenrexa_Pickaxe" data-name="Wenrexa Pickaxe" class="cls-1" d="M0.519,229.774S83.7,139.425,172.345,7.444c2.821-4.2,7.74-6.848,14.1-4.594s14.809,17.691,8.8,18.153c-10.344.8-121.61,134.656-160.7,205.534-1.9,19.648-19.372,26.689-21.575,28.266S-0.11,236.207.519,229.774ZM135.234,29.56S98.577,20.96,67.292,19.2s-37.124,3.238-37.124,3.238S45.8-11.246,157.294,6.659C146.624,33.549,135.234,29.56,135.234,29.56Zm53.151,31.292s29.87,29.062,47.285,55.112,16.083,33.616,16.083,33.616,23.56-28.9-48.536-115.811C183.541,45.724,188.385,60.853,188.385,60.853Z"/>
</svg>
