<svg xmlns="http://www.w3.org/2000/svg" width="256" height="256" viewBox="0 0 256 256">
  <defs>
    <style>
      .cls-1 {
        fill: #fff;
        fill-rule: evenodd;
      }
    </style>
  </defs>
  <path id="Wenrexa_Swords" data-name="Wenrexa Swords" class="cls-1" d="M241.627,251.536c-4.09-12-34.829-34.672-46.265-39.1s11.2-25.635,16.016-17.18,7.869,26.969,42.84,39.282C260.158,236.631,248.379,250.544,241.627,251.536ZM150.341,124.47c17.748,21.551,30.972,38.045,30.362,38.626-1.8,1.716-7.159,1.594-10.6,5.04s-4.01,7.083-7.478,8.168c-1.111.347-15.378-12.767-34.247-30.741-18.868,17.974-33.136,31.088-34.247,30.741-3.468-1.085-3.556-4.245-6.472-7.161s-9.81-4.331-11.611-6.047c-0.61-.581,12.613-17.075,30.361-38.626C69.326,88.643,27.587,47.406,27.587,47.406L11.36,4.587l52.392,16.4s33.483,39.585,64.621,76.972c31.138-37.387,64.621-76.972,64.621-76.972l52.392-16.4L229.16,47.406S187.42,88.643,150.341,124.47ZM45.368,195.258c4.814-8.455,27.453,12.754,16.017,17.18s-42.175,27.1-46.265,39.1c-6.752-.992-18.531-14.9-12.591-17C37.5,222.227,40.554,203.713,45.368,195.258ZM30.027,164.011c-8.327,1.5,11.239-34.272,17.2-15.031a35.414,35.414,0,0,0,19.154,21.99s10.625,2.941,14.256,5.791c4,3.139,10.711,16,10.711,16s4.014,20.1,19.96,25.23-17.8,18.889-17.092,12.1-15.781-23.463-28.231-36.607S38.354,162.507,30.027,164.011Zm115.41,53.98c15.947-5.132,19.961-25.23,19.961-25.23s6.711-12.861,10.71-16c3.632-2.85,14.257-5.791,14.257-5.791a35.416,35.416,0,0,0,19.154-21.99c5.961-19.241,25.527,16.534,17.2,15.031s-23.508,16.326-35.959,29.47-28.935,29.815-28.231,36.607S129.49,223.122,145.437,217.991Z"/>
</svg>
