<svg xmlns="http://www.w3.org/2000/svg" width="256" height="256" viewBox="0 0 256 256">
  <defs>
    <style>
      .cls-1 {
        fill: #fff;
        fill-rule: evenodd;
      }
    </style>
  </defs>
  <path id="Wenrexa_Armor_2_Body" data-name="Wenrexa Armor 2 + Body" class="cls-1" d="M209.3,81.314c-7.568-.481-13.1,23.817-13.18,24.155,0.064-.277,1-4.127,0,11-1.035,15.656-5.274,14.046-3.3,23.072,1.893,8.641-5.877,29.928-6.542,31.725,0.243-.545,1.459-2.145,5.443,6.728,4.559,10.152-4.916,33-4.916,33-3.239,9.312-22.624,8.431-24.748,5.455C156.366,229.2,133.293,229.711,128,229.656c-5.293.055-28.365-.452-34.058-13.208-2.123,2.976-21.509,3.857-24.748-5.455,0,0-9.474-22.845-4.915-33,3.984-8.873,5.2-7.273,5.443-6.728-0.665-1.8-8.435-23.084-6.542-31.725,1.978-9.026-2.261-7.416-3.3-23.072-1-15.129-.068-11.279,0-11-0.077-.338-5.612-24.636-13.18-24.155-9.1.578-25.172-24.248-23.072-30.762S50.028,11.945,76.363,8.8c0.049-.77,2.292,33.521,51.637,34.034,49.345-.514,51.588-34.8,51.637-34.034,26.335,3.142,50.634,35.235,52.735,41.749S218.4,81.892,209.3,81.314ZM96.139,102.188c-12.278-3.909-33.717-18.54-32.96-26.367,0.7-7.211,1.1-14.282,1.1-14.282s-7.689,7.741-7.691,10.986S62.371,88.244,65.377,90.1c0,0,13.788,16.99,28.565,18.677,25.939,2.962,27.466-12.085,27.466-12.085S108.376,106.085,96.139,102.188Zm24.17,23.072s-22.209-7.517-30.762-5.493S78.4,131.905,81.857,135.148s28.934,12.83,35.157,10.987S125.438,129.849,120.309,125.26Zm0,28.565s-23.019-2.454-30.762-5.493-9.414,7.716-4.395,14.282,25.9,15.251,34.058,14.283S123.953,154.1,120.309,153.825Zm1.1,28.565s-3.231,3.473-10.986,1.1S87.535,172.159,87.35,176.9s-9.684,26.132,27.466,27.466C124.705,203.943,127.81,190.55,121.408,182.39Zm0,26.368c-3.913-.361-6.643,3.87-13.184,1.1s-6.9-3.277-7.709.1c0,0,.021,10.862,15.4,10.889,5.018,0.009,6.576,1.291,8.789-1.1C126.674,217.618,125.321,209.119,121.408,208.758Zm9.888,10.986c2.213,2.39,3.771,1.108,8.789,1.1,15.379-.027,15.4-10.889,15.4-10.889-0.809-3.374-1.169-2.869-7.709-.1s-9.271-1.46-13.184-1.1S129.326,217.618,131.3,219.744Zm9.888-15.381c37.15-1.334,27.651-22.728,27.466-27.466s-15.316,4.217-23.072,6.592-10.986-1.1-10.986-1.1C128.19,190.55,131.295,203.943,141.184,204.363Zm-4.4-27.466c8.155,0.968,29.039-7.716,34.059-14.283s3.347-17.321-4.4-14.282-30.762,5.493-30.762,5.493C132.047,154.1,128.634,175.929,136.789,176.9Zm2.2-30.762c6.223,1.843,31.7-7.744,35.156-10.987s0.862-13.357-7.69-15.381-30.762,5.493-30.762,5.493C130.562,129.849,132.763,144.291,138.987,146.135Zm52.735-84.6s0.4,7.072,1.1,14.282c0.757,7.828-20.682,22.458-32.96,26.367-12.237,3.9-25.269-5.493-25.269-5.493s1.527,15.047,27.466,12.085c14.777-1.687,28.565-18.677,28.565-18.677,3.006-1.859,8.791-14.333,8.79-17.579S191.722,61.538,191.722,61.538ZM128,34.142c-6.2.3-37.161,0.427-45.045-26.438L95.04,0.014S101.071,22.452,128,23.057c26.929-.6,32.96-23.043,32.96-23.043L173.045,7.7C165.161,34.569,134.2,34.443,128,34.142Zm0,203.168c45.268-.265,64.238-16.688,64.821-23.059,7.532,9.355,5.493,29.664,5.493,29.664C182.3,254.074,139.3,255.71,129.1,255.958V256s-0.39,0-1.1-.018c-0.709.014-1.1,0.018-1.1,0.018v-0.042c-10.2-.248-53.2-1.884-69.215-12.043,0,0-2.039-20.309,5.493-29.664C63.762,220.622,82.732,237.045,128,237.31Z"/>
</svg>
