<svg xmlns="http://www.w3.org/2000/svg" width="256" height="256" viewBox="0 0 256 256">
  <defs>
    <style>
      .cls-1 {
        fill: #fff;
        fill-rule: evenodd;
      }
    </style>
  </defs>
  <path id="Wenrexa_Sickle" data-name="Wenrexa Sickle" class="cls-1" d="M248.691,147c-24.467,60.54-89.025,57.294-112.112,51.979s-33.117-9.309-36.69-12.231c-17.5-1.314-23.855-17.452-24.461-20.384-0.2-.988,6.905-5.237,10.192-11.211,30.152,9.636,121.809,36.694,132.5-40.767,8.829-64-42.626-88.442-67.267-85.612s-38.729,9.173-38.729,9.173,12.692-21.128,41.787-27.518C223.717-.787,273.157,86.456,248.691,147ZM88.678,191.841c10.192,2.548-13.321,20.3-31.595,35.672-16.052,13.5-24.97,6.88-35.672-9.173-6.4-9.594,43.825-49.431,46.883-45.863S78.486,189.293,88.678,191.841ZM50.967,243.82c2.117,3.347-9.991,18.439-36.691,2.038-24.725-28.173-12.1-35.9-6.189-40.071C11.822,209.229,12.315,242.21,50.967,243.82Z"/>
</svg>
