<svg xmlns="http://www.w3.org/2000/svg" width="256" height="256" viewBox="0 0 256 256">
  <defs>
    <style>
      .cls-1 {
        fill: #fff;
        fill-rule: evenodd;
      }
    </style>
  </defs>
  <path id="Wenrexa_Notepad" data-name="Wenrexa Notepad" class="cls-1" d="M221.089,227.984c-38.387,12.451-118.089,4.551-130.8-3.27-9.919-6.1-10.327-8.648-10.029-9.474,0.139-.211.22-0.336,0.22-0.336a0.769,0.769,0,0,0-.22.336c-1.869,2.833-15.55,22.889-21.665,12.7-6.57-10.95-26.989-88.59-20.625-156.911C35.254,22.26,23.048,23.58,19.138,22.762c-6.151-1.287-12.863,7.191-12.863,7.191S0.806,10.5,33.209,12.527c0.423,9.137,8.048,17.6,11.416,17.985,2.623-.034,15.307.356,16.354-12.992a2.477,2.477,0,0,0-.508-1.235L61.3,16.341,62.89,17.8c5.312,4.868,2.17,13.8.4,24.766-4.794,1.94-6.736,6.627-6.941,12.113C55.876,67.359,66.436,73.165,73.64,73.692,89.88,74.878,93.9,61.9,93.9,54.678c0-3.068-1.1-8.819-2.869-11.049,1.13-4.386-2.007-8.382-1.452-18.649a48.674,48.674,0,0,0-.239-8.3c0.733-.013,1.473-0.029,2.216-0.044a25.368,25.368,0,0,0,1.753,8.343c5.184,13.077,12.984-4.589,18.65,1.243,4.882,5.025,1.313,6.251-.408,16.3-4.869,1.9-6.052,6.712-7.088,12.158-2.55,13.4,11.309,19.013,18.533,19.013s18.589-3.518,19.013-16.047a13.021,13.021,0,0,0-2.228-7.3c1.721-4.932-.726-14.761-1.563-27.3,1.068-1.567-.864,3.928,6.067,6.908,6.354,3.192,12.635-1.6,12.653-7.054,0.117-5.744,0-5.569,4.809-4.785s3.567,10.522,1.8,21.484c-4.795,1.94-7.543,9.627-8.185,15.079-1.661,14.1,13.033,19.013,20.257,19.013s16.594-7.749,16.046-19.013c-0.149-3.064-2.095-5.088-3.864-7.319,1.13-4.386,1.993-13.091,2.621-23.354a49.757,49.757,0,0,0-.7-12.639c1.362-.088,2.426-0.153,3.14-0.188,11.816-.582,24.919,184.885,38.039,190.646s16.35-6.539,16.35-6.539S259.477,215.533,221.089,227.984ZM183.08,48.347a11.836,11.836,0,1,1-13.705-3.657c1.6-9.946,3.327-26.128-1.493-30.545-7.1-6.508-14.728.722-14.834,5.934s-8.9,2.967-8.9,2.967-12.258-10.319,2.967-17.8c22.7-11.155,40.162-2.322,38.568,23.734A105.364,105.364,0,0,1,183.08,48.347ZM135.248,55.68a11.868,11.868,0,1,1-16.176-11.031c1.562-9.114,3.061-23.242-1.625-27.537-7.1-6.508-8.866,4.408-14.071,4.69-4.388.238-3.893,0.735-5.934-1.724-2.765-6.125-2.406-15.707,10.144-18.564,16.54-3.765,25.561-5.254,27.662,24.5,0.8,11.371-.461,18.568-2.022,23.042A11.812,11.812,0,0,1,135.248,55.68ZM83.933,48.347A11.836,11.836,0,1,1,70.227,44.69c1.6-9.946,3.328-26.128-1.492-30.545-7.1-6.508-13.485.722-13.591,5.934s-8.9,2.967-8.9,2.967S33.986,12.727,49.21,5.245C71.909-5.911,88.13,2.922,86.535,28.979A105.4,105.4,0,0,1,83.933,48.347ZM26,35.519c12.109,33.9-4.482,94.249,21.783,189.2,7.6,27.49,15.9,29.178,19.817,28.1-4.659,2.123-15.747,5.92-26.357.083C27.35,245.257,19.552,128.2,21.625,97.187S15.918,44.025,10.112,41.275C-0.291,36.348,23.441,25.172,26,35.519Zm41.6,217.3c1.442-.658,2.289-1.16,2.289-1.16A6.109,6.109,0,0,1,67.6,252.817ZM80.483,230.47c119.456,28.507,163.5-6.539,163.5-6.539s5.539,11.255-13.08,19.619-164.185,2.5-160.226,0S80.483,230.47,80.483,230.47Z"/>
</svg>
