<svg xmlns="http://www.w3.org/2000/svg" width="256" height="256" viewBox="0 0 256 256">
  <defs>
    <style>
      .cls-1 {
        fill: #fff;
        fill-rule: evenodd;
      }
    </style>
  </defs>
  <path id="Wenrexa_Earh_magic" data-name="Wenrexa Earh magic" class="cls-1" d="M29.339,125.95s53.987-65.411,92.1-67.182S200.485,87,211.987,118.7s2.585,57.727,2.585,57.727-11.629-51.761-64.63-66C115.3,101.117,43,110.151,29.339,125.95Zm130.33-75.626s70.344,17.665,78.2,109.731c2.6,17.133.7,20.155,0.7,20.155s18.733-39.686,17.377-59.43C253.886,90.744,239.533,53.033,159.669,50.324ZM33.091,161.093s40.578-36.667,57.644-29.8c22.7,9.134,63.294,28.407,78.2,22.394s19.115-6.718,19.115-6.718-24.687,20.68-55.607,17.915-41.791-18.691-53.87-13.436S31.737,179.66,16.013,176.08,0,169.362,0,169.362,18.555,171.79,33.091,161.093Zm166.087,8.269s-27.065,18.247-44.147,17.915-44.743-16.229-55.607-8.957S70.016,198.3,54.243,196.235,35.128,194,35.128,194,68.769,211.322,89,200.714s51.59,0.155,66.034,4.479S196.726,172.973,199.178,169.362Z"/>
</svg>
