<svg xmlns="http://www.w3.org/2000/svg" width="256" height="256" viewBox="0 0 256 256">
  <defs>
    <style>
      .cls-1 {
        fill: #fff;
        fill-rule: evenodd;
      }
    </style>
  </defs>
  <path id="Wenrexa_Necklace" data-name="Wenrexa Necklace" class="cls-1" d="M150.207,83.081c1.559,2.849-30.943,1-30.943,1S102.831,40.246,4.23,16.2C2.714,17.554,11.966.725,11.966,0.725S122.7,61.691,236.3.725c-1.453-3.884,15.472,7.736,15.472,7.736S150.139,59.356,150.207,83.081Zm-14.471,18.207A77.356,77.356,0,1,1,58.38,178.644,77.356,77.356,0,0,1,135.736,101.288ZM159,237c5.168-.752,36.381-13.625,39-49-0.2-3.824-5.717-5.617-7-1,0,0-7.269,33.019-39,42C151.82,229.773,153.832,237.751,159,237Z"/>
</svg>
