<svg xmlns="http://www.w3.org/2000/svg" width="256" height="256" viewBox="0 0 256 256">
  <defs>
    <style>
      .cls-1 {
        fill: #fff;
        fill-rule: evenodd;
      }
    </style>
  </defs>
  <path id="Wenrexa_Spiritual_magic" data-name="Wenrexa Spiritual magic" class="cls-1" d="M110.829,224.627c-14.95-5.734-41.237-46.391-25.773-79.9s90.206-35.567,96.907-61.856S149.489,26.689,144.85,18.957,142.788,0.4,142.788.4s-26.8,37.114-10.309,55.67-28.866,28.866-51.547,49.485-50.516,113.4,4.124,134.021S187.634,264.834,196.4,233.39s5.154-94.845-26.8-90.722-40.722,19.588-26.8,37.114,20.619,26.8,20.619,26.8,17.01-11.34,12.371-22.68,12.371,13.917,4.124,30.928S148.458,239.06,110.829,224.627Z"/>
</svg>
