<svg xmlns="http://www.w3.org/2000/svg" width="256" height="256" viewBox="0 0 256 256">
  <defs>
    <style>
      .cls-1 {
        fill: #fff;
        fill-rule: evenodd;
      }
    </style>
  </defs>
  <path id="Wenrexa_Axe" data-name="Wenrexa Axe" class="cls-1" d="M1.637,234.451S142.835,11.27,140.9,7.052,146.951-.244,153.037.9s16.026,14.624,10.528,15.214S34.52,206.632,36.041,227.037s-17.823,26.607-19.6,28.346S1.972,240.371,1.637,234.451ZM138.131,73.093s47.085-4.493,47.81,6.236c3.191,47.2-42.526,16.7-51.783,21.1s44.24,27.5,44.916,70.486C179.282,184.1,283.1,126.8,245.265,51.508c0.306,0.8-29.506,14.326-55.565.522s-26.541-13.889-33.9-5.96"/>
</svg>
