<svg xmlns="http://www.w3.org/2000/svg" width="256" height="256" viewBox="0 0 256 256">
  <defs>
    <style>
      .cls-1 {
        fill: #fff;
        fill-rule: evenodd;
      }
    </style>
  </defs>
  <path id="Wenrexa_Money_Gold_1" data-name="Wenrexa Money Gold 1" class="cls-1" d="M129.442,139.947c-68.808,0-124.587-31.328-124.587-69.974S60.634,0,129.442,0,254.028,31.328,254.028,69.973,198.249,139.947,129.442,139.947Zm-1.707,17.066c112.538,0,124.587-58.026,124.587-58.026s0.339,20.31,0,22.186c-9.743,22.13-53.913,58.027-128,58.027S9.731,138.73,4.855,124.587c-3.413-9.9-1.707-25.6-1.707-25.6S15.2,157.013,127.735,157.013Zm0,39.254c112.538,0,124.587-58.027,124.587-58.027s0.339,20.31,0,22.187c-9.743,22.13-53.913,58.026-128,58.026S9.731,177.983,4.855,163.84c-3.413-9.9-1.707-25.6-1.707-25.6S15.2,196.267,127.735,196.267Zm0,37.546c112.538,0,124.587-58.026,124.587-58.026s0.339,20.31,0,22.186C242.579,220.1,198.409,256,124.322,256S9.731,215.53,4.855,201.387c-3.413-9.9-1.707-25.6-1.707-25.6S15.2,233.813,127.735,233.813Z"/>
</svg>
