<svg xmlns="http://www.w3.org/2000/svg" width="256" height="256" viewBox="0 0 256 256">
  <defs>
    <style>
      .cls-1 {
        fill: #fff;
        fill-rule: evenodd;
      }
    </style>
  </defs>
  <path id="Wenrexa_Attack_1" data-name="Wenrexa Attack 1" class="cls-1" d="M222,133.524a94.4,94.4,0,0,1-89.521,88.549v33.5H122.049V222a94.393,94.393,0,0,1-88.478-88.478H0V123.092H33.5a94.4,94.4,0,0,1,88.549-89.521V0h10.432V33.5a94.408,94.408,0,0,1,89.592,89.592h33.5v10.432H222Zm-94.216,78.157a83.059,83.059,0,0,0,55.78-21.418L150,156.694a36.473,36.473,0,0,1-17.516,7.222v10.291h-8.346V164.038a36.471,36.471,0,0,1-18.559-7.344L72.007,190.263A83.057,83.057,0,0,0,127.786,211.681Zm26.735-79.2h-22.04V154.32A27.277,27.277,0,0,0,154.521,132.481Zm0.254-8.346a27.261,27.261,0,0,0-22.294-23.5v23.5h22.294Zm-53.821,8.346a27.256,27.256,0,0,0,23.181,21.994V132.481H100.954Zm23.181-8.346V100.478A27.247,27.247,0,0,0,100.7,124.135h23.435Zm-79.721,4.173a83.061,83.061,0,0,0,22.815,57.271l33.407-33.407a36.542,36.542,0,0,1-9.2-19.691H82.409v-8.346h8.841a36.522,36.522,0,0,1,9.141-20.978L67.738,70.5A83.07,83.07,0,0,0,44.414,128.308Zm83.372-83.373a83.036,83.036,0,0,0-55.22,20.933L105.28,98.582a36.466,36.466,0,0,1,18.855-7.575v-8.6h8.346v8.724a36.483,36.483,0,0,1,17.813,7.448l32.713-32.712A83.037,83.037,0,0,0,127.786,44.935ZM187.835,70.5L155.178,103.16a36.5,36.5,0,0,1,9.144,20.975h9.885v8.346H164.141a36.528,36.528,0,0,1-9.21,19.685l33.413,33.413A83.291,83.291,0,0,0,187.835,70.5Z"/>
</svg>
