<svg xmlns="http://www.w3.org/2000/svg" width="256" height="256" viewBox="0 0 256 256">
  <defs>
    <style>
      .cls-1 {
        fill: #fff;
        fill-rule: evenodd;
      }
    </style>
  </defs>
  <path id="Wenrexa_Empty_Box" data-name="Wenrexa Empty Box" class="cls-1" d="M256.351,90.39c-0.393.674-1.575,5.006-2.117,5.291s-2.873-.757-4.232-2.116V89.331s2.771-.672,3.174-2.116-0.1-4.683,1.058-5.291,2.117-1.058,2.117-1.058S256.743,89.715,256.351,90.39ZM250,85.1l-24.338,8.465-2.116-7.407H217.2V80.866l39.152-10.582v4.233l-5.291,3.174ZM0.275,62.877l56.083-6.349,197.876,9.523-40.21,10.582ZM165.349,40.656L96.568,37.482,85.987,53.354h-12.7L91.277,26.9,171.7,29.016l14.814,29.629h-12.7Zm47.617,45.5L0.275,73.459V67.11L212.966,80.866v5.291Zm-20.105,16.93c-8.7,0-178.559-12.7-179.888-12.7S5.566,87.354,5.566,79.808c0.347-.347,199.993,11.64,199.993,11.64S204.361,103.087,192.861,103.087ZM9.8,95.68s165.741,12.7,179.887,12.7c12.854,0,15.406-3.911,15.842-6.049l-3.144,138.32L3.45,208.9,0.275,82.982C2.217,90.507,9.8,95.68,9.8,95.68Zm195.729,6.649,0.031-1.358A3.426,3.426,0,0,1,205.528,102.329Zm4.263-10.881h3.175V176.1l11.64,6.349,2.116-2.117v9.524l25.4-15.873-1.058,32.8-44.443,33.862L209.791,97.8V91.448Zm11.64,37.035a2.588,2.588,0,0,1-2.116,4.233c-2.581,0-3.175-3.445-3.175-6.349V97.8c0-7.794,3.175-7.407,3.175-7.407,3.147-.136,2.116,4.233,2.116,4.233s-1.879-.771-2.116,1.058-0.229,28.045,0,30.687C219.493,128.425,220.237,126.858,221.431,128.483Zm31.745-14.814-1.058,47.617-5.291,3.175-1.058,7.407-14.814,8.465v-7.407l-6.349,3.175-7.407-4.233V135.891c0.793,2.605,6.415,2.01,8.465,0,5.96-5.845-1.058-10.582-1.058-10.582s-0.046-10.146,0-10.582c1.915-.14,7.092-5.291,0-6.349-0.312-.105,0-10.581,0-10.581l19.047-5.291,9.523,9.523s-0.39,4.135,0,4.233C247.181,110.415,253.176,113.669,253.176,113.669Z"/>
</svg>
