<svg xmlns="http://www.w3.org/2000/svg" width="256" height="256" viewBox="0 0 256 256">
  <defs>
    <style>
      .cls-1 {
        fill: #fff;
        fill-rule: evenodd;
      }
    </style>
  </defs>
  <path id="Wenrexa_Medicines_Box" data-name="Wenrexa Medicines Box" class="cls-1" d="M0.275,83.579L3.438,209.024l198.181,31.625L204.782,101.5s1.8,7.379-15.812,7.379c-14.094,0-179.207-12.65-179.207-12.65S2.21,91.075.275,83.579Zm204.507,8.433s-1.193,11.6-12.65,11.6c-8.67,0-177.883-12.65-179.207-12.65S5.546,87.934,5.546,80.417C5.892,80.071,204.782,92.012,204.782,92.012ZM0.275,67.767v6.325l211.886,12.65V81.471Zm0-4.217,55.87-6.325,197.127,9.487L213.215,77.254Zm216.1,17.921v5.271H222.7l2.108,7.379,24.245-8.433,1.055-7.379,5.27-3.163V70.929Zm2.108,9.487s-3.163-.386-3.163,7.379V126.8c0,2.893.591,6.325,3.163,6.325a2.578,2.578,0,0,0,2.108-4.217c-1.189-1.619-1.931-.058-2.108-2.108-0.228-2.633-.236-28.749,0-30.571s2.108-1.054,2.108-1.054S221.621,90.823,218.486,90.958Zm-2.108,45.329v35.841l7.379,4.217,6.325-3.162v7.379l14.758-8.434,1.054-7.379,5.271-3.162,1.054-47.437s-5.972-3.242,0-7.379c-0.388-.1,0-4.217,0-4.217l-9.487-9.487-18.975,5.271s-0.311,10.437,0,10.542c7.066,1.054,1.908,6.185,0,6.325-0.046.434,0,10.541,0,10.541s6.991,4.719,1.054,10.542C222.769,138.29,217.168,138.883,216.378,136.287Zm32.678-42.166V89.9s2.761-.67,3.163-2.108-0.1-4.665,1.054-5.271,2.108-1.054,2.108-1.054,0.391,8.815,0,9.487-1.568,4.987-2.108,5.271S250.411,95.475,249.056,94.121ZM209,98.337l-3.163,142.312,44.275-33.733,1.054-32.679-25.3,15.812v-9.487l-2.108,2.108-11.6-6.325V92.012H209v6.325ZM73.012,54.063L90.933,27.709l80.116,2.108,14.758,29.516h-12.65l-8.433-17.921L96.2,38.25,85.662,54.063H73.012ZM140.95,171.909a4.924,4.924,0,0,1-5.425,4.881l-24.687-1.9-0.856,27.946a4.213,4.213,0,0,1-4.825,4.342L90.72,204.83a5.488,5.488,0,0,1-4.229-5.6l0.694-26.168-21.729-1.675c-2.2-.233-3.929-2.524-3.87-5.123l0.339-15.1c0.059-2.613,1.888-4.63,4.1-4.5l21.815,1.6,0.7-26.311c0.073-2.771,2.111-5.018,4.572-5.018L107.819,118a4.847,4.847,0,0,1,4.6,5.24L111.6,150.014l24.889,1.827a5.535,5.535,0,0,1,5.074,5.777Z"/>
</svg>
