<svg xmlns="http://www.w3.org/2000/svg" width="256" height="256" viewBox="0 0 256 256">
  <defs>
    <style>
      .cls-1 {
        fill: #fff;
        fill-rule: evenodd;
      }
    </style>
  </defs>
  <path id="Wenrexa_Gear_Wheel_2" data-name="Wenrexa Gear Wheel 2" class="cls-1" d="M207.009,185.744l15.831,7.948-0.39,7.052-0.39,7.052-16.609,6.157-3.211,6.9,5.529,15.16-9.713,9.367-15.164-7.2-8.658,3.059-5.793,15.242-14.81-.818-5.451-16.571-6.191-3.172-17.237,4.707-8.661-9.674,7.2-15.164-2.432-7.208-15.125-7.91,0.351-6.346,0.35-6.347,15.905-6.2,3.21-6.9-5.49-15.865,9.675-8.662,16.613,6.577,6.5-2.47,7.243-15.87,14.81,0.818,4.079,15.788,8.268,3.993,15.865-5.49,8.623,10.38-7.165,14.459Zm-41.885-10.095a21.189,21.189,0,1,0,19.988,22.325A21.19,21.19,0,0,0,165.124,175.649Zm-19.04-65.119,11.377,20.485-11.8,15.643-23.387-6.883-11.72,6.355-4.843,23.177-21.425,2.2L72.7,148.977l-9.6-3.14-23.65,10.67L24.827,144.6l6.883-23.386-5.126-9.784-23.491-7.9L2.152,94.346,1.211,85.164l21.4-12.5,3.036-10.621L14.166,40.536l11.9-14.622,25.322,5.654,8.764-5.022L66.936,2.139,88.361-.056,97.8,21.658l12.765,3.847,21.505-11.482L146.8,26.949l-6.987,22.366,5.126,9.785,24.511,7.8L170.5,77.1l1.045,10.2L149.119,99.91ZM116.317,81.62a30.768,30.768,0,1,0-27.472,33.743A30.768,30.768,0,0,0,116.317,81.62Z"/>
</svg>
