<svg xmlns="http://www.w3.org/2000/svg" width="256" height="256" viewBox="0 0 256 256">
  <defs>
    <style>
      .cls-1 {
        fill: #fff;
        fill-rule: evenodd;
      }
    </style>
  </defs>
  <path id="Wenrexa_Wrench" data-name="Wenrexa Wrench" class="cls-1" d="M235.982,193.033c-5.188-1.912-10.778,3.764-15.457,9.275s-1.8,16.7-1.03,20.609,23.7,12.366,23.7,12.366c-41.191,9.488-45.3-4.7-49.464-14.427s-7.867-19.662-15.457-29.884S64.608,94.516,56.678,89.985,34.988,85.722,23.7,84.833-1.112,59.8,0,59.071s13.7,5.593,19.579,7.213,13.324-8.331,15.457-12.366,1.106-15.4-3.091-18.549S5.368,29.49,14.429,25.065s34.443-1.822,40.189,5.152S66.459,56.8,73.166,67.315s87.707,72.325,108.2,88.622,36.432,11.935,49.463,15.457,25.762,28.854,25.762,28.854S241.171,194.946,235.982,193.033Zm-64.227-34.1L78.4,83.986c-2.626-2.108-5.433-2.719-7.541-.093s-0.658,5.433,1.968,7.541l93.356,74.947c2.626,2.108,5.433,2.719,7.541.093S174.381,161.04,171.755,158.932Z"/>
</svg>
