<svg xmlns="http://www.w3.org/2000/svg" width="256" height="256" viewBox="0 0 256 256">
  <defs>
    <style>
      .cls-1 {
        fill: #fff;
        fill-rule: evenodd;
      }
    </style>
  </defs>
  <path id="Wenrexa_Ammo_Add" data-name="Wenrexa Ammo Add" class="cls-1" d="M251.688,190.423H213.92v37.768a4.1,4.1,0,0,1-4.1,4.1H189.372a4.1,4.1,0,0,1-4.1-4.1V190.423H147.506a4.1,4.1,0,0,1-4.1-4.1V165.875a4.1,4.1,0,0,1,4.1-4.1h37.769V124.009a4.1,4.1,0,0,1,4.1-4.1h20.451a4.1,4.1,0,0,1,4.1,4.1v37.769h37.768a4.1,4.1,0,0,1,4.1,4.1v20.451A4.1,4.1,0,0,1,251.688,190.423Zm-81.706-85.729c-2.293,1.528-14.334-2.215-28.028-15.593a0.159,0.159,0,0,1-.017.012c-0.134-.133-0.251-0.264-0.383-0.4s-0.263-.249-0.4-0.382a0.2,0.2,0,0,1,.012-0.018c-13.378-13.693-17.121-25.735-15.593-28.027,38.245-38.245,71.874-36.2,78.9-35.272l0.566-.563s0.049,0.242.116,0.662c0.437,0.069.663,0.118,0.663,0.118l-0.564.568C206.181,32.778,208.263,66.413,169.982,104.694ZM137.661,92.61c2.729,2.584,19.126,17.732,27.647,16.758,0,0-10.175,7.561-11.686,11.686s-3.58,9.44-4.674,10.906S66.371,216.1,66.371,216.1s-7.791,1.338-30.377-21.038l0,0.005c-0.134-.134-0.256-0.26-0.388-0.393s-0.258-.253-0.391-0.386l0,0C12.839,171.691,14.176,163.9,14.176,163.9S96.845,82.417,98.311,81.323s6.782-3.164,10.907-4.674S120.9,64.964,120.9,64.964C119.929,73.485,135.078,89.883,137.661,92.61ZM31.315,198.178s0.141,0.146.385,0.393,0.394,0.386.394,0.386l-0.006.006c3.678,3.693,19.759,19.31,29.609,20.248,0,0-5.265,1.321-5.453,2.338s0.779,3.895.779,3.895-4.579,4.51-6.232,4.674c-1.634.162-7.843,1.322-29.6-20.259l0,0c-0.134-.133-0.256-0.259-0.387-0.391s-0.258-.254-0.392-0.388l0,0C-1.168,187.324-.009,181.115.153,179.481c0.164-1.654,4.674-6.232,4.674-6.232s2.878,0.967,3.9.779,2.337-5.453,2.337-5.453c0.938,9.85,16.555,25.931,20.249,29.609Z"/>
</svg>
