<svg xmlns="http://www.w3.org/2000/svg" width="256" height="256" viewBox="0 0 256 256">
  <defs>
    <style>
      .cls-1 {
        fill: #fff;
        fill-rule: evenodd;
      }
    </style>
  </defs>
  <path id="Wenrexa_Grenade_Box" data-name="Wenrexa Grenade Box" class="cls-1" d="M255.714,90.763c-0.391.673-1.571,4.993-2.111,5.278s-2.866-.755-4.222-2.111V89.708s2.764-.671,3.166-2.111-0.1-4.671,1.056-5.278,2.111-1.056,2.111-1.056S256.105,90.09,255.714,90.763Zm-6.333-5.278L225.1,93.93l-2.111-7.389h-6.333V81.264l39.055-10.555V74.93L250.436,78.1ZM0.275,63.32l55.943-6.333,197.385,9.5-40.11,10.555ZM164.938,41.153L96.329,37.987,85.773,53.82H73.107L91.051,27.432l80.22,2.111L186.049,59.1H173.382Zm47.5,45.388L0.275,73.875V67.542L212.437,81.264v5.278ZM192.382,103.43c-8.682,0-178.115-12.667-179.44-12.667S5.553,87.735,5.553,80.208C5.9,79.862,205.048,91.819,205.048,91.819S203.854,103.43,192.382,103.43ZM9.775,96.041s165.329,12.666,179.44,12.666c12.822,0,15.367-3.9,15.8-6.034l-3.135,137.976L3.442,208.983,0.275,83.375C2.212,90.881,9.775,96.041,9.775,96.041Zm116.132,26.4c-4.168-4.748-.614-5.81-4.931-5.577-4.23.228-31.057-3.118-32.665-1.285-2.836,3.234-5.36,6.362-7.605,9.377a17.152,17.152,0,0,1,4.289,7.022c3.946-4.686,6.3-5.88,8.864-5.694,3.995,0.29,7.794,12.328,4.465,15.839-2.1,1.227-9.555,1.008-10.525,2.188a5.867,5.867,0,0,0-.951,3.579l34.174,2.746s-8.721-14.6-3.5-19.736c5.4-5.311,2.018,3.169,5.506,2.906C126.575,133.543,130.127,127.256,125.907,122.445ZM76.95,165.726c2.071,0.7,5.546,1.869,9.73,3.012,1.153-8.853,3.739-15.257,4.067-16.886C84.638,151.923,80.369,154.474,76.95,165.726Zm16.423,4.643c2.091,0.444,4.254.838,6.431,1.136,2.739,0.375,5.709.629,8.705,0.8,0.488-5.411.652-10.064,0.213-12.485-1.35-7.438-1.667-5.985-2.293-6.489-1.182-.118-2.407-0.242-3.69-0.384-2.756-.247-1.946-0.3-4.245-0.538l-0.488.113c-0.727.532-.747-1.268-3.112,5.842C94.155,160.589,93.667,165.085,93.373,170.369Zm20.871-16.137a100.189,100.189,0,0,1,1.842,18.335c6.016,0.1,11.314-.056,13.833-0.15C127.972,158.757,123.382,155.655,114.244,154.232Zm16.7,31.69c-0.052-1.642-.119-3.194-0.2-4.672-1.689-1.119-7.8-2.936-13.487-3.574l-1.4-.157a56.539,56.539,0,0,1-3.119,14.588c10.817,0.852,15.285-.037,17.038-0.556A28.991,28.991,0,0,0,130.941,185.922Zm-5.582,14.286a7.276,7.276,0,0,0-1.121-.955c-0.958-.674-6.361-1.891-12.989-3.2-4.851,12.6-6.469,14.48-7.019,16.439C111.574,211.859,119.906,207.581,125.359,200.208Zm-31.785.681A29.675,29.675,0,0,0,97.838,212a20.62,20.62,0,0,0,5.851-8.941c0.465-1.6,1.08-4.511,1.726-8.122-4.219-.79-8.533-1.564-12.306-2.239C93.206,196.281,93.369,199.214,93.574,200.889Zm-0.529-11.282c4.163,0.707,7.307,1.077,7.307,1.077,2.01,0.292,3.893.539,5.663,0.75,0.751-4.571,1.5-9.825,2.055-14.811-4.9-.578-10.521-1.273-14.891-1.908C93.006,179.7,92.975,185,93.045,189.607Zm-1.374,19.2c-0.4-2.022-1.59-5.255-3.855-17.052-2.805-.506-4.92-0.9-5.868-1.116a6.924,6.924,0,0,0-4.61.4A47.2,47.2,0,0,0,91.671,208.8ZM75.13,184.608c2.824,1.608,7.487,2.9,12.073,3.886-0.04-.215-0.079-0.424-0.119-0.644a60.257,60.257,0,0,1-.855-14.356c-3.538-.633-8.7.086-11.213-0.007-0.221,1.065-.439,2.174-0.653,3.341A28.234,28.234,0,0,0,75.13,184.608ZM64.116,168.45c1.712,8.9,3.186,10.671,4.188,9.78,0.73-.649.668-12.445,3.728-23.6a12.863,12.863,0,0,1-2.128-.041A13.23,13.23,0,0,1,65.63,153.4C63.778,159.719,63.433,164.9,64.116,168.45Zm6.54-15.69c7.027,0.682,13.277-5.322,13.722-13.546,0.452-8.352-5.277-15.332-12.541-15.468-6.992-.131-12.653,6.179-12.873,13.987C58.747,145.429,63.885,152.1,70.656,152.76Zm0.892-24.531c4.95,0.153,8.83,4.93,8.547,10.612-0.279,5.623-4.52,9.8-9.359,9.388-4.716-.4-8.315-5.031-8.144-10.4C62.765,132.4,66.726,128.081,71.548,128.229Zm0.035,17.246c2.87-.232,4.884-0.907,5.911-6.266a7.7,7.7,0,0,0-2.08-6.566,95.084,95.084,0,0,0-6.8,12.636A9.535,9.535,0,0,0,71.583,145.475Zm133.434-42.8,0.031-1.354A3.406,3.406,0,0,1,205.017,102.673Zm4.253-10.854h3.167v84.442l11.611,6.333,2.111-2.111v9.5l25.333-15.833-1.056,32.722L206.1,240.649l3.166-142.5V91.819Zm11.611,36.943a2.581,2.581,0,0,1-2.111,4.222c-2.575,0-3.166-3.436-3.166-6.333v-28.5c0-7.775,3.166-7.389,3.166-7.389,3.14-.135,2.111,4.222,2.111,4.222s-1.874-.769-2.111,1.055-0.228,27.975,0,30.61C218.948,128.7,219.69,127.141,220.881,128.762Zm31.666-14.777-1.055,47.5-5.278,3.166-1.056,7.389-14.777,8.444V173.1l-6.333,3.166-7.389-4.222V136.151c0.791,2.6,6.4,2,8.444,0,5.946-5.83-1.055-10.555-1.055-10.555s-0.046-10.121,0-10.556c1.91-.139,7.075-5.277,0-6.333-0.311-.1,0-10.555,0-10.555l19-5.278,9.5,9.5s-0.389,4.125,0,4.222C246.567,110.739,252.547,113.985,252.547,113.985Z"/>
</svg>
