<svg xmlns="http://www.w3.org/2000/svg" width="256" height="256" viewBox="0 0 256 256">
  <defs>
    <style>
      .cls-1 {
        fill: #fff;
        fill-rule: evenodd;
      }
    </style>
  </defs>
  <path id="Wenrexa_Armor" data-name="Wenrexa Armor" class="cls-1" d="M184,58.957c0,16.987,13.641,28.783,30.566,29.007,1.959,7.32,2.8,19.028-5.414,20.519-15.03,2.729-37.593.341-40.391,3.03s-5.356,28.021-5.051,34.346,35.934,3.813,47.462-2,12.721,26.448,3.031,29.279-37.612,4.629-46.452,5.051-1.965,37.33,3.03,38.41c17.23,3.728,41.574-6.213,44.432-5.051s1.922,21.654-5.051,26.257-34.814,19.14-81.651,18.168c-46.837.972-74.684-13.569-81.651-18.168s-7.908-25.094-5.051-26.257,27.2,8.779,44.432,5.051c5-1.08,11.872-37.988,3.031-38.41s-36.761-2.22-46.452-5.051-8.5-35.1,3.031-29.279,47.157,8.33,47.462,2-2.253-31.656-5.051-34.346-25.361-.3-40.391-3.03c-8.212-1.491-7.373-13.2-5.413-20.525,16.809-.336,30.317-12.1,30.317-29a30.909,30.909,0,0,0-3.4-14.115c1.012-16.1.643-42.955,6.76-44.432,7.808-1.885,22.617,3.536,23.234,3.031-6.989,7.751-3.263,59.294,1.01,60.61,4.108,1.265,26.4,1.964,28.128,2.017,1.724-.052,24.02-0.752,28.128-2.017,4.273-1.316,8-52.859,1.01-60.61,0.617,0.506,15.426-4.915,23.234-3.031,6.063,1.464,5.754,27.861,6.734,44A30.907,30.907,0,0,0,184,58.957Zm-34.617,66.689a8.146,8.146,0,0,0-8.145-8.146H114.764a8.146,8.146,0,0,0-8.145,8.146v79.415a8.145,8.145,0,0,0,8.145,8.145h26.472a8.145,8.145,0,0,0,8.145-8.145V125.646ZM132.8,204.781H123.2c-4.5,0-8.146-5.683-8.146-10.181V134.809a8.145,8.145,0,0,1,8.146-8.145H132.8a8.145,8.145,0,0,1,8.146,8.145V194.6C140.942,199.1,137.295,204.781,132.8,204.781ZM82.183,118.519s5.161,23.249,2.036,24.435-46.1-6.275-51.925-11.2-2.841-16.788,0-19.344S49.52,121.847,82.183,118.519Zm3.054,65.161s-1.966,26.3-5.091,27.49-42.028-6.276-47.853-11.2-2.841-19.843,0-22.4S52.574,187.009,85.238,183.68Zm90.615,27.49c-3.125-1.186-5.091-27.49-5.091-27.49,32.664,3.329,50.1-8.665,52.944-6.109s5.825,17.475,0,22.4S178.978,212.356,175.853,211.17Zm47.853-79.416c-5.825,4.925-48.8,12.386-51.926,11.2s2.037-24.435,2.037-24.435c32.664,3.328,47.048-8.666,49.889-6.109S229.531,126.83,223.706,131.754Z"/>
</svg>
