<svg xmlns="http://www.w3.org/2000/svg" width="256" height="256" viewBox="0 0 256 256">
  <defs>
    <style>
      .cls-1 {
        fill: #fff;
        fill-rule: evenodd;
      }
    </style>
  </defs>
  <path id="Wenrexa_Dynamite" data-name="Wenrexa Dynamite" class="cls-1" d="M230,150H190.671a65.118,65.118,0,0,0-46.127-44H230a6,6,0,0,1,6,6v32A6,6,0,0,1,230,150ZM166,60h54V98H166V60Zm0-28a11,11,0,0,1,11-11h32a11,11,0,0,1,11,11V51H166V32ZM98,42h62V98H98V42Zm0-31A11,11,0,0,1,109,0h40a11,11,0,0,1,11,11V33H98V11ZM38,60H92V98H38V60Zm0-28A11,11,0,0,1,49,21H81A11,11,0,0,1,92,32V51H38V32ZM66.329,150H27a6,6,0,0,1-6-6V112a6,6,0,0,1,6-6h85.456A65.119,65.119,0,0,0,66.329,150ZM63.5,169a64.731,64.731,0,0,0,5.876,27H38V158H64.446A65.346,65.346,0,0,0,63.5,169Zm28.462,53.759A10.992,10.992,0,0,1,81,233H49a11,11,0,0,1-11-11V205H74.382A65.347,65.347,0,0,0,91.962,222.759Zm68.038,3.1V245a11,11,0,0,1-11,11H109a11,11,0,0,1-11-11V226.4A65.007,65.007,0,0,0,160,225.857ZM80,169.5A48.5,48.5,0,1,1,128.5,218,48.5,48.5,0,0,1,80,169.5Zm80.054,15.3L134,170.2V135H122v42h0.061l-0.114.2,32.106,18ZM220,158v38H187.624a64.816,64.816,0,0,0,4.93-38H220Zm-37.382,47H220v17a11,11,0,0,1-11,11H177a11,11,0,0,1-11-10.927A65.336,65.336,0,0,0,182.618,205Z"/>
</svg>
