<svg xmlns="http://www.w3.org/2000/svg" width="256" height="256" viewBox="0 0 256 256">
  <defs>
    <style>
      .cls-1 {
        fill: #fff;
        fill-rule: evenodd;
      }
    </style>
  </defs>
  <path id="Wenrexa_Rocket" data-name="Wenrexa Rocket" class="cls-1" d="M216.52,70.273c-11.45,13.192-30.548,35.531-32.684,40.205-1.845,4.035-2.054,16.119-2.732,21.661-1.279,10.439-29.536,29.847-29.536,29.847S105.753,150.539,93.015,111c0,0,20.4-32.89,35.356-34.776,3.933-.5,20.019-3.789,20.019-3.789s25.756-23.735,37.539-32.97C187.038,52.23,193.305,67.683,216.52,70.273Zm-92.4,26.487c-3.91,2.02-16.229,21.254-16.229,21.254s21.122-15.715,28.227-16.136c6.882-9.924,25.37-23.271,25.37-23.271S130.842,93.289,124.124,96.76Zm20.193,78.354c29.191,33.312-56.811,68.62-50.388,61.651,35.947-39,15.026-54.735,12.474-50.121C98.544,198.1,47.3,236.9.365,253,10.388,193.724,61.274,152.919,58.4,149.051,47.027,132.968,1.107,192.507,1.107,192.507s5.692-40.026,19.311-52.6C52.893,98.436,80.287,117.79,80.287,117.79,94.484,160.873,131.7,170.473,144.317,175.114ZM225.153,60.352c-8.881-.087-18.047-2.53-22.2-9.712a35.682,35.682,0,0,1-4.833-18.1C215.24,23.722,256.854.785,256.854,0.785Z"/>
</svg>
