<svg xmlns="http://www.w3.org/2000/svg" width="256" height="256" viewBox="0 0 256 256">
  <defs>
    <style>
      .cls-1 {
        fill: #fff;
        fill-rule: evenodd;
      }
    </style>
  </defs>
  <path id="Wenrexa_Attack_2" data-name="Wenrexa Attack 2" class="cls-1" d="M231.622,132.109a104.653,104.653,0,0,1-99.513,101.5v22.483h-8.13V233.655A104.631,104.631,0,0,1,22.434,132.109H0v-8.13H22.485A104.651,104.651,0,0,1,123.979,24.464V0h8.13V24.514a104.672,104.672,0,0,1,99.461,99.465h24.518v8.13H231.622ZM123.979,223.62V199.18H104.671v-8.13h19.308V165.644H104.671v-8.129h19.308V132.109H96.541v17.276h-8.13V132.109H63.006v17.276h-8.13V132.109H32.47A94.6,94.6,0,0,0,123.979,223.62ZM32.532,123.979H54.876V104.671h8.13v19.308H88.411V104.671h8.13v19.308h27.438V96.541H104.671v-8.13h19.308V63.006H104.671v-8.13h19.308V34.5A94.62,94.62,0,0,0,32.532,123.979Zm99.577-89.411V54.876h17.276v8.13H132.109V88.411h17.276v8.13H132.109v27.438h26.422V104.671h8.13v19.308h25.405V104.671h8.13v19.308h21.328A94.636,94.636,0,0,0,132.109,34.568ZM200.2,132.109v17.276h-8.13V132.109h-25.4v17.276h-8.13V132.109H132.109v25.406h17.276v8.129H132.109V191.05h17.276v8.13H132.109v24.374a94.62,94.62,0,0,0,89.477-91.445H200.2Z"/>
</svg>
