<svg xmlns="http://www.w3.org/2000/svg" width="256" height="256" viewBox="0 0 256 256">
  <defs>
    <style>
      .cls-1 {
        fill: #fff;
        fill-rule: evenodd;
      }
    </style>
  </defs>
  <path id="Wenrexa_Pistel_1" data-name="Wenrexa Pistel 1" class="cls-1" d="M244.37,44.873L217.006,55.72l-4.52-11.4s-11.172,5.1-12.757,1.1c0.1-.223-178.319,69.368-178.319,69.368s-6.674-15.416.082-26.419c0.171-.018,70.69-28.022,70.69-28.022L98.551,63.1,122.5,53.6l2.753-6.369S226,3.865,231.735,6.343,247.082,38.6,244.37,44.873ZM208.737,4.905l11.4-4.52,2.948,4.109L208.264,10.37ZM20.393,75.608l28.7-.822L21.729,85.633ZM196.976,51.786s4.3,2.971,12.069.493c-0.45.781,5.949,9.68,1.788,11.165s-52.448,20.791-52.448,20.791,0.672,6.154-1.161,7.057-12.268,2.832-10.734,9.532,9.237,24.045-5.331,29.819-33.521,12.875-36.033,15.6,6.437,81.217,5.887,84.743-47.8,32.62-76.371,23.677c0,0,12.905-95.835,8.288-102.235S5.769,150.89-.314,143.186c-2.069-1.228,20.092-8.473,23.984-22.7C23.949,120.1,196.976,51.786,196.976,51.786Zm-89.529,80.347c0.292,0.207,5.5,7,27.8-3.1,5.982-2.957,12.633-11.4,9.85-18.418S135,97.464,131.237,98.955s-19.332,6.344-25.536,8.8C105.7,107.758,96.13,119.2,107.447,132.133Zm-58.2,112.785c2.962,2.364,23.121,4.075,45.586-11.474C99.521,230.2,93,112.177,90.663,109.761s-32.253-.017-36.465,7.858C53.185,119.514,46.287,242.554,49.248,244.918ZM26.126,136.664a9.812,9.812,0,1,0,5.506-12.738A9.812,9.812,0,0,0,26.126,136.664Zm6.828-9.3a6.1,6.1,0,1,1-3.421,7.914A6.1,6.1,0,0,1,32.954,127.36Zm52.594-10.747c2.084,2.15,7.882,107.17,3.712,110.056C69.269,240.5,57.936,239,55.3,236.9s2.6-113.867,3.5-115.553C62.549,114.338,83.464,114.464,85.547,116.613Zm34.956-8.126c-1.68,3.481.855,9.114,9.3,13.466,6.459,5.138-.947,5.221-10.026,1.336-4.538-1.942-9.984-11.874-9.984-11.874S122.182,105.006,120.5,108.487Z"/>
</svg>
