<svg xmlns="http://www.w3.org/2000/svg" width="256" height="256" viewBox="0 0 256 256">
  <defs>
    <style>
      .cls-1 {
        fill: #fff;
        fill-rule: evenodd;
      }
    </style>
  </defs>
  <path id="Wenrexa_Shotgun_Ammo" data-name="Wenrexa Shotgun + Ammo" class="cls-1" d="M248.119,200.937c-1.136.94-9.375-5.488-12.549-.911S231,219.8,229.377,229.569c-0.375.747-7.692,12.225-8.7,13.293s-4.723,2.752-4.723,2.752-21.309-6.511-25.21-15.042c-0.765-1.672,10.282-7.006,11.769-11.286s6.655-21.008,1.506-22.385-5.616.681-7.12-.279-16.97-10.286-18.406-12.048,3.89-14.02,6.619-19.039c0.473-1.733-44.993-29.451-44.993-29.451s8.057-13.461,14.447-15.376,21.288-7.975,21.288-7.975l5.113,3.347-8.422,6.172,48.06,31.46,8.423-6.173,19.428,12.718s-1.231,8.91.428,10.5a39.949,39.949,0,0,0,6.135,4.016S259.269,181.791,248.119,200.937Zm-54.158-31.069s-8.931,3.146-9.761,8.217-2.546,3.453.39,6.1,11.907,8.064,14.985,8.348,10.382-3.058,11.806-6.879S197.654,171.015,193.961,169.868Zm-2.25,14.6c0.963,0.275,1.517,1.136,4.406-.037s4.686-7.158,4.686-7.158c2.532,1.24,5.466,5.038,5.466,5.038a26.248,26.248,0,0,1-7.084,4.128C194.823,188.159,190.748,184.187,191.711,184.463Zm27.833-35.827-39.879-26.1,9.445-5.5,2.045,1.339,1.338-2.045,5.113,3.346-1.338,2.046,4.09,2.677,1.338-2.045,5.113,3.347-1.338,2.045,4.09,2.677,1.339-2.045,5.112,3.347-1.338,2.045,4.09,2.677,1.339-2.045,5.112,3.347-1.338,2.045,4.09,2.678Zm-88.2-8.072a15.6,15.6,0,0,1-4.8-6.061l-30.677-20.08-1.339,2.045-5.113-3.347,1.339-2.045-4.09-2.678-1.339,2.046L80.215,107.1l1.339-2.045-4.09-2.678-1.339,2.045-5.113-3.346,1.321-2.018c-0.895-.553-2.32-1.434-4.157-2.575L66.921,98.4l-5.113-3.347,1.177-1.8c-1.31-.817-2.7-1.685-4.146-2.592l-1.121,1.713-5.113-3.347,1.06-1.619c-1.363-.86-2.745-1.733-4.132-2.613l-1.018,1.554L43.4,83l0.976-1.491c-1.4-.894-2.773-1.78-4.111-2.645l-0.955,1.459L34.2,76.976l0.951-1.453c-1.461-.964-2.829-1.877-4.065-2.716L30.109,74.3,25,70.952l1.1-1.677c-1.179-.9-1.848-1.51-1.8-1.707,0.373-1.674-.39-6.1-0.39-6.1l-7.158-4.685,10.04-15.338,6.135,4.016L28.9,51.6l9.2,6.024,4.016-6.135,4.09,2.677L42.195,60.3l9.2,6.024,4.016-6.135,4.09,2.677L55.488,69l9.2,6.024,4.016-6.135,4.09,2.677L68.781,77.7l9.2,6.024L82,77.591l4.09,2.677L82.074,86.4l9.2,6.024,4.016-6.135,5.113,3.347,31.868,0.41,3.7-3.421,34.767,22.758s-11.966,3.791-20.62,6.953S131.343,140.564,131.343,140.564ZM85.458,85.7L88.8,80.584l5.113,3.347-3.347,5.113ZM72.165,77l3.347-5.113,5.113,3.347-3.347,5.113Zm-13.293-8.7,3.347-5.113,5.113,3.347-3.347,5.113Zm-13.293-8.7,3.347-5.113,5.113,3.347-3.347,5.113Zm-13.293-8.7,3.347-5.113,5.113,3.347L37.4,54.238ZM1.85,19.283s0.351-5,1.971-7.474S9.213,8.035,9.213,8.035L126.808,85.01l-26.792-1.47ZM18.1,181.878c-0.081,0-.155,0-0.235,0s-0.155,0-.235,0c0,0,0-.009,0-0.009-8.176-.1-12.943-2.6-13.174-3.756,0-23.122,10.786-32.651,13.174-34.477,0-.21,0-0.342,0-0.342s0.088,0.058.235,0.165c0.147-.107.235-0.165,0.235-0.165s0,0.132,0,.342c2.388,1.826,13.174,11.355,13.174,34.477-0.231,1.154-5,3.66-13.174,3.756C18.1,181.869,18.1,181.878,18.1,181.878ZM4.457,188c0.789-1.7,0-7.058,0-7.058,2.288,2.878,11.86,3.246,13.41,3.288,1.55-.042,11.122-0.41,13.41-3.288,0,0-.79,5.356,0,7.058a29.417,29.417,0,0,1,1.882,4.7c0.113,0.773.471,50.347,0.471,50.347S31.669,245.8,18.1,245.864v0.006c-0.083,0-.153,0-0.235,0s-0.152,0-.235,0v-0.006C4.065,245.8,2.1,243.047,2.1,243.047s0.358-49.574.471-50.347A29.411,29.411,0,0,1,4.457,188ZM3.516,247.753c0.25-.365-0.941-2.353-0.941-2.353,3.262,2.694,12.845,2.832,15.057,2.827v0l0.235,0,0.235,0v0c2.212,0,11.8-.133,15.057-2.827,0,0-1.191,1.988-.941,2.353a5.687,5.687,0,0,0,1.412.941s-0.021,2.744-.471,3.293-1.982,2.764-15.057,2.818c0,0,0,.006,0,0.006-0.083,0-.153,0-0.235,0s-0.152,0-.235,0c0,0,0,0,0-.006-13.075-.054-14.612-2.275-15.057-2.818S2.1,248.694,2.1,248.694A5.687,5.687,0,0,0,3.516,247.753Zm55.64-65.875c-0.081,0-.155,0-0.235,0s-0.155,0-.235,0c0,0,0-.009,0-0.009-8.176-.1-12.943-2.6-13.174-3.756,0-23.122,10.786-32.651,13.174-34.477,0-.21,0-0.342,0-0.342s0.088,0.058.235,0.165c0.147-.107.235-0.165,0.235-0.165s0,0.132,0,.342c2.388,1.826,13.174,11.355,13.174,34.477-0.231,1.154-5,3.66-13.174,3.756C59.157,181.869,59.156,181.878,59.156,181.878ZM45.511,188c0.789-1.7,0-7.058,0-7.058,2.288,2.878,11.86,3.246,13.41,3.288,1.55-.042,11.122-0.41,13.41-3.288,0,0-.789,5.356,0,7.058a29.41,29.41,0,0,1,1.882,4.7c0.113,0.773.471,50.347,0.471,50.347s-1.961,2.752-15.528,2.817v0.006c-0.083,0-.153,0-0.235,0s-0.152,0-.235,0v-0.006c-13.567-.065-15.528-2.817-15.528-2.817s0.358-49.574.471-50.347A29.417,29.417,0,0,1,45.511,188ZM44.57,247.753c0.25-.365-0.941-2.353-0.941-2.353,3.262,2.694,12.845,2.832,15.057,2.827v0l0.235,0,0.235,0v0c2.212,0,11.8-.133,15.057-2.827,0,0-1.191,1.988-.941,2.353a5.687,5.687,0,0,0,1.412.941s-0.021,2.744-.471,3.293-1.982,2.764-15.057,2.818c0,0,0,.006,0,0.006-0.083,0-.153,0-0.235,0s-0.152,0-.235,0c0,0,0,0,0-.006-13.075-.054-14.613-2.275-15.057-2.818s-0.471-3.293-.471-3.293A5.687,5.687,0,0,0,44.57,247.753Zm55.64-65.875c-0.081,0-.156,0-0.235,0s-0.155,0-.235,0c0,0,0-.009,0-0.009-8.176-.1-12.943-2.6-13.174-3.756,0-23.122,10.786-32.651,13.174-34.477,0-.21,0-0.342,0-0.342s0.088,0.058.235,0.165c0.147-.107.235-0.165,0.235-0.165s0,0.132,0,.342c2.387,1.826,13.174,11.355,13.174,34.477-0.231,1.154-5,3.66-13.174,3.756A0.028,0.028,0,0,0,100.21,181.878ZM86.564,188c0.79-1.7,0-7.058,0-7.058,2.288,2.878,11.86,3.246,13.41,3.288,1.55-.042,11.122-0.41,13.41-3.288,0,0-.79,5.356,0,7.058a29.482,29.482,0,0,1,1.882,4.7c0.113,0.773.47,50.347,0.47,50.347s-1.96,2.752-15.527,2.817v0.006c-0.083,0-.154,0-0.235,0s-0.153,0-.235,0v-0.006c-13.567-.065-15.528-2.817-15.528-2.817s0.358-49.574.471-50.347A29.417,29.417,0,0,1,86.564,188Zm-0.941,59.758c0.25-.365-0.941-2.353-0.941-2.353,3.262,2.694,12.845,2.832,15.057,2.827v0l0.235,0,0.235,0v0c2.212,0,11.8-.133,15.057-2.827,0,0-1.191,1.988-.941,2.353a5.683,5.683,0,0,0,1.411.941s-0.02,2.744-.47,3.293-1.982,2.764-15.057,2.818v0.006c-0.083,0-.154,0-0.235,0s-0.152,0-.235,0c0,0,0,0,0-.006-13.075-.054-14.612-2.275-15.057-2.818s-0.471-3.293-.471-3.293A5.685,5.685,0,0,0,85.623,247.753Z"/>
</svg>
