<svg xmlns="http://www.w3.org/2000/svg" width="256" height="256" viewBox="0 0 256 256">
  <defs>
    <style>
      .cls-1 {
        fill: #fff;
        fill-rule: evenodd;
      }
    </style>
  </defs>
  <path id="Wenrexa_Pistel_1_Ammo" data-name="Wenrexa Pistel 1 + Ammo" class="cls-1" d="M234.922,246.863v0.006c-0.083,0-.153,0-0.235,0s-0.153,0-.235,0v-0.006c-13.548-.065-15.506-2.813-15.506-2.813s0.357-49.505.47-50.277a29.39,29.39,0,0,1,1.879-4.7c0.789-1.7,0-7.048,0-7.048,2.285,2.875,11.843,3.243,13.392,3.284,1.548-.041,11.106-0.409,13.391-3.284,0,0-.788,5.349,0,7.048a29.512,29.512,0,0,1,1.88,4.7c0.112,0.772.469,50.277,0.469,50.277S248.469,246.8,234.922,246.863Zm0-63.906v0.009c-0.081,0-.156,0-0.235,0s-0.155,0-.235,0a0.025,0.025,0,0,1,0-.009c-8.165-.095-12.925-2.6-13.156-3.75,0-23.089,10.771-32.6,13.156-34.429,0-.21,0-0.342,0-0.342s0.088,0.059.235,0.165c0.147-.106.235-0.165,0.235-0.165s0,0.132,0,.342c2.384,1.824,13.155,11.34,13.155,34.429C247.848,180.359,243.087,182.862,234.922,182.957ZM217.334,55.417L212.807,44s-11.188,5.107-12.776,1.1c0.1-.223-178.587,69.472-178.587,69.472s-6.684-15.439.082-26.459c0.171-.018,70.8-28.064,70.8-28.064L98.7,62.8,122.68,53.3l2.757-6.378S226.345,3.484,232.086,5.966s15.369,32.3,12.653,38.588ZM209.052,4.526L220.471,0l2.953,4.115L208.579,10ZM20.425,75.335l28.743-.823L21.762,85.376ZM197.274,51.477s4.3,2.976,12.087.494c-0.451.782,5.958,9.694,1.79,11.182s-52.526,20.822-52.526,20.822,0.673,6.163-1.163,7.067-12.286,2.836-10.75,9.546,9.25,24.081-5.339,29.864S107.8,143.347,105.285,146.08s6.447,81.34,5.9,84.87-47.872,32.67-76.486,23.713c0,0,12.925-95.979,8.3-102.389s-37.217-1.543-43.31-9.258c-2.072-1.231,20.123-8.487,24.021-22.736C23.986,119.894,197.274,51.477,197.274,51.477ZM107.61,131.945c0.293,0.207,5.512,7.014,27.838-3.107,5.991-2.961,12.652-11.415,9.865-18.445S135.2,97.224,131.435,98.717s-19.36,6.354-25.574,8.817C105.861,107.534,96.276,119,107.61,131.945ZM49.323,244.9c2.966,2.367,23.156,4.081,45.655-11.492,4.693-3.248-1.833-121.45-4.178-123.869s-32.3-.018-36.52,7.87C53.266,119.307,46.357,242.533,49.323,244.9ZM26.166,136.483a9.827,9.827,0,1,0,5.514-12.756A9.827,9.827,0,0,0,26.166,136.483ZM33,127.165a6.106,6.106,0,1,1-3.426,7.926A6.107,6.107,0,0,1,33,127.165ZM85.677,116.4c2.087,2.153,7.893,107.331,3.718,110.222-20.02,13.856-31.371,12.352-34.01,10.245s2.6-114.038,3.506-115.727C62.644,114.124,83.59,114.25,85.677,116.4Zm35.008-8.138c-1.682,3.486.857,9.127,9.31,13.486,6.469,5.146-.948,5.229-10.04,1.338-4.545-1.945-10-11.892-10-11.892S122.367,104.778,120.685,108.264Zm32.245,74.7c-0.081,0-.156,0-0.235,0s-0.155,0-.235,0a0.025,0.025,0,0,1,0-.009c-8.165-.095-12.925-2.6-13.156-3.75,0-23.089,10.771-32.6,13.156-34.429,0-.21,0-0.342,0-0.342s0.088,0.059.235,0.165c0.147-.106.235-0.165,0.235-0.165s0,0.132,0,.342c2.384,1.824,13.155,11.34,13.155,34.429-0.23,1.152-4.991,3.655-13.156,3.75v0.009ZM139.3,189.074c0.789-1.7,0-7.048,0-7.048,2.285,2.875,11.843,3.243,13.392,3.284,1.548-.041,11.106-0.409,13.391-3.284,0,0-.788,5.349,0,7.048a29.512,29.512,0,0,1,1.88,4.7c0.112,0.772.469,50.277,0.469,50.277s-1.958,2.748-15.5,2.813v0.006c-0.083,0-.154,0-0.235,0s-0.153,0-.235,0v-0.006c-13.548-.065-15.506-2.813-15.506-2.813s0.357-49.505.47-50.277A29.39,29.39,0,0,1,139.3,189.074Zm-0.94,59.674c0.25-.363-0.939-2.349-0.939-2.349,3.257,2.691,12.827,2.828,15.036,2.823v0l0.235,0,0.235,0v0c2.209,0,11.778-.132,15.036-2.823,0,0-1.19,1.986-.94,2.349a5.67,5.67,0,0,0,1.409.94s-0.02,2.741-.469,3.289-1.979,2.76-15.036,2.815v0c-0.083,0-.153,0-0.235,0s-0.153,0-.235,0v0c-13.056-.055-14.592-2.273-15.035-2.815s-0.47-3.289-.47-3.289A5.652,5.652,0,0,0,138.363,248.748Zm55.563-65.782c-0.081,0-.156,0-0.235,0s-0.155,0-.235,0a0.025,0.025,0,0,1,0-.009c-8.165-.095-12.925-2.6-13.156-3.75,0-23.089,10.771-32.6,13.156-34.429,0-.21,0-0.342,0-0.342s0.088,0.059.235,0.165c0.147-.106.235-0.165,0.235-0.165s0,0.132,0,.342c2.384,1.824,13.155,11.34,13.155,34.429-0.23,1.152-4.991,3.655-13.156,3.75v0.009ZM180.3,189.074c0.789-1.7,0-7.048,0-7.048,2.285,2.875,11.843,3.243,13.392,3.284,1.548-.041,11.106-0.409,13.391-3.284,0,0-.788,5.349,0,7.048a29.512,29.512,0,0,1,1.88,4.7c0.112,0.772.469,50.277,0.469,50.277s-1.958,2.748-15.505,2.813v0.006c-0.083,0-.154,0-0.235,0s-0.153,0-.235,0v-0.006c-13.548-.065-15.506-2.813-15.506-2.813s0.357-49.505.47-50.277A29.39,29.39,0,0,1,180.3,189.074Zm-0.94,59.674c0.25-.363-0.939-2.349-0.939-2.349,3.257,2.691,12.827,2.828,15.036,2.823v0l0.235,0,0.235,0v0c2.209,0,11.778-.132,15.036-2.823,0,0-1.19,1.986-.94,2.349a5.67,5.67,0,0,0,1.409.94s-0.02,2.741-.469,3.289-1.979,2.76-15.036,2.815v0c-0.083,0-.153,0-0.235,0s-0.152,0-.235,0a0.009,0.009,0,0,0,0,0c-13.056-.055-14.592-2.273-15.035-2.815s-0.47-3.289-.47-3.289A5.652,5.652,0,0,0,179.359,248.748Zm41,0c0.249-.363-0.94-2.349-0.94-2.349,3.257,2.691,12.827,2.828,15.036,2.823v0l0.235,0,0.235,0v0c2.209,0,11.779-.132,15.036-2.823,0,0-1.19,1.986-.94,2.349a5.67,5.67,0,0,0,1.409.94s-0.02,2.741-.469,3.289-1.979,2.76-15.036,2.815v0c-0.083,0-.153,0-0.235,0s-0.152,0-.235,0a0.009,0.009,0,0,0,0,0c-13.056-.055-14.592-2.273-15.035-2.815s-0.47-3.289-.47-3.289A5.671,5.671,0,0,0,220.356,248.748Z"/>
</svg>
