<svg xmlns="http://www.w3.org/2000/svg" width="256" height="256" viewBox="0 0 256 256">
  <defs>
    <style>
      .cls-1 {
        fill: #fff;
        fill-rule: evenodd;
      }
    </style>
  </defs>
  <path id="Wenrexa_Knife_1" data-name="Wenrexa Knife 1" class="cls-1" d="M212.414,253.862s9.487-8.128-2.072-19.687-22.8-6.217-22.8-6.217A18.867,18.867,0,0,0,183.4,206.2c-10.232-10.232-20.241-7.36-21.759-7.253s2.014-13.845-4.145-20.723-17.468-8.687-22.8-8.29c-0.6-.278,2.984-13.594-7.254-23.831-10.575-10.576-20.055-2.152-23.831-3.109-0.4.4-6.63-4.719-6.217-6.217s29.069-35.891,33.157-36.266,6.856,4.511,10.362,7.253c81.76,63.964,94.111,86.118,103.616,100.509s9.122,23.642,7.253,31.085C249.729,247.558,237.757,261.634,212.414,253.862ZM99.472,115.016c-2.665-5.125-9.041-11.676-16.579-5.181C79.908,112.407-.608,46.993,0,0-0.405-1.035,52.924,25.515,93.255,60.1,121.422,83.194,123.9,91.491,123.3,92.22S102.137,120.14,99.472,115.016Zm55.953,22.8a12.434,12.434,0,1,1-12.434,12.434A12.434,12.434,0,0,1,155.425,137.811Zm31.085,26.941a12.434,12.434,0,1,1-12.434,12.434A12.434,12.434,0,0,1,186.51,164.752Zm25.9,29.012A12.434,12.434,0,1,1,199.98,206.2,12.434,12.434,0,0,1,212.414,193.764Z"/>
</svg>
