<svg xmlns="http://www.w3.org/2000/svg" width="256" height="256" viewBox="0 0 256 256">
  <defs>
    <style>
      .cls-1 {
        fill: #fff;
        fill-rule: evenodd;
      }
    </style>
  </defs>
  <path id="Wenrexa_Shotgun" data-name="Wenrexa Shotgun" class="cls-1" d="M248.212,201.824c-1.139.942-9.4-5.5-12.579-.914s-4.577,19.82-6.207,29.612c-0.376.749-7.71,12.254-8.722,13.324s-4.733,2.758-4.733,2.758-21.359-6.525-25.27-15.077c-0.766-1.675,10.306-7.022,11.8-11.311s6.671-21.058,1.51-22.438-5.63.683-7.137-.279-17.01-10.311-18.449-12.077,3.9-14.053,6.634-19.083c0.474-1.737-45.1-29.52-45.1-29.52s8.075-13.492,14.48-15.411,21.338-7.994,21.338-7.994l5.125,3.354-8.442,6.187,48.172,31.533,8.443-6.187,19.474,12.748s-1.234,8.931.428,10.529a40.012,40.012,0,0,0,6.15,4.025S259.387,182.633,248.212,201.824Zm-54.285-31.142s-8.952,3.154-9.784,8.237-2.552,3.46.391,6.112,11.935,8.083,15.02,8.368,10.407-3.066,11.834-6.9S197.629,171.832,193.927,170.682Zm-2.255,14.629c0.965,0.276,1.52,1.139,4.416-.037s4.7-7.175,4.7-7.175c2.539,1.243,5.478,5.05,5.478,5.05a26.291,26.291,0,0,1-7.1,4.137C194.792,189.015,190.706,185.035,191.672,185.311Zm27.9-35.91L179.6,123.235l9.468-5.516,2.049,1.342,1.342-2.05,5.125,3.354-1.342,2.05,4.1,2.684,1.342-2.05,5.124,3.355-1.341,2.05,4.1,2.683,1.342-2.05,5.125,3.355-1.342,2.05,4.1,2.683,1.342-2.049,5.125,3.354-1.342,2.05,4.1,2.684Zm-88.407-8.091a15.647,15.647,0,0,1-4.808-6.075L95.606,115.107l-1.342,2.05L89.14,113.8l1.342-2.05-4.1-2.684-1.342,2.05-5.125-3.355,1.342-2.049-4.1-2.684-1.342,2.05-5.125-3.355L72.015,99.7c-0.9-.554-2.325-1.437-4.167-2.581l-1.257,1.92-5.125-3.355,1.18-1.8c-1.313-.819-2.7-1.689-4.156-2.6L57.367,93,52.242,89.65,53.3,88.027c-1.367-.862-2.752-1.737-4.142-2.619l-1.02,1.558-5.125-3.354L44,82.117c-1.4-.9-2.78-1.784-4.121-2.652l-0.957,1.463-5.125-3.355,0.953-1.456c-1.464-.966-2.835-1.881-4.075-2.722L29.693,74.89l-5.125-3.355,1.1-1.68c-1.182-.9-1.852-1.513-1.808-1.711,0.374-1.678-.391-6.113-0.391-6.113l-7.175-4.7L26.358,41.96l6.15,4.026-4.026,6.15,9.225,6.038,4.026-6.15,4.1,2.684-4.025,6.15L51.031,66.9l4.026-6.15,4.1,2.684-4.026,6.15,9.225,6.038,4.025-6.15,4.1,2.684L68.455,78.3l9.224,6.038,4.026-6.15,4.1,2.684-4.026,6.15L91,93.061l4.025-6.15,5.124,3.355L132.1,90.677l3.708-3.429,34.849,22.811s-11.994,3.8-20.668,6.969S131.163,141.31,131.163,141.31Zm-45.992-55,3.355-5.125,5.125,3.355L90.3,89.669ZM71.847,77.593L75.2,72.468l5.125,3.355-3.355,5.125ZM58.523,68.871l3.355-5.125L67,67.1l-3.355,5.125ZM45.2,60.149l3.355-5.125,5.125,3.355L50.323,63.5ZM31.874,51.427L35.229,46.3l5.125,3.355L37,54.782ZM1.368,19.746s0.352-5.011,1.976-7.491,5.4-3.783,5.4-3.783L126.617,85.626,99.763,84.154Z"/>
</svg>
