<svg xmlns="http://www.w3.org/2000/svg" width="256" height="256" viewBox="0 0 256 256">
  <defs>
    <style>
      .cls-1 {
        fill: #fff;
        fill-rule: evenodd;
      }
    </style>
  </defs>
  <path id="Wenrexa_Ammo_Default" data-name="Wenrexa Ammo Default" class="cls-1" d="M255.785,1.514c1.157,8.7,3.752,50.615-43.958,98.325-2.857,1.9-17.865-2.761-34.931-19.433a0.219,0.219,0,0,1-.022.015c-0.166-.166-0.312-0.329-0.476-0.495s-0.329-.31-0.5-0.476a0.219,0.219,0,0,1,.015-0.022C159.246,62.361,154.58,47.354,156.485,44.5,204.2-3.214,246.114-.619,254.81.539l0.708-.7s0.061,0.3.144,0.826c0.524,0.083.827,0.145,0.827,0.145Zm-84.24,83.265c3.4,3.22,23.836,22.1,34.456,20.886,0,0-12.681,9.423-14.563,14.564s-4.463,11.765-5.826,13.592S82.7,238.679,82.7,238.679s-9.71,1.666-37.859-26.221l-0.006.006c-0.166-.166-0.318-0.323-0.482-0.488s-0.322-.317-0.489-0.483l0.006-.006c-27.887-28.149-26.221-37.859-26.221-37.859S120.675,72.074,122.5,70.711s8.452-3.943,13.593-5.826,14.563-14.564,14.563-14.564C149.446,60.942,168.325,81.379,171.545,84.778ZM39,216.356L39,216.348s0.176,0.182.48,0.491,0.491,0.48.491,0.48l-0.008.008c4.584,4.6,24.626,24.066,36.9,25.235,0,0-6.561,1.646-6.8,2.913s0.971,4.855.971,4.855-5.706,5.62-7.767,5.825c-2.036.2-9.775,1.647-36.889-25.248a0.022,0.022,0,0,1-.006,0c-0.166-.166-0.319-0.323-0.483-0.488s-0.322-.316-0.488-0.482a0.028,0.028,0,0,1,0-.006C-1.479,202.82-.034,195.082.168,193.046c0.2-2.061,5.825-7.767,5.825-7.767s3.587,1.206,4.855.971,2.913-6.8,2.913-6.8C14.93,191.729,34.394,211.772,39,216.356Z"/>
</svg>
