<svg xmlns="http://www.w3.org/2000/svg" width="256" height="256" viewBox="0 0 256 256">
  <defs>
    <style>
      .cls-1 {
        fill: #fff;
        fill-rule: evenodd;
      }
    </style>
  </defs>
  <path id="Wenrexa_Ammo" data-name="Wenrexa Ammo" class="cls-1" d="M212.637,235.529v0.007c-0.184,0-.356,0-0.538,0s-0.355,0-.539,0v-0.007c-31.081-.145-35.542-6.455-35.542-6.455S176.837,115.6,177.1,113.831s2.5-6.875,4.308-10.77,0-16.156,0-16.156c5.217,6.564,27.024,7.427,30.7,7.527,3.671-.1,25.478-0.963,30.7-7.527,0,0-1.807,12.261,0,16.156s4.05,9,4.308,10.77,1.077,115.243,1.077,115.243S243.718,235.384,212.637,235.529Zm0-146.49a0.169,0.169,0,0,1,0,.02c-0.184,0-.356-0.009-0.538-0.01s-0.355.01-.539,0.01a0.169,0.169,0,0,1,0-.02c-18.713-.219-29.625-5.955-30.153-8.6,0-52.925,24.69-74.737,30.155-78.918,0-.5,0-0.783,0-0.783s0.2,0.134.539,0.378c0.337-.244.538-0.378,0.538-0.378s0,0.28,0,.783c5.466,4.181,30.155,25.993,30.155,78.918C242.266,83.084,231.354,88.82,212.641,89.039ZM128.629,255.994a0.013,0.013,0,0,0,0,.006c-0.184,0-.356,0-0.538,0s-0.354,0-.539,0v-0.006c-29.957-.121-33.448-5.215-34.465-6.456-1.03-1.257-1.077-7.54-1.077-7.54s2.659-1.32,3.231-2.154-2.154-5.385-2.154-5.385c7.458,6.161,29.37,6.482,34.465,6.471v-0.009s0.2,0,.539.007,0.538-.007.538-0.007v0.009c5.1,0.011,27.008-.31,34.465-6.471,0,0-2.726,4.552-2.154,5.385S164.17,242,164.17,242s-0.047,6.283-1.077,7.54C162.076,250.779,158.586,255.873,128.629,255.994Zm0-20.465v0.007c-0.184,0-.356,0-0.538,0s-0.354,0-.539,0v-0.007c-31.081-.145-35.542-6.455-35.542-6.455S92.828,115.6,93.086,113.831s2.5-6.875,4.308-10.77,0-16.156,0-16.156c5.217,6.564,27.024,7.427,30.7,7.527,3.671-.1,25.478-0.963,30.695-7.527,0,0-1.807,12.261,0,16.156s4.05,9,4.308,10.77,1.077,115.243,1.077,115.243S159.709,235.384,128.628,235.529Zm0-146.49a0.078,0.078,0,0,1,0,.02c-0.184,0-.355-0.009-0.538-0.01s-0.355.01-.539,0.01c0,0,0-.016,0-0.02-18.713-.219-29.625-5.955-30.153-8.6,0-52.925,24.69-74.737,30.155-78.918,0-.5,0-0.783,0-0.783s0.2,0.134.539,0.378c0.337-.244.538-0.378,0.538-0.378s0,0.28,0,.783c5.465,4.181,30.154,25.993,30.154,78.918C158.257,83.084,147.345,88.82,128.632,89.039ZM44.62,255.994s0,0.006,0,.006c-0.185,0-.356,0-0.539,0s-0.354,0-.538,0c0,0,0-.006,0-0.006-29.957-.121-33.447-5.215-34.465-6.456C8.047,248.281,8,242,8,242s2.659-1.32,3.231-2.154-2.154-5.385-2.154-5.385c7.458,6.161,29.37,6.482,34.465,6.471v-0.009s0.2,0,.538.007,0.539-.007.539-0.007v0.009c5.1,0.011,27.008-.31,34.465-6.471,0,0-2.727,4.552-2.154,5.385S80.162,242,80.162,242s-0.047,6.283-1.077,7.54C78.067,250.779,74.577,255.873,44.62,255.994Zm0-20.465v0.007c-0.184,0-.356,0-0.539,0s-0.354,0-.538,0v-0.007C12.461,235.384,8,229.074,8,229.074S8.819,115.6,9.077,113.831s2.5-6.875,4.308-10.77,0-16.156,0-16.156c5.217,6.564,27.024,7.427,30.7,7.527,3.672-.1,25.478-0.963,30.7-7.527,0,0-1.807,12.261,0,16.156s4.05,9,4.308,10.77,1.077,115.243,1.077,115.243S75.7,235.384,44.619,235.529Zm0-146.49a0.172,0.172,0,0,1,0,.02c-0.184,0-.356-0.009-0.539-0.01s-0.354.01-.538,0.01a0.172,0.172,0,0,1,0-.02c-18.713-.219-29.625-5.955-30.153-8.6,0-52.925,24.69-74.737,30.155-78.918,0-.5,0-0.783,0-0.783s0.2,0.134.538,0.378c0.337-.244.539-0.378,0.539-0.378s0,0.28,0,.783c5.465,4.181,30.155,25.993,30.155,78.918C74.248,83.084,63.336,88.82,44.623,89.039ZM179.249,239.844c0.573-.833-2.154-5.385-2.154-5.385,7.457,6.161,29.37,6.482,34.465,6.471v-0.009s0.2,0,.539.007,0.538-.007.538-0.007v0.009c5.095,0.011,27.008-.31,34.465-6.471,0,0-2.726,4.552-2.154,5.385S248.179,242,248.179,242s-0.047,6.283-1.077,7.54c-1.017,1.241-4.508,6.335-34.465,6.456V256c-0.184,0-.356,0-0.538,0s-0.354,0-.539,0v-0.006c-29.957-.121-33.448-5.215-34.465-6.456-1.03-1.257-1.077-7.54-1.077-7.54S178.676,240.678,179.249,239.844Z"/>
</svg>
