<svg xmlns="http://www.w3.org/2000/svg" width="256" height="256" viewBox="0 0 256 256">
  <defs>
    <style>
      .cls-1 {
        fill: #fff;
        fill-rule: evenodd;
      }
    </style>
  </defs>
  <path id="Wenrexa_Reload_1" data-name="Wenrexa Reload 1" class="cls-1" d="M256.276,94.606l0.128-.369S256.361,94.372,256.276,94.606Zm-52.1,18.2c10.551,2.544,17.009,2.736,23.845,1.589-1.965-5.872-2.368-11.526-5.3-16.879a103.285,103.285,0,0,0-194.083,70.6,104.594,104.594,0,0,0,63.9,76.59A117.792,117.792,0,0,1,117.72,11.839c59.557,0,109.78,44.209,117.677,101.595,15.957-4.44,18.02-10.46,18.841-12.714l-18.724,53.865ZM89.038,206.183a8.886,8.886,0,0,0,.52,2.6s-3.059,3.013-4.163,3.123-5.239.883-19.774-13.534l0,0c-0.089-.09-0.171-0.174-0.259-0.262l-0.262-.259,0,0c-14.417-14.534-13.642-18.682-13.534-19.773s3.123-4.164,3.123-4.164a8.888,8.888,0,0,0,2.6.521c0.679-.126,1.561-3.643,1.561-3.643,0.627,6.58,11.06,17.323,13.527,19.78l0,0s0.094,0.1.257,0.263l0.263,0.258,0,0c2.457,2.467,13.2,12.9,19.781,13.527C92.681,204.622,89.164,205.5,89.038,206.183Zm-13.528-17.7,0,0c-0.089-.089-0.171-0.173-0.258-0.262s-0.173-.169-0.262-0.258l0,0c-14.949-15.089-14.055-20.294-14.055-20.294s55.228-54.436,56.207-55.166a46.008,46.008,0,0,1,7.286-3.123c2.756-1.009,7.807-7.807,7.807-7.807-0.651,5.693,9.469,16.648,11.195,18.47,1.823,1.726,12.777,11.846,18.47,11.2,0,0-6.8,5.052-7.807,7.807a46.119,46.119,0,0,1-3.122,7.286c-0.731.98-55.166,56.207-55.166,56.207S90.6,203.434,75.51,188.485ZM146.3,117.7s-0.012.009-.012,0.008c-0.089-.089-0.168-0.176-0.255-0.265s-0.177-.166-0.266-0.255l0.008-.012c-8.936-9.148-11.437-17.193-10.416-18.724C160.931,72.879,183.4,74.269,188.062,74.89l0.379-.377s0.033,0.162.078,0.443c0.281,0.045.443,0.078,0.443,0.078l-0.378.38c0.621,4.661,2.012,27.131-23.562,52.705C163.49,129.139,155.446,126.638,146.3,117.7Z"/>
</svg>
