<svg xmlns="http://www.w3.org/2000/svg" width="256" height="256" viewBox="0 0 256 256">
  <defs>
    <style>
      .cls-1 {
        fill: #fff;
        fill-rule: evenodd;
      }
    </style>
  </defs>
  <path id="Wenrexa_Ammunition_Box_1" data-name="Wenrexa Ammunition Box 1" class="cls-1" d="M0.275,83.289L3.444,208.965l198.547,31.684,3.168-139.406s1.809,7.393-15.841,7.393C175.2,108.636,9.78,95.962,9.78,95.962S2.213,90.8.275,83.289Zm204.884,8.449s-1.195,11.617-12.673,11.617c-8.686,0-178.211-12.673-179.537-12.673s-7.393-3.03-7.393-10.561C5.9,79.775,205.159,91.738,205.159,91.738ZM0.275,67.448v6.337L212.552,86.458v-5.28Zm0-4.224,55.973-6.337,197.491,9.5L213.608,76.953Zm216.5,17.954v5.28h6.336l2.112,7.393L249.516,85.4l1.056-7.393,5.28-3.168V70.616Zm2.112,9.5s-3.169-.386-3.169,7.393v28.514c0,2.9.592,6.337,3.169,6.337A2.582,2.582,0,0,0,221,128.7c-1.192-1.623-1.934-.059-2.112-2.113-0.229-2.637-.237-28.8,0-30.627S221,94.906,221,94.906,222.03,90.547,218.889,90.682Zm-2.112,45.412V172l7.392,4.224,6.337-3.168v7.393L245.291,172l1.056-7.393,5.281-3.168,1.056-47.525s-5.983-3.248,0-7.393c-0.389-.1,0-4.224,0-4.224l-9.5-9.5-19.01,5.281s-0.311,10.456,0,10.561c7.079,1.056,1.912,6.2,0,6.336-0.045.435,0,10.561,0,10.561s7,4.728,1.056,10.561C223.179,138.1,217.568,138.7,216.777,136.094ZM249.516,93.85V89.626s2.766-.671,3.168-2.112-0.1-4.674,1.056-5.281,2.112-1.056,2.112-1.056,0.392,8.832,0,9.5-1.571,5-2.112,5.281S250.873,95.207,249.516,93.85Zm-40.132,4.224-3.169,142.574,44.357-33.8,1.056-32.739-25.347,15.842v-9.5l-2.112,2.112-11.617-6.337V91.738h-3.168v6.337ZM73.147,53.718L91.1,27.316l80.264,2.112L186.15,59H173.476l-8.449-17.954L96.381,37.877,85.82,53.718H73.147Zm54.739,155.959v0l-0.221-.037-0.222-.034v0c-12.647-2.088-14.443-4.8-14.443-4.8s0.243-44.064.346-44.748a23.083,23.083,0,0,1,1.745-4.045c0.735-1.456-.009-6.388-0.009-6.388,2.137,2.829,11.146,4.151,12.678,4.358,1.536,0.127,10.753.78,12.994-1.637,0,0-.8,4.878-0.032,6.538a29.53,29.53,0,0,1,1.822,4.561c0.106,0.727.206,46.07,0.206,46.07S140.85,211.7,127.886,209.677Zm0.1-57.828a0.045,0.045,0,0,1,0,.008c-0.077-.008-0.148-0.019-0.225-0.028s-0.148-.012-0.225-0.02a0.045,0.045,0,0,0,0-.008c-7.762-.916-12.241-3.666-12.458-4.736-0.031-21.1,10.217-29.086,12.517-30.616,0-.2,0-0.319,0-0.319s0.085,0.061.227,0.171c0.142-.089.227-0.137,0.227-0.137s0,0.114,0,.319c2.307,1.878,12.823,11.644,12.715,33.243C140.536,150.774,135.874,152.6,127.99,151.849ZM94.4,212a0.013,0.013,0,0,1,0,0l-0.208-.036-0.208-.034v0c-11.428-1.966-12.763-4.079-13.15-4.6a8.963,8.963,0,0,1-.434-2.87,3.927,3.927,0,0,0,1.209-.605c0.213-.275-0.832-2.138-0.832-2.138,2.839,2.753,11.2,4.232,13.169,4.548v0l0.208,0.036,0.208,0.031v0c1.974,0.324,10.546,1.6,13.488-.278,0,0-1.075,1.564-.847,1.919a6.531,6.531,0,0,0,1.284,1.03s-0.011,2.394-.418,2.805S106.094,213.916,94.4,212Zm-0.052-7.709v0l-0.208-.035c-0.071-.011-0.137-0.02-0.208-0.032v0c-11.875-1.962-13.581-4.584-13.581-4.584s-0.13-42.749-.038-43.412a22.654,22.654,0,0,1,1.6-3.928c0.677-1.415-.061-6.194-0.061-6.194,2.026,2.736,10.48,3.987,11.917,4.181,1.44,0.118,10.077.72,12.155-1.63,0,0-.7,4.729.024,6.335a29.323,29.323,0,0,1,1.743,4.412c0.106,0.705.577,44.655,0.577,44.655S106.509,206.188,94.348,204.289ZM93.97,148.217s0,0.008,0,.008c-0.072-.008-0.139-0.019-0.211-0.027s-0.139-.011-0.211-0.019a0.073,0.073,0,0,1,0-.008c-7.282-.861-11.5-3.513-11.714-4.549-0.2-20.453,9.337-28.217,11.479-29.7,0-.2,0-0.309,0-0.309s0.08,0.058.214,0.164c0.133-.086.212-0.133,0.212-0.133s0,0.111,0,.309c2.176,1.814,12.1,11.246,12.18,32.167C105.709,147.133,101.359,148.92,93.97,148.217Zm-31.019,58.5a0.013,0.013,0,0,0,0,0l-0.2-.034-0.2-.031v0c-10.752-1.851-12.023-3.9-12.391-4.405a8.99,8.99,0,0,1-.431-2.786,3.652,3.652,0,0,0,1.132-.593c0.2-.269-0.8-2.073-0.8-2.073,2.69,2.66,10.56,4.055,12.408,4.352v0l0.2,0.034,0.2,0.029v0c1.856,0.306,9.913,1.5,12.659-.336,0,0-1,1.524-.779,1.867a6.2,6.2,0,0,0,1.213.993s0.009,2.324-.369,2.725S73.944,208.516,62.951,206.713Zm-0.111-7.485v0l-0.2-.033-0.2-.03v0c-11.171-1.847-12.8-4.386-12.8-4.386s-0.458-41.509-.378-42.153a22.317,22.317,0,0,1,1.476-3.818c0.625-1.376-.106-6.012-0.106-6.012,1.925,2.649,9.873,3.835,11.223,4.019,1.353,0.11,9.462.664,11.393-1.622,0,0-.624,4.589.073,6.144a29.167,29.167,0,0,1,1.671,4.273c0.1,0.683.9,43.324,0.9,43.324S74.271,201.011,62.84,199.228Zm-0.8-54.421a0.051,0.051,0,0,1,0,.008c-0.068-.007-0.131-0.018-0.2-0.025s-0.13-.01-0.2-0.017c0,0,0-.007,0-0.008-6.844-.813-10.828-3.372-11.036-4.377-0.349-19.844,8.544-27.4,10.543-28.845,0-.193,0-0.3,0-0.3s0.075,0.057.2,0.159c0.124-.084.2-0.13,0.2-0.13l0.005,0.3c2.056,1.754,11.443,10.874,11.685,31.159C73.045,143.718,68.979,145.466,62.038,144.807ZM114.3,209.152c0.23-.283-0.868-2.207-0.868-2.207,3,2.852,11.91,4.423,14,4.76v0l0.222,0.039,0.222,0.033v0c2.1,0.346,11.241,1.705,14.4-.21,0,0-1.162,1.606-.922,1.974a6.909,6.909,0,0,0,1.362,1.069s-0.034,2.469-.472,2.89-1.914,2.169-14.377.122c0,0,0,0,0,0l-0.221-.038-0.221-.036v0c-12.171-2.092-13.575-4.277-13.983-4.82s-0.437-2.96-.437-2.96A4.261,4.261,0,0,0,114.3,209.152Z"/>
</svg>
