<svg xmlns="http://www.w3.org/2000/svg" width="256" height="256" viewBox="0 0 256 256">
  <defs>
    <style>
      .cls-1 {
        fill: #fff;
        fill-rule: evenodd;
      }
    </style>
  </defs>
  <path id="Wenrexa_Satellite_dish" data-name="Wenrexa Satellite dish" class="cls-1" d="M226.455,39.122a19.563,19.563,0,1,1,19.563-19.563A19.564,19.564,0,0,1,226.455,39.122ZM121.9,62.605l-2.2-8.615,81.355-24.93a30.2,30.2,0,0,0,6.346,9.41Zm90.078-20.346a29.993,29.993,0,0,0,10.23,4.378l-16.06,86.091-9.717-3.205Zm30.583,107.348s-53.5,43.7-120.121,20.644C71.314,152.56,56.594,64.757,105.919,17.174,105.35,23.525,93.215,135.043,242.561,149.607ZM142.536,190.583c0.281,2.626,8.615,26.9,8.615,26.9L50.974,207.762l37.718-40.924S103.133,185.81,142.536,190.583Zm21.538,64.563L9,254.144l30.253-32.457,116.206,17.33Z"/>
</svg>
