<svg xmlns="http://www.w3.org/2000/svg" width="256" height="256" viewBox="0 0 256 256">
  <defs>
    <style>
      .cls-1 {
        fill: #fff;
        fill-rule: evenodd;
      }
    </style>
  </defs>
  <path id="Wenrexa_Box_Wrench" data-name="Wenrexa Box Wrench" class="cls-1" d="M0.116,83.392L3.283,208.986,201.7,240.649l3.166-139.315s1.808,7.388-15.831,7.388c-14.11,0-179.421-12.665-179.421-12.665S2.053,90.9.116,83.392Zm204.751,8.443s-1.194,11.609-12.665,11.609c-8.681,0-178.1-12.665-179.421-12.665S5.394,87.751,5.394,80.225C5.74,79.879,204.867,91.835,204.867,91.835ZM0.116,67.56v6.332L212.255,86.558V81.281Zm0-4.222,55.937-6.332,197.363,9.5L213.31,77.059ZM216.477,81.281v5.277h6.332l2.111,7.388L249.2,85.5l1.055-7.388,5.277-3.166V70.727Zm2.111,9.5s-3.167-.386-3.167,7.388v28.5c0,2.9.592,6.332,3.167,6.332a2.58,2.58,0,0,0,2.11-4.222c-1.191-1.621-1.933-.058-2.11-2.11-0.229-2.636-.237-28.783,0-30.607S220.7,95,220.7,95,221.727,90.644,218.588,90.78Zm-2.111,45.383v35.885l7.388,4.221L230.2,173.1v7.388l14.776-8.443,1.055-7.388,5.277-3.167L252.361,114s-5.979-3.246,0-7.388c-0.389-.1,0-4.222,0-4.222l-9.5-9.5-19,5.277s-0.311,10.45,0,10.555c7.074,1.055,1.91,6.192,0,6.332-0.046.434,0,10.554,0,10.554s7,4.725,1.055,10.554C222.875,138.167,217.268,138.761,216.477,136.162ZM249.2,93.946V89.724s2.764-.671,3.166-2.111-0.1-4.671,1.055-5.277,2.111-1.055,2.111-1.055,0.391,8.826,0,9.5-1.57,4.993-2.111,5.277S250.551,95.3,249.2,93.946Zm-40.106,4.222-3.166,142.482,44.327-33.774,1.055-32.718-25.33,15.832v-9.5l-2.11,2.111-11.61-6.333V91.835h-3.166v6.332ZM72.94,53.84L90.882,27.455l80.212,2.111L185.87,59.117H173.205l-8.444-17.942-68.6-3.166L85.605,53.84H72.94Zm84.644,143.91c-3.075-1.22-6.466,1.548-9.3,4.25-2.814,2.686-1.257,8.668-.851,10.745s13.92,7.672,13.92,7.672c-24.335,2.8-26.546-4.729-28.832-9.946s-4.291-10.486-8.5-16.052c-4.518-5.982-60.139-48.77-63.432-50.679-4-2.317-10.887-2.315-16.47-2.854-5.526-.533-12.052-12.31-11.514-12.662s6.645,2.768,9.524,3.586c2.895,0.821,6.607-4.029,7.681-6.01s0.593-7.6-1.494-9.146-13.074-2.81-8.641-5.01c4.474-2.221,17.181-1.065,20.076,2.39s5.957,13.271,9.369,18.559c3.433,5.32,45.747,34.135,58.048,43.814,11.6,9.131,22.026,5.264,29.713,7.568,7.785,2.333,13.065,18.477,13.065,18.477S160.674,198.976,157.584,197.75Z"/>
</svg>
