<svg xmlns="http://www.w3.org/2000/svg" width="256" height="256" viewBox="0 0 256 256">
  <defs>
    <style>
      .cls-1 {
        fill: #fff;
        fill-rule: evenodd;
      }
    </style>
  </defs>
  <path id="Wenrexa_Ammo_Reload" data-name="Wenrexa Ammo Reload" class="cls-1" d="M227.307,142.021c-0.043.306-.1,0.606-0.149,0.911L190.2,129.705c14.79-15.69,23.751-25.884,32.241-42.958,1.98,4.163,1.7,7.475,3.108,11.925L255.328,84.9Zm-43.128-28.494c-1.621,1.08-10.132-1.566-19.812-11.022a0.041,0.041,0,0,1-.012.009c-0.094-.094-0.177-0.187-0.27-0.281s-0.186-.176-0.281-0.27l0.009-.012c-9.456-9.679-12.1-18.191-11.022-19.811,27.059-27.059,60.834-36.588,65.765-35.931l0.4-.4s0.035,0.171.082,0.469c0.3,0.047.469,0.082,0.469,0.082l-0.4.4C219.766,51.694,211.237,86.468,184.179,113.527Zm-58.2-56.745A72.9,72.9,0,0,0,70.886,81.851L41.247,70.266a102.2,102.2,0,0,1,84.73-44.978c21.266,0,38,4.5,54.367,15.6-14.783,6.718-19.515,10.028-28.939,19.531C142.141,56.167,136.841,56.782,125.977,56.782ZM59.06,148.021L57,150c0.234,0.744-2.272,1.282-2.014,2.015-9.544,9.378-17.047,16.914-21.484,21.405-2.328-4.389-2.372-6.952-4.046-11.694L0,172.636l24.244-56.2c0.027-.244.068-0.484,0.1-0.728L73.7,133.837C68.5,138.83,63.587,143.6,59.06,148.021ZM33.44,195.985a9.39,9.39,0,0,0,2.753.55c0.719-.133,2.652-4.854,2.652-4.854,0.663,6.962,10.7,19.329,13.313,21.929l0-.005s0.1,0.1.272,0.279l0.278,0.272,0,0c2.6,2.61,14.967,12.649,21.929,13.312,0,0-4.721,1.933-4.855,2.652a9.4,9.4,0,0,0,.551,2.753s-4.236,4.188-5.405,4.3-6.544,1.935-21.922-13.319l0,0c-0.094-.094-0.181-0.183-0.274-0.276s0.818-.18.723-0.274l-1,0C27.2,207.933,29.021,202.545,29.136,201.39S33.44,195.985,33.44,195.985ZM56.47,210.4l0,0c-0.094-.094-0.18-0.184-0.274-0.277l-0.277-.274,0,0C40.1,193.884,43.048,186.377,43.048,186.377s88.434-87.6,89.47-88.37,4.794-2.237,7.71-3.3,8.259-8.26,8.259-8.26c-0.688,6.023,10.019,17.613,11.846,19.541,1.928,1.827,13.518,12.534,19.542,11.846,0,0-7.193,5.344-8.26,8.26s-2.531,6.672-3.3,7.709-88.369,88.471-88.369,88.471S72.434,226.216,56.47,210.4Zm71.508-6.394c22.268,0,40.2-10.963,53.607-26.666l27.077,10.613A102.166,102.166,0,0,1,125.977,230c-11.089,0-18.757.222-28.754-3.041,8.668-7.633,15.849-16.079,23.53-23.317C123.129,203.879,125.538,204.005,127.977,204.005Z"/>
</svg>
