<svg xmlns="http://www.w3.org/2000/svg" width="256" height="256" viewBox="0 0 256 256">
  <defs>
    <style>
      .cls-1 {
        fill: #fff;
        fill-rule: evenodd;
      }
    </style>
  </defs>
  <path id="Wenrexa_Repair_Kit" data-name="Wenrexa Repair Kit" class="cls-1" d="M256.164,90.406c-0.392.674-1.574,5.005-2.116,5.29s-2.873-.757-4.232-2.116V89.348s2.771-.672,3.174-2.116-0.1-4.682,1.058-5.29,2.116-1.058,2.116-1.058S256.556,89.731,256.164,90.406Zm-6.348-5.29L225.481,93.58l-2.116-7.406h-6.349v-5.29L256.164,70.3v4.232l-5.29,3.174ZM0.116,62.9l56.077-6.348,197.855,9.522L213.842,76.651ZM165.172,40.677L96.4,37.5,85.818,53.374h-12.7L91.109,26.923l80.411,2.116,14.813,29.625h-12.7Zm47.612,45.5L0.116,73.477V67.129L212.784,80.883v5.29Zm-20.1,16.929c-8.7,0-178.54-12.7-179.868-12.7S5.407,87.37,5.407,79.825c0.347-.347,199.971,11.639,199.971,11.639S204.18,103.1,192.681,103.1ZM9.639,95.7s165.723,12.7,179.868,12.7c12.852,0,15.4-3.91,15.84-6.048L202.2,240.649,3.291,208.907,0.116,83C2.058,90.523,9.639,95.7,9.639,95.7Zm135.51,33.335-1.243-2.667-1.239-2.658-7.413.092-2.279-2.155-0.145-6.573-5.114-2.081-4.693,4.956-3.706.124-4.363-4.83-5.362,2.476,0.341,6.937-1.831,2.067-6.955.707-1.8,4.8,4.733,4.632,0.122,3.031-4.408,5.03,1.01,2.329,1.014,2.335,6.712,0.187,2.172,2.181,0.229,6.78,4.863,2.031L121.105,154l2.834,0.072,5.135,5.175,5.608-2.323-0.806-6.715,2.609-2.7,7.066-.077,1.8-5.28-5.051-4.6-0.152-3.139Zm-94.82,59.058,0.491,1.777,4.907,0.988,1.351,1.808L56.5,197.447l3.327,2.029,4.389-2.665,2.052,0.4,3.148,4.248,4.312-.925,0.168-4.777,2.187-1.557,5.1,0.831,1.891-3.451-3.117-3.852,0.245-2.215,4.213-3.122-0.593-2.028-0.592-2.024-5.37-.9-1.409-1.814,0.636-4.652-3.484-2.15-3.978,2.881-2.721-.4L64.25,167.3l-4.212,1.039L59.519,173.3l-1.574,1.223-5.2-.42L50.9,177.274l2.98,3.9-0.242,2.157-3.794,2.984ZM38.947,142.753c5.6,0.541,12.506.538,16.511,2.861,3.3,1.914,59.061,44.809,63.591,50.805,4.216,5.58,6.231,10.875,8.517,16.093s4.508,12.778,28.9,9.97c0,0-13.548-5.608-13.955-7.691s-1.968-8.079.853-10.772c2.837-2.708,6.236-5.483,9.318-4.26,3.1,1.23,12.4,4.714,12.4,4.714s-5.293-16.185-13.1-18.523c-7.707-2.31-18.155,1.567-29.788-7.587-12.331-9.7-54.751-38.59-58.192-43.924-3.42-5.3-6.477-15.127-9.392-18.6s-15.641-4.622-20.126-2.4c-4.444,2.206,6.577,3.479,8.662,5.023s2.577,7.177,1.5,9.168-4.8,6.849-7.7,6.025-9.008-3.948-9.548-3.595S33.408,142.219,38.947,142.753Zm26.015,35.378a6.628,6.628,0,0,1,7.819,4.567,5.873,5.873,0,0,1-4.412,7.424,6.63,6.63,0,0,1-7.761-4.614A5.876,5.876,0,0,1,64.963,178.131ZM125.245,143.7a8.693,8.693,0,0,1-11.332-4.508,8.5,8.5,0,0,1,4.251-11.246,8.688,8.688,0,0,1,11.408,4.382A8.492,8.492,0,0,1,125.245,143.7Zm80.1-41.355,0.031-1.358A3.426,3.426,0,0,1,205.347,102.344Zm4.263-10.88h3.174v84.644l11.639,6.348,2.116-2.116v9.522l25.393-15.871-1.058,32.8-44.438,33.858L209.61,97.812V91.464ZM221.249,128.5a2.588,2.588,0,0,1-2.117,4.233c-2.581,0-3.174-3.445-3.174-6.349V97.812c0-7.793,3.174-7.406,3.174-7.406,3.148-.136,2.117,4.232,2.117,4.232s-1.879-.771-2.117,1.058-0.228,28.041,0,30.683C219.311,128.437,220.054,126.87,221.249,128.5Zm31.741-14.812-1.058,47.612-5.29,3.174-1.058,7.406-14.813,8.465v-7.407l-6.348,3.175-7.407-4.233V135.9c0.793,2.605,6.415,2.01,8.465,0,5.959-5.844-1.058-10.581-1.058-10.581s-0.046-10.145,0-10.58c1.915-.14,7.092-5.291,0-6.349-0.312-.1,0-10.58,0-10.58l19.045-5.29,9.522,9.522s-0.39,4.135,0,4.232C247,110.429,252.99,113.683,252.99,113.683Z"/>
</svg>
