<svg xmlns="http://www.w3.org/2000/svg" width="256" height="256" viewBox="0 0 256 256">
  <defs>
    <style>
      .cls-1 {
        fill: #fff;
        fill-rule: evenodd;
      }
    </style>
  </defs>
  <path id="Wenrexa_Shuriken" data-name="Wenrexa Shuriken" class="cls-1" d="M247.452,212.666c-30.675-38.13-83.492-10.944-83.492-10.944l-30.2-47.059a22.166,22.166,0,0,0-10.659,1.448l-6.349,53.525S17.236,271.507,41.234,252.3c38.143-30.534,13.073-84.776,13.073-84.776l41.666-26.582a22.13,22.13,0,0,0-4.16-17.925L36.039,106.466S-7.278.432,7.657,27.333C31.4,70.089,87.992,52.108,87.992,52.108l20.6,48.743a22.109,22.109,0,0,0,13.958-.753l6.543-54.645S229.644-15.957,205.643,3.3C167.5,33.9,191.425,87.511,191.425,87.511l-41.367,26.461a22.109,22.109,0,0,0,3.9,19.259l52.075,6.259S266.751,236.657,247.452,212.666ZM40.341,61.543c0.433-.752-13.012-4.264-13.012-4.264,0.1-.218,16.943,43.683,16.943,43.683S36.2,68.737,40.341,61.543ZM69.712,226.436c-0.233-.066,40.211-23.993,40.211-23.993S79.507,215.779,71.708,212.9C70.893,212.6,69.712,226.436,69.712,226.436Zm106.4-197.852c0.233,0.065-40.206,24.058-40.206,24.058S166.312,39.259,174.1,42.129C174.914,42.429,176.112,28.584,176.112,28.584ZM130.42,113.759a15.286,15.286,0,1,0,5.386,20.936A15.286,15.286,0,0,0,130.42,113.759Zm68.418,32.531s13.426,30.383,10.558,38.16c-0.3.813,13.566,2.021,13.566,2.021C222.9,186.7,198.838,146.29,198.838,146.29Z"/>
</svg>
