<svg xmlns="http://www.w3.org/2000/svg" width="256" height="256" viewBox="0 0 256 256">
  <defs>
    <style>
      .cls-1 {
        fill: #fff;
        fill-rule: evenodd;
      }
    </style>
  </defs>
  <path id="Wenrexa_Pistel_2_Ammo" data-name="Wenrexa Pistel 2 + Ammo" class="cls-1" d="M234.065,246.871v0.006c-0.083,0-.153,0-0.235,0s-0.152,0-.235,0v-0.006c-13.558-.066-15.517-2.816-15.517-2.816s0.358-49.54.47-50.312a29.451,29.451,0,0,1,1.881-4.7c0.789-1.7,0-7.053,0-7.053,2.286,2.877,11.852,3.245,13.4,3.286,1.549-.041,11.115-0.409,13.4-3.286,0,0-.789,5.353,0,7.053a29.451,29.451,0,0,1,1.881,4.7c0.113,0.772.47,50.312,0.47,50.312S247.623,246.805,234.065,246.871Zm0-63.952v0.009c-0.08,0-.155,0-0.235,0s-0.155,0-.235,0v-0.009c-8.17-.1-12.934-2.6-13.165-3.753,0-23.106,10.779-32.629,13.165-34.454,0-.21,0-0.342,0-0.342s0.088,0.059.235,0.165c0.147-.106.235-0.165,0.235-0.165s0,0.132,0,.342c2.386,1.825,13.165,11.348,13.165,34.454C247,180.319,242.236,182.823,234.066,182.919Zm-17.6-127.632-4.53-11.427s-11.2,5.111-12.786,1.1c0.1-.224-178.715,69.522-178.715,69.522s-6.688-15.45.082-26.478c0.171-.018,70.848-28.085,70.848-28.085l6.383,2.759,24-9.513,2.759-6.383S225.482,3.317,231.227,5.8s15.381,32.327,12.663,38.615ZM208.177,4.359L219.6-.171l2.955,4.118L207.7,9.836ZM19.414,75.219L48.178,74.4,20.753,84.241ZM196.39,52.37s4.308,2.978,12.1.494c-0.451.783,4.937,8.676,0.766,10.165s-51.539,20.837-51.539,20.837,0.674,6.168-1.163,7.073-12.3,2.838-10.758,9.554,10.283,26.149-4.317,31.937-34.622,10.852-37.139,13.586,3.374,81.4,2.823,84.932-44.829,31.667-73.465,22.7c0,0,12.934-95.023,8.307-101.438s-36.218-2.57-42.315-10.29c-2.073-1.231,21.676.994,23.012-21.726C22.978,119.811,196.39,52.37,196.39,52.37Zm-89.728,79.5c0.293,0.208,7.568,9.071,29.909-1.058,6-2.963,10.61-13.475,7.821-20.509s-10.119-13.179-13.887-11.685-19.375,6.358-25.593,8.823C104.912,107.441,95.32,118.913,106.662,131.87Zm-9.215,93.366L94.37,148.313l-2.051,22.564Zm-40,12.307L56.421,127.8,51.293,238.569ZM25.159,136.411a9.834,9.834,0,1,0,5.518-12.765A9.834,9.834,0,0,0,25.159,136.411ZM32,127.087a6.11,6.11,0,1,1-3.429,7.932A6.109,6.109,0,0,1,32,127.087Zm87.745-18.915c-1.683,3.488,1.5,15.33,15.47,16.573,4.1,1.952-3.3,4.34-13.124.313-6.744-2.764-13.084-13.952-13.084-13.952S121.43,104.683,119.747,108.172Zm32.267,74.756c-0.08,0-.155,0-0.235,0s-0.155,0-.235,0v-0.009c-8.17-.1-12.934-2.6-13.165-3.753,0-23.106,10.779-32.629,13.165-34.454,0-.21,0-0.342,0-0.342s0.088,0.059.235,0.165c0.147-.106.235-0.165,0.235-0.165s0,0.132,0,.342c2.386,1.825,13.165,11.348,13.165,34.454-0.231,1.153-5,3.657-13.165,3.753v0.009Zm-13.636,6.112c0.789-1.7,0-7.053,0-7.053,2.286,2.877,11.852,3.245,13.4,3.286,1.549-.041,11.115-0.409,13.4-3.286,0,0-.789,5.353,0,7.053a29.451,29.451,0,0,1,1.881,4.7c0.113,0.772.47,50.312,0.47,50.312s-1.959,2.75-15.517,2.816v0.006c-0.083,0-.153,0-0.235,0s-0.152,0-.235,0v-0.006c-13.558-.066-15.517-2.816-15.517-2.816s0.358-49.54.47-50.312A29.451,29.451,0,0,1,138.378,189.04Zm-0.94,59.717c0.25-.364-0.941-2.351-0.941-2.351,3.26,2.693,12.836,2.83,15.047,2.825v0l0.235,0,0.235,0v0c2.211,0,11.788-.132,15.047-2.825,0,0-1.19,1.987-.94,2.351a5.682,5.682,0,0,0,1.41.941s-0.021,2.743-.47,3.291-1.98,2.762-15.046,2.817a0.009,0.009,0,0,0,0,0c-0.083,0-.153,0-0.235,0s-0.152,0-.235,0v0c-13.066-.055-14.6-2.275-15.047-2.817s-0.47-3.291-.47-3.291A5.683,5.683,0,0,0,137.438,248.757Zm55.6-65.829c-0.081,0-.156,0-0.235,0s-0.155,0-.236,0v-0.009c-8.171-.1-12.935-2.6-13.165-3.753,0-23.106,10.779-32.629,13.164-34.454,0-.21,0-0.342,0-0.342s0.088,0.059.236,0.165c0.147-.106.235-0.165,0.235-0.165s0,0.132,0,.342c2.386,1.825,13.165,11.348,13.165,34.454-0.231,1.153-4.995,3.657-13.165,3.753A0.028,0.028,0,0,0,193.04,182.928ZM179.4,189.04c0.788-1.7,0-7.053,0-7.053,2.286,2.877,11.851,3.245,13.4,3.286,1.549-.041,11.114-0.409,13.4-3.286,0,0-.789,5.353,0,7.053a29.329,29.329,0,0,1,1.88,4.7c0.113,0.772.471,50.312,0.471,50.312s-1.96,2.75-15.517,2.816v0.006c-0.083,0-.154,0-0.235,0s-0.153,0-.236,0v-0.006c-13.557-.066-15.517-2.816-15.517-2.816s0.358-49.54.471-50.312A29.355,29.355,0,0,1,179.4,189.04Zm-0.941,59.717c0.25-.364-0.94-2.351-0.94-2.351,3.259,2.693,12.836,2.83,15.046,2.825v0l0.236,0,0.235,0v0c2.21,0,11.787-.132,15.046-2.825,0,0-1.19,1.987-.94,2.351a5.683,5.683,0,0,0,1.411.941s-0.021,2.743-.471,3.291-1.98,2.762-15.046,2.817v0c-0.083,0-.153,0-0.235,0s-0.153,0-.236,0v0c-13.066-.055-14.6-2.275-15.046-2.817s-0.471-3.291-.471-3.291A5.683,5.683,0,0,0,178.463,248.757Zm41.026,0c0.25-.364-0.941-2.351-0.941-2.351,3.26,2.693,12.836,2.83,15.047,2.825v0l0.235,0,0.235,0v0c2.211,0,11.788-.132,15.047-2.825,0,0-1.19,1.987-.94,2.351a5.682,5.682,0,0,0,1.41.941s-0.021,2.743-.47,3.291-1.98,2.762-15.046,2.817a0.009,0.009,0,0,0,0,0c-0.083,0-.153,0-0.235,0s-0.152,0-.235,0v0c-13.066-.055-14.6-2.275-15.047-2.817s-0.47-3.291-.47-3.291A5.683,5.683,0,0,0,219.489,248.757Z"/>
</svg>
