<svg xmlns="http://www.w3.org/2000/svg" width="256" height="256" viewBox="0 0 256 256">
  <defs>
    <style>
      .cls-1 {
        fill: #fff;
        fill-rule: evenodd;
      }
    </style>
  </defs>
  <path id="Wenrexa_Submachine_gun" data-name="Wenrexa Submachine gun" class="cls-1" d="M235.462,55.252V42.93H256V55.252H235.462Zm-5.134,0h-2.054v1.027H226.22v-15.4h2.054V41.9h2.054V40.876h2.053v15.4h-2.053V55.252ZM218.005,35.741l5.134,3.081V59.36l-5.134,1.027V35.741ZM153.31,105.57c-3.767.011-23.6-.01-28.753-2.053-4.528-1.8-3.477-23.432-3.156-28.648l-54.35-1.132L25.975,72.71s0-.747,0-2.054H23.75L22.894,96.328A52.47,52.47,0,0,1,5.437,95.3C-3.629,93.11-.278,86.539,2.356,80.925S-1.2,14.219,6.464,9.042s40.636,3.593,53.4,5.134,26.564,2.946,26.7,5.134c0.1,1.561-4.665,2.541-13.35,2.173v2.047l141.712,0.914V47.037H131.745l-4.107,4.108H82.454l-26.7-27.726L68.078,23.5V21.142c-2.223-.2-4.608-0.455-7.188-0.8C44.458,18.114,15.163,14.087,11.6,17.257s-0.131,39.192,0,44.157,12.323,4.108,12.323,4.108l-0.034,1.027h2.1c0.015-12.85.044-41.413-.008-42.1-0.067-.891,6.161-3.081,6.161-3.081h16.43L80.4,55.252h50.318l4.108-4.108h80.1V76.817l-51.281-1.068C164.168,98.368,156.97,105.56,153.31,105.57Zm7.337-29.883-32.557-.678c-2.916,7.428-3.431,25.145-.452,26.455,3.165,1.392,17.89,2.453,25.672,1.027C160.582,98.852,160.858,82.482,160.647,75.687Zm-21.713,22.7c-4.384-2.491-6.162-19.511-6.162-19.511h9.242s-2.86,3.664-3.08,10.269,7.188,11.3,7.188,11.3S143.317,100.873,138.934,98.382Zm59.56-77.017V19.311s7.63-6.161,12.322-6.161,3.081,7.716,3.081,9.242C213.9,21.269,198.494,21.365,198.494,21.365ZM118.4,16.23s2.224-2.054,8.215-2.054,8.215,2.054,8.215,2.054v5.134H118.4V16.23ZM79.374,77.844v79.071s-9.531-3.08-12.323-3.08,2.02-36.8,9.242-48.265c0.255-7.257,1.444-14.986-2.054-18.484s-12.707-8.974-11.3-9.242S79.374,77.844,79.374,77.844Zm38,0v75.991s-30.172,4.107-32.861,4.107c-1.551-5.274-1.027-80.1-1.027-80.1h33.888Zm-1.027,80.1s1.137,78.961,0,80.1-27.726,3.62-27.726,0,1.027-75.99,1.027-75.99Z"/>
</svg>
