<svg xmlns="http://www.w3.org/2000/svg" width="256" height="256" viewBox="0 0 256 256">
  <defs>
    <style>
      .cls-1 {
        fill: #fff;
        fill-rule: evenodd;
      }
    </style>
  </defs>
  <path id="Wenrexa_Box_Gear_Wheel" data-name="Wenrexa Box Gear Wheel" class="cls-1" d="M0.275,82.982L3.45,208.9l198.934,31.745,3.175-139.678s1.812,7.407-15.873,7.407C175.54,108.378,9.8,95.68,9.8,95.68S2.217,90.507.275,82.982Zm205.284,8.465s-1.2,11.639-12.7,11.639c-8.7,0-178.559-12.7-179.888-12.7S5.566,87.353,5.566,79.808C5.913,79.461,205.559,91.448,205.559,91.448ZM0.275,67.11v6.349l212.691,12.7V80.866Zm0-4.233,56.083-6.349,197.876,9.523-40.21,10.582ZM217.2,80.866v5.291h6.349l2.116,7.407L250,85.1l1.058-7.407,5.291-3.174V70.284Zm2.116,9.523S216.141,90,216.141,97.8v28.57c0,2.9.593,6.349,3.174,6.349a2.587,2.587,0,0,0,2.116-4.233c-1.194-1.625-1.938-.058-2.116-2.116-0.229-2.642-.237-28.858,0-30.687s2.116-1.058,2.116-1.058S222.462,90.254,219.315,90.39Zm-2.116,45.5v35.978l7.407,4.233,6.349-3.175v7.407l14.814-8.465,1.058-7.407,5.291-3.175,1.058-47.617s-5.995-3.254,0-7.407c-0.39-.1,0-4.233,0-4.233l-9.523-9.523L224.606,97.8s-0.312,10.476,0,10.581c7.092,1.058,1.915,6.209,0,6.349-0.046.436,0,10.582,0,10.582s7.018,4.737,1.058,10.581C223.614,137.9,217.992,138.5,217.2,135.89ZM250,93.564V89.331s2.771-.672,3.174-2.116-0.1-4.683,1.058-5.291,2.117-1.058,2.117-1.058,0.392,8.849,0,9.523-1.575,5.006-2.117,5.291S251.361,94.924,250,93.564ZM209.792,97.8l-3.175,142.852,44.443-33.862,1.058-32.8-25.4,15.873v-9.524l-2.116,2.117-11.64-6.349V91.448h-3.174V97.8ZM73.289,53.354L91.277,26.9,171.7,29.016l14.814,29.628h-12.7l-8.465-17.989L96.568,37.481,85.987,53.354h-12.7ZM99.809,153.872l-1.051,3.984,4.132,8.4-4.173,5.513-8.276-3.691-4.063,1.9-1.6,8.579-7.339-.184-4.011-8.989L70.187,167.8l-7.823,2.948-4.847-5.028,2.156-8.371-1.721-3.819L50.3,149.752l-0.343-3.406-0.343-3.406,6.882-3.908,0.948-3.842L53.6,126.88l3.823-5.1,8.4,2.8,2.914-1.648,2.188-9.034,7.282-.318,3.326,8.523,4.438,1.824,7.51-3.831,5.278,5.419-2.422,8.457,1.856,3.956,8.844,3.874,0.408,4.022,0.408,4.023ZM76.427,134.007c-5.722.126-9.788,5.405-9.143,11.794s5.769,11.584,11.507,11.6c5.809,0.017,10.035-5.267,9.374-11.8S82.22,133.879,76.427,134.007Zm44.207,67-1.174,2.514,2.087,6.265-3.574,3.066-5.581-3.726-3.14.664-2.054,5.533-5.316-1.226-1.991-6.68-2.206-1.575-6.05.795-3.051-4.165,2.461-5.36-0.873-2.872L84.9,190.443l0.1-2.385,0.1-2.386,5.507-1.56,1.1-2.471-1.972-6.316,3.363-2.863,5.9,3.3,2.313-.646,2.553-5.8,5.36,0.991,1.529,6.342,3.034,1.959,5.843-1.376,3.236,4.515-2.636,5.32,0.921,2.96,5.942,3.994-0.132,2.763-0.131,2.761Zm-14.858-17.1c-4.2-.837-7.734,2.1-7.927,6.553a9.673,9.673,0,0,0,7.205,9.676c4.222,0.911,7.839-2,8.045-6.511A9.648,9.648,0,0,0,105.776,183.905Zm29.167-45.112-0.605,2.143,2.252,4.479-2.346,2.993-4.606-1.914-2.3,1.063-0.947,4.656-4.157-.018-2.232-4.846-1.844-.839-4.511,1.679-2.771-2.71,1.3-4.6-0.971-2.08-4.425-2.038-0.178-1.869-0.179-1.869,4.025-2.151,0.572-2.1-2.172-4.55,2.246-2.776,4.82,1.553,1.678-.886,1.3-4.891,4.141-.129,1.833,4.617,2.492,1,4.228-2.031L134.5,123.6l-1.391,4.527,1.013,2.12,4.879,2.064,0.205,2.146,0.2,2.147Zm-13.029-10.656a5.582,5.582,0,0,0-5.285,6.413,6.8,6.8,0,0,0,6.5,6.253c3.285-.024,5.692-2.9,5.355-6.415A6.786,6.786,0,0,0,121.914,128.137Z"/>
</svg>
