<svg xmlns="http://www.w3.org/2000/svg" width="256" height="256" viewBox="0 0 256 256">
  <defs>
    <style>
      .cls-1 {
        fill: #fff;
        fill-rule: evenodd;
      }
    </style>
  </defs>
  <path id="Wenrexa_Ammunition_Box_2" data-name="Wenrexa Ammunition Box 2" class="cls-1" d="M0.275,83L3.45,208.907l198.913,31.742,3.174-139.663s1.812,7.407-15.871,7.407C175.521,108.393,9.8,95.7,9.8,95.7S2.217,90.523.275,83Zm205.262,8.464s-1.2,11.638-12.7,11.638c-8.7,0-178.54-12.7-179.868-12.7S5.566,87.37,5.566,79.825C5.913,79.478,205.537,91.464,205.537,91.464ZM0.275,67.129v6.348l212.668,12.7v-5.29Zm0-4.232,56.077-6.348,197.855,9.522L214,76.651Zm216.9,17.987v5.29h6.349l2.116,7.406,24.335-8.464,1.058-7.406,5.29-3.174V70.3Zm2.116,9.522s-3.174-.387-3.174,7.406v28.567c0,2.9.593,6.349,3.174,6.349a2.587,2.587,0,0,0,2.116-4.233c-1.194-1.625-1.938-.058-2.116-2.116-0.228-2.642-.237-28.854,0-30.683s2.116-1.058,2.116-1.058S222.438,90.27,219.291,90.406Zm-2.116,45.5v35.973l7.407,4.233,6.348-3.175v7.407l14.813-8.465,1.058-7.406,5.29-3.174,1.058-47.612s-5.994-3.254,0-7.407c-0.39-.1,0-4.232,0-4.232l-9.523-9.522-19.044,5.29s-0.312,10.475,0,10.581c7.091,1.057,1.915,6.208,0,6.348-0.046.435,0,10.58,0,10.58s7.017,4.737,1.058,10.581C223.59,137.912,217.968,138.507,217.175,135.9Zm32.8-42.322V89.348s2.771-.672,3.174-2.116-0.1-4.682,1.058-5.29,2.116-1.058,2.116-1.058,0.392,8.848,0,9.522-1.574,5.005-2.116,5.29S251.334,94.939,249.975,93.58Zm-40.206,4.232L206.6,240.649l44.438-33.858,1.058-32.8L226.7,189.862V180.34l-2.116,2.116-11.639-6.348V91.464h-3.174v6.348ZM73.281,53.374L91.268,26.923l80.412,2.116,14.813,29.625H173.8l-8.464-17.987L96.558,37.5,85.977,53.374h-12.7Zm72.405,64.692c0.313,3.239.711,18.815-17.618,35.862-1.085.668-6.587-1.263-12.69-7.674a0.045,0.045,0,0,1-.008,0c-0.059-.064-0.111-0.126-0.17-0.19s-0.118-.119-0.177-0.183l0.006-.008c-5.952-6.551-7.48-12.178-6.735-13.211,18.329-17.047,33.836-15.522,37.044-14.976l0.272-.251s0.019,0.113.042,0.308c0.194,0.038.305,0.065,0.305,0.065ZM113.336,147.8c1.217,1.24,8.54,8.514,12.493,8.207,0,0-4.828,3.323-5.595,5.2a31.879,31.879,0,0,1-2.342,4.962c-0.53.659-39.565,37.492-39.565,37.492s-3.622.487-13.684-10.23l0,0-0.172-.188c-0.059-.063-0.115-0.121-0.175-0.185l0,0c-9.961-10.811-9.212-14.389-9.212-14.389s39.563-36.265,40.259-36.746a31.868,31.868,0,0,1,5.117-1.977c1.931-.629,5.6-5.2,5.6-5.2C105.463,138.669,112.188,146.5,113.336,147.8Zm-50.91,47,0,0,0.171,0.189c0.11,0.117.176,0.184,0.176,0.184l0,0c1.637,1.768,8.806,9.254,13.342,9.852,0,0-2.455.522-2.559,0.989a6.153,6.153,0,0,0,.295,1.813s-2.191,2.007-2.958,2.055-3.646.479-13.337-9.856h0l-0.172-.187-0.174-.186,0,0c-9.607-10.414-8.967-13.263-8.865-14.016s2.264-2.8,2.264-2.8a6.159,6.159,0,0,0,1.787.425c0.473-.07,1.171-2.48,1.171-2.48C53.834,185.35,60.781,193.042,62.426,194.8Z"/>
</svg>
