<svg xmlns="http://www.w3.org/2000/svg" width="256" height="256" viewBox="0 0 256 256">
  <defs>
    <style>
      .cls-1 {
        fill: #fff;
        fill-rule: evenodd;
      }
    </style>
  </defs>
  <path id="Wenrexa_Ammo_Substract" data-name="Wenrexa Ammo Substract" class="cls-1" d="M252.07,191.412H147.73a4.1,4.1,0,0,1-4.1-4.1V166.827a4.1,4.1,0,0,1,4.1-4.1H252.07a4.1,4.1,0,0,1,4.1,4.1v20.482A4.1,4.1,0,0,1,252.07,191.412Zm-81.83-85.858c-2.3,1.53-14.356-2.219-28.07-15.617a0.141,0.141,0,0,1-.018.012c-0.134-.133-0.251-0.264-0.383-0.4s-0.264-.249-0.4-0.383c0,0,.01-0.013.012-0.018-13.4-13.714-17.147-25.774-15.616-28.07,38.3-38.3,71.982-36.257,79.014-35.326l0.567-.564s0.049,0.242.116,0.662c0.438,0.069.664,0.118,0.664,0.118l-0.565.569C206.494,33.529,208.579,67.214,170.24,105.554Zm-32.37-12.1c2.732,2.588,19.154,17.759,27.688,16.784,0,0-10.19,7.572-11.7,11.7s-3.586,9.454-4.681,10.923-82.7,84.263-82.7,84.263-7.8,1.339-30.423-21.071l-0.005,0c-0.134-.133-0.256-0.26-0.388-0.392l-0.393-.388,0.005,0C12.858,172.653,14.2,164.85,14.2,164.85s82.794-81.608,84.263-82.7,6.793-3.169,10.923-4.681,11.7-11.7,11.7-11.7C120.111,74.3,135.282,90.719,137.87,93.451ZM31.362,199.179s0.141,0.146.386,0.4,0.395,0.385.395,0.385l-0.006.006c3.684,3.7,19.789,19.34,29.654,20.28,0,0-5.273,1.322-5.462,2.34s0.78,3.9.78,3.9-4.585,4.517-6.242,4.682c-1.636.162-7.855,1.323-29.644-20.29l0,0c-0.134-.134-0.256-0.259-0.388-0.392s-0.258-.254-0.392-0.388a0.025,0.025,0,0,0,0,0C-1.17,188.309-.009,182.09.154,180.454c0.164-1.656,4.681-6.242,4.681-6.242s2.882,0.969,3.9.78,2.341-5.461,2.341-5.461c0.94,9.865,16.58,25.971,20.279,29.654Z"/>
</svg>
