<svg xmlns="http://www.w3.org/2000/svg" width="256" height="256" viewBox="0 0 256 256">
  <defs>
    <style>
      .cls-1 {
        fill: #fff;
        fill-rule: evenodd;
      }
    </style>
  </defs>
  <path id="Wenrexa_Gear_Wheel_1" data-name="Wenrexa Gear Wheel 1" class="cls-1" d="M219.1,158.922l-6.172,15.43,13.886,32.4-20.058,21.6-33.944-13.886-18.516,7.715-10.8,33.944h-32.4L97.2,220.64l-13.886-6.172-37.03,12.343L26.23,206.753l13.886-33.944-6.172-15.43L0,141.95V114.177L33.945,98.748l6.172-15.429L26.23,49.374,46.288,29.316,83.319,41.659,97.2,35.488,111.091,0h32.4l10.8,33.945,18.516,7.715,33.944-13.886,20.058,21.6-13.886,32.4L219.1,97.2l36.487,15.429v30.859ZM126.521,80.233a46.288,46.288,0,1,0,46.288,46.288A46.288,46.288,0,0,0,126.521,80.233Z"/>
</svg>
