<svg xmlns="http://www.w3.org/2000/svg" width="256" height="256" viewBox="0 0 256 256">
  <defs>
    <style>
      .cls-1 {
        fill: #fff;
        fill-rule: evenodd;
      }
    </style>
  </defs>
  <path id="Wenrexa_Submachine_gun_Ammo" data-name="Wenrexa Submachine gun + Ammo" class="cls-1" d="M235.52,55.292V43H256V55.292H235.52Zm0.209,82.423c2.382,1.823,13.144,11.33,13.144,34.4-0.23,1.151-4.987,3.652-13.144,3.747a0.028,0.028,0,0,0,0,.009c-0.08,0-.155,0-0.235,0s-0.154,0-.235,0v-0.009c-8.158-.095-12.915-2.6-13.145-3.747,0-23.07,10.762-32.577,13.144-34.4,0-.21,0-0.341,0-0.341s0.088,0.058.235,0.165c0.147-.107.235-0.165,0.235-0.165S235.728,137.5,235.729,137.714ZM230.4,55.292h-2.048v1.024H226.3V40.955h2.048v1.024H230.4V40.955h2.049v15.36H230.4V55.292ZM218.111,35.835l5.12,3.072v20.48l-5.12,1.024V35.835ZM153.6,105.469c-3.756.01-23.535-.011-28.673-2.049-4.515-1.79-3.467-23.366-3.147-28.567l-54.2-1.129L26.619,72.7s0-.745,0-2.048H24.4l-0.853,25.6A52.321,52.321,0,0,1,6.139,95.228C-2.9,93.043.44,86.491,3.067,80.892s-3.548-66.519,4.1-71.681,40.522,3.583,53.249,5.12,26.49,2.938,26.625,5.12c0.1,1.556-4.652,2.534-13.312,2.167v2.041l141.315,0.912V47.1H132.093L128,51.2H82.94L56.316,23.547,68.6,23.626V21.277c-2.217-.2-4.595-0.454-7.168-0.8-16.385-2.218-45.6-6.233-49.153-3.072s-0.13,39.083,0,44.033,12.288,4.1,12.288,4.1l-0.034,1.024h2.09c0.015-12.814.044-41.3-.008-41.985-0.067-.888,6.144-3.072,6.144-3.072H49.148L80.892,55.292h50.177l4.1-4.1h79.873V76.8L163.9,75.731C164.425,98.287,157.248,105.458,153.6,105.469Zm7.317-29.8-32.467-.676c-2.907,7.407-3.421,25.074-.451,26.38,3.157,1.388,17.84,2.447,25.6,1.024C160.85,98.768,161.125,82.445,160.915,75.668ZM139.262,98.3c-4.372-2.484-6.145-19.456-6.145-19.456h9.217s-2.853,3.654-3.072,10.24,7.168,11.264,7.168,11.264S143.633,100.785,139.262,98.3Zm59.393-76.8V19.451s7.609-6.144,12.288-6.144,3.072,7.694,3.072,9.216C214.015,21.4,198.655,21.5,198.655,21.5Zm-79.874-5.12s2.219-2.048,8.192-2.048,8.193,2.048,8.193,2.048V21.5H118.781v-5.12ZM79.868,77.82v78.85s-9.5-3.072-12.288-3.072S69.594,116.9,76.8,105.469c0.254-7.238,1.44-14.944-2.048-18.433S62.077,78.087,63.484,77.82,79.868,77.82,79.868,77.82Zm37.889,0V153.6s-30.087,4.1-32.768,4.1c-1.547-5.26-1.024-79.874-1.024-79.874h33.793Zm-1.024,79.874s1.135,78.739,0,79.873-27.648,3.61-27.648,0,1.024-75.777,1.024-75.777Zm37.073,18.176c-0.08,0-.155,0-0.235,0s-0.154,0-.234,0a0.028,0.028,0,0,1,0-.009c-8.158-.095-12.914-2.6-13.144-3.747,0-23.07,10.762-32.577,13.144-34.4,0-.21,0-0.341,0-0.341s0.088,0.058.234,0.165c0.147-.107.235-0.165,0.235-0.165s0,0.131,0,.341c2.382,1.823,13.144,11.33,13.144,34.4-0.23,1.151-4.987,3.652-13.144,3.747v0.009Zm-13.614,6.1c0.787-1.7,0-7.042,0-7.042,2.282,2.871,11.833,3.239,13.379,3.28,1.547-.041,11.1-0.409,13.38-3.28,0,0-.787,5.344,0,7.042a29.277,29.277,0,0,1,1.878,4.694c0.113,0.772.47,50.234,0.47,50.234s-1.957,2.746-15.493,2.811v0.006c-0.082,0-.153,0-0.235,0s-0.152,0-.234,0v-0.006c-13.536-.065-15.493-2.811-15.493-2.811s0.357-49.462.47-50.234A29.277,29.277,0,0,1,140.192,181.973ZM139.253,241.6c0.249-.363-0.939-2.347-0.939-2.347,3.254,2.688,12.816,2.826,15.023,2.821v0l0.234,0,0.235,0v0c2.207,0.005,11.769-.133,15.023-2.821,0,0-1.188,1.984-.939,2.347a5.659,5.659,0,0,0,1.409.939s-0.021,2.739-.47,3.287-1.977,2.757-15.022,2.811a0.015,0.015,0,0,0,0,.006c-0.083,0-.153,0-0.235,0s-0.152,0-.234,0a0.015,0.015,0,0,0,0-.006c-13.045-.054-14.579-2.27-15.022-2.811s-0.47-3.287-.47-3.287A5.659,5.659,0,0,0,139.253,241.6Zm55.514-65.725c-0.08,0-.155,0-0.235,0s-0.154,0-.234,0a0.028,0.028,0,0,1,0-.009c-8.158-.095-12.914-2.6-13.145-3.747,0-23.07,10.762-32.577,13.145-34.4,0-.21,0-0.341,0-0.341s0.087,0.058.234,0.165c0.147-.107.235-0.165,0.235-0.165s0,0.131,0,.341c2.382,1.823,13.144,11.33,13.144,34.4-0.23,1.151-4.987,3.652-13.144,3.747v0.009Zm-13.615,6.1c0.788-1.7,0-7.042,0-7.042,2.283,2.871,11.833,3.239,13.38,3.28,1.547-.041,11.1-0.409,13.38-3.28,0,0-.787,5.344,0,7.042a29.277,29.277,0,0,1,1.878,4.694c0.113,0.772.47,50.234,0.47,50.234s-1.957,2.746-15.493,2.811v0.006c-0.083,0-.153,0-0.235,0s-0.152,0-.234,0v-0.006c-13.537-.065-15.493-2.811-15.493-2.811s0.357-49.462.469-50.234A29.47,29.47,0,0,1,181.152,181.973ZM180.213,241.6c0.25-.363-0.939-2.347-0.939-2.347,3.255,2.688,12.816,2.826,15.024,2.821v0l0.234,0,0.235,0v0c2.207,0.005,11.769-.133,15.023-2.821,0,0-1.188,1.984-.939,2.347a5.659,5.659,0,0,0,1.409.939s-0.021,2.739-.47,3.287-1.977,2.757-15.023,2.811v0.006c-0.083,0-.153,0-0.235,0s-0.152,0-.234,0a0.011,0.011,0,0,1,0-.006c-13.045-.054-14.579-2.27-15.023-2.811s-0.469-3.287-.469-3.287A5.64,5.64,0,0,0,180.213,241.6Zm41.9-59.622c0.788-1.7,0-7.042,0-7.042,2.283,2.871,11.833,3.239,13.38,3.28,1.547-.041,11.1-0.409,13.38-3.28,0,0-.788,5.344,0,7.042a29.373,29.373,0,0,1,1.878,4.694c0.112,0.772.469,50.234,0.469,50.234s-1.956,2.746-15.492,2.811v0.006c-0.083,0-.153,0-0.235,0s-0.152,0-.235,0v-0.006c-13.536-.065-15.492-2.811-15.492-2.811s0.357-49.462.469-50.234A29.47,29.47,0,0,1,222.113,181.973ZM221.174,241.6c0.25-.363-0.939-2.347-0.939-2.347,3.255,2.688,12.816,2.826,15.023,2.821v0l0.235,0,0.235,0v0c2.207,0.005,11.769-.133,15.023-2.821,0,0-1.189,1.984-.939,2.347a5.658,5.658,0,0,0,1.408.939s-0.02,2.739-.469,3.287-1.977,2.757-15.023,2.811v0.006c-0.083,0-.153,0-0.235,0s-0.152,0-.235,0v-0.006c-13.045-.054-14.579-2.27-15.023-2.811s-0.469-3.287-.469-3.287A5.64,5.64,0,0,0,221.174,241.6Z"/>
</svg>
