<svg xmlns="http://www.w3.org/2000/svg" width="256" height="256" viewBox="0 0 256 256">
  <defs>
    <style>
      .cls-1 {
        fill: #fff;
        fill-rule: evenodd;
      }
    </style>
  </defs>
  <path id="Wenrexa_Grenade" data-name="Wenrexa Grenade" class="cls-1" d="M225.589,183.506c-4.065,2.092-14.707,6.4-42.231,9.305a156.13,156.13,0,0,0,4.7-39.33l3.562-.122c14.258-.489,29.417,1.815,33.691,3.972,0.561,3.638,1.106,7.476,1.638,11.551A79.733,79.733,0,0,1,225.589,183.506ZM178.86,95.11c22.816,1.457,34.482,7.933,42.349,40.7-5.948,1.041-18.71,3.157-33.676,4.939C185.733,117.582,179.952,100.431,178.86,95.11Zm17.045-50.949c-8.327.961-2.068-19.324-13.918-6.423s12.847,47.105,12.847,47.105h-91c0-2.079-.431-6.364,2.141-9.635s23.414-4,28.905-7.494c8.263-9.379-4.105-39.128-14.988-39.611-7.1-.315-13.477,2.873-23.954,15.279a46.166,46.166,0,0,0-13.515-17.91Q91.557,13.63,102.765,1.338c4.182-4.565,74.44,3.749,84.575,3.212s1.992,1.923,12.847,12.847S204.231,43.2,195.905,44.161ZM95.289,62.37a39.62,39.62,0,1,1-39.62-39.62A39.62,39.62,0,0,1,95.289,62.37ZM55.341,34.728A27.314,27.314,0,1,0,82.656,62.042,27.314,27.314,0,0,0,55.341,34.728Zm2.3,46.829a34.184,34.184,0,0,1-9.367.089,252.932,252.932,0,0,1,19.462-35.5c5.374,4.722,8.186,11.107,7.193,17.281C72.577,78.071,66.512,80.318,57.642,81.557Zm-4.123,25.768a46.378,46.378,0,0,0,6.73-.5c-8.291,32.594-6.575,66.754-8.871,69.011-3.174,3.12-8.26-1.387-14.988-26.764-2.672-10.077-2.106-25.232,3.245-43.888A45.989,45.989,0,0,0,53.519,107.325Zm52.793,47.008a155.516,155.516,0,0,0,5.018,39.708c0.158,0.6.31,1.17,0.466,1.756-13.932-.373-28.489-1.621-37.594-4.79a72.208,72.208,0,0,1-3.555-22.125c0.507-3.451,1.033-6.727,1.574-9.87C80.053,158.2,95.677,154.017,106.312,154.333ZM77.1,136.284c8.715-32.191,20.964-40.191,38.543-41.849-0.649,4.385-6.965,22.2-8.819,46.632C94.244,139.459,83.558,137.494,77.1,136.284Zm37.089,70.4c8.862,32.3,12.974,38.812,14.541,44.36-16.117-7.467-34.866-20.688-46.606-40.537a24.489,24.489,0,0,1,14.215-3.76C99.269,206.843,105.73,206.792,114.191,206.683Zm53.572-52.566c-0.406,13.325-1.267,27.591-2.3,40.191-4.822.312-10,.584-15.594,0.8,0,0-8.844.582-20.817,0.765-1.07-12.742-1.974-27.338-2.407-41C139.049,154.848,154.587,154.492,167.763,154.117Zm-6.117,73.111c-2.395,12.046-9.566,22.65-14.452,28.76-4.885-6.109-12.057-16.711-14.453-28.76a201.468,201.468,0,0,1-2.915-20.764c10.887-.156,23.088-0.323,34.773-0.394A205.28,205.28,0,0,1,161.646,227.228ZM148.8,94.478c3.435,0.068,6.692.1,9.817,0.133,1.737,1.135,2.269-2.615,7.312,15.925,1.645,6.049,2.2,18.021,2.069,32.162-7.943.625-15.957,1.026-23.481,1.026-6.053,0-12.154-.261-18.123-0.687-0.141-14.287.407-26.4,2.065-32.5,5.214-19.172,5.6-14.507,7.494-16.058l1.308-.405C143.531,94.161,141.355,94.478,148.8,94.478Zm65.3,113.339a15.7,15.7,0,0,1,2.987,1.9c-11.747,22.272-32.26,36.833-51.916,43.354,1.08-5.819,5.075-10.052,15.195-47.029C197.764,206.109,211.58,206.551,214.1,207.817Z"/>
</svg>
