<svg xmlns="http://www.w3.org/2000/svg" width="256" height="256" viewBox="0 0 256 256">
  <defs>
    <style>
      .cls-1 {
        fill: #fff;
        fill-rule: evenodd;
      }
    </style>
  </defs>
  <path id="Wenrexa_Reload_2" data-name="Wenrexa Reload 2" class="cls-1" d="M256.589,95.342l0.128-.37S256.674,95.107,256.589,95.342ZM204.4,113.573c10.57,2.548,17.039,2.741,23.887,1.592-1.969-5.883-2.373-11.546-5.31-16.909A103.466,103.466,0,0,0,28.553,168.977,104.776,104.776,0,0,0,92.569,245.7,118,118,0,0,1,117.789,12.43c59.662,0,109.973,44.287,117.884,101.774,15.985-4.449,18.052-10.48,18.874-12.737L235.79,155.426Zm-99.353,5.1a0.027,0.027,0,0,1,0,.011c-0.1,0-.19,0-0.287,0s-0.189,0-.287,0a0.027,0.027,0,0,1,0-.011c-9.977-.116-15.8-3.174-16.077-4.583,0-28.217,13.164-39.847,16.078-42.076,0-.268,0-0.418,0-0.418s0.107,0.071.287,0.2c0.18-.13.287-0.2,0.287-0.2s0,0.15,0,.418c2.914,2.229,16.078,13.858,16.078,42.076C120.843,115.5,115.025,118.561,105.048,118.677ZM123.422,131.9c0.137,0.943.574,61.443,0.574,61.443s-2.379,3.365-18.95,3.442v0l-0.287,0-0.287,0v0c-16.571-.077-18.95-3.442-18.95-3.442s0.437-60.5.574-61.443a35.907,35.907,0,0,1,2.3-5.743c0.963-2.076,0-8.613,0-8.613,2.782,3.5,14.408,3.96,16.366,4.013,1.958-.053,13.584-0.514,16.366-4.013,0,0-.964,6.537,0,8.613A36,36,0,0,1,123.422,131.9ZM86.1,204.25c-0.549-.67-0.574-4.02-0.574-4.02a6.942,6.942,0,0,0,1.723-1.148c0.305-.445-1.148-2.871-1.148-2.871,3.976,3.284,15.659,3.455,18.376,3.45v0l0.287,0,0.287,0v0c2.717,0,14.4-.166,18.376-3.45,0,0-1.454,2.426-1.149,2.871A6.955,6.955,0,0,0,124,200.23s-0.025,3.35-.574,4.02-2.4,3.378-18.376,3.442v0h-0.574v0C88.5,207.628,86.639,204.912,86.1,204.25Zm63.743-85.573a0.075,0.075,0,0,1,0,.011c-0.1,0-.19,0-0.287,0s-0.189,0-.287,0a0.053,0.053,0,0,1,0-.011c-9.977-.116-15.795-3.174-16.076-4.583,0-28.217,13.163-39.847,16.077-42.076,0-.268,0-0.418,0-0.418s0.107,0.071.287,0.2c0.179-.13.287-0.2,0.287-0.2s0,0.15,0,.418c2.914,2.229,16.077,13.858,16.077,42.076C165.634,115.5,159.816,118.561,149.839,118.677Zm-16.655,7.476c0.963-2.076,0-8.613,0-8.613,2.782,3.5,14.408,3.96,16.366,4.013,1.957-.053,13.584-0.514,16.365-4.013,0,0-.963,6.537,0,8.613a35.811,35.811,0,0,1,2.3,5.743c0.138,0.943.575,61.443,0.575,61.443s-2.379,3.365-18.95,3.442v0l-0.287,0-0.287,0v0c-16.572-.077-18.95-3.442-18.95-3.442s0.436-60.5.574-61.443A35.811,35.811,0,0,1,133.184,126.153Zm-1.149,72.929c0.306-.445-1.148-2.871-1.148-2.871,3.976,3.284,15.659,3.455,18.376,3.45v0l0.287,0,0.287,0v0c2.716,0,14.4-.166,18.375-3.45,0,0-1.453,2.426-1.148,2.871a6.937,6.937,0,0,0,1.723,1.148s-0.026,3.35-.575,4.02-2.4,3.378-18.375,3.442v0h-0.574a0,0,0,0,1,0,0c-15.972-.064-17.833-2.78-18.375-3.442s-0.574-4.02-.574-4.02A6.936,6.936,0,0,0,132.035,199.082Z"/>
</svg>
