<svg xmlns="http://www.w3.org/2000/svg" width="256" height="256" viewBox="0 0 256 256">
  <defs>
    <style>
      .cls-1 {
        fill: #fff;
        fill-rule: evenodd;
      }
    </style>
  </defs>
  <path id="Wenrexa_Pistel_2" data-name="Wenrexa Pistel 2" class="cls-1" d="M33.849,254.653s12.993-95.453,8.344-101.9S5.811,150.175-.313,142.419c-2.083-1.237,21.774,1,23.116-21.824,0.281-.388,174.477-68.134,174.477-68.134s4.327,2.991,12.151.5c-0.453.786,4.959,8.715,0.769,10.211S158.428,84.1,158.428,84.1s0.677,6.2-1.168,7.1-12.351,2.851-10.807,9.6,10.33,26.267-4.336,32.081-34.779,10.9-37.307,13.648,3.389,81.766,2.835,85.315S62.613,263.656,33.849,254.653Zm-13.321-139.8s-6.719-15.52.082-26.6c0.172-.018,71.168-28.212,71.168-28.212l6.412,2.771L122.3,53.262l2.771-6.412S226.5,3.186,232.275,5.681s15.45,32.473,12.72,38.79L217.446,55.392,212.9,43.913s-11.247,5.134-12.843,1.107C200.149,44.795,20.528,114.856,20.528,114.856Zm84.86-7.075s-9.636,11.524,1.759,24.54c0.294,0.208,7.6,9.112,30.044-1.063,6.022-2.976,10.657-13.535,7.856-20.6S134.883,97.418,131.1,98.919,111.634,105.305,105.388,107.781Zm4.116,3.682s6.369,11.239,13.143,14.015c9.871,4.046,17.3,1.646,13.184-.314C121.8,123.915,118.6,112.02,120.29,108.516S109.5,111.463,109.5,111.463ZM98.823,228.6l-2.3.911M30.818,124.059a9.878,9.878,0,1,1-5.543,12.823A9.878,9.878,0,0,1,30.818,124.059Zm1.331,3.457a6.138,6.138,0,1,1-3.444,7.968A6.138,6.138,0,0,1,32.149,127.516ZM48.4,74.587L19.5,75.414l1.345,9.063Zm44.33,147.821-2.043.81M209.121,4.233l-0.476,5.5L223.567,3.82,220.6-.317Zm-152.443,124L51.527,239.5l6.182-1.03ZM92.738,171.5l5.151,54.605L94.8,148.838Z"/>
</svg>
