<svg xmlns="http://www.w3.org/2000/svg" width="256" height="256" viewBox="0 0 256 256">
  <defs>
    <style>
      .cls-1 {
        fill: #fff;
        fill-rule: evenodd;
      }
    </style>
  </defs>
  <path id="Wenrexa_Police" data-name="Wenrexa Police" class="cls-1" d="M200.6,58.98h55.4l-9.585,22.366H195.555c-0.045-5.521,1.146-12.324,4.235-20.756C199.849,60.577,202.711,59.976,200.6,58.98Zm3.394,52.155-33.964,78.119-41.839,26.289-41.84-26.289L52.384,111.135s32.655-1.365,16.982-44.154c-0.4-.091,58.822-27.172,58.822-27.172s59.226,27.081,58.821,27.172C171.337,109.77,203.991,111.135,203.991,111.135ZM9.966,81.346L0.381,58.98h55.4c-2.114,1,.748,1.6.807,1.611,3.088,8.432,4.28,15.234,4.235,20.756H9.966Zm29.637,23.4,3.719,11.749H25.942L13.161,90.932H59.173C54.178,104.115,39.6,104.744,39.6,104.744Zm17.611,46.9H38.723l-9.585-22.366H47.489Zm13.892,31.951H51.5l-9.585-22.366H61.381Zm143.351-22.366-9.585,22.366h-19.6l9.725-22.366h19.463Zm-5.571-31.951h18.352l-9.586,22.366H199.161Zm7.886-24.53s-14.575-.629-19.57-13.812h46.012l-12.781,25.561h-17.38Z"/>
</svg>
