<svg xmlns="http://www.w3.org/2000/svg" width="256" height="256" viewBox="0 0 256 256">
  <defs>
    <style>
      .cls-1 {
        fill: #fff;
        fill-rule: evenodd;
      }
    </style>
  </defs>
  <path id="Wenrexa_Reload" data-name="Wenrexa Reload" class="cls-1" d="M227.307,142.021c-0.043.306-.1,0.606-0.149,0.911l-62.526-24.439,30.807-11.41A73.095,73.095,0,0,0,70.886,81.851L41.247,70.266a102.344,102.344,0,0,1,182.3,26.405L255.328,84.9ZM24.34,115.706l62.853,24.636-30.98,11.474a73.109,73.109,0,0,0,125.371,25.523l27.077,10.613A102.346,102.346,0,0,1,29.456,161.726L0,172.636l24.244-56.2C24.27,116.19,24.312,115.95,24.34,115.706Z"/>
</svg>
