<svg xmlns="http://www.w3.org/2000/svg" width="256" height="256" viewBox="0 0 256 256">
  <defs>
    <style>
      .cls-1 {
        fill: #fff;
        fill-rule: evenodd;
      }
    </style>
  </defs>
  <path id="Wenrexa_Basket" data-name="Wenrexa Basket" class="cls-1" d="M255.956,70.332l-0.523,8.86H0.443l-0.522-8.86c-0.485-8.389,5.431-18.287,13.217-18.287h229.6C250.525,52.046,256.441,61.943,255.956,70.332ZM169.73,42.972L153.665,27.9H101.454L85.389,42.972H73.341l-2.008-6.459S81.6,32.544,93.422,17.135c1.11-.588,34.138,0,34.138,0s33.028-.588,34.138,0c11.823,15.408,22.089,19.377,22.089,19.377l-2.008,6.459H169.73ZM246.788,225.84A13.871,13.871,0,0,1,233.122,238.8H22.755A13.871,13.871,0,0,1,9.088,225.84L1.154,91.241H254.723Z"/>
</svg>
